<?xml version="1.0" encoding="UTF-8"?>
<svg id="Camada_2" data-name="Camada 2" xmlns="http://www.w3.org/2000/svg" viewBox="0 0 1620.19 911.36">
  <defs>
    <style>
      .cls-1 {
        fill: #3d84c0;
      }

      .cls-2 {
        fill: #fd0;
      }

      .cls-3 {
        fill: #fd0;
      }

      .cls-4 {
        fill: #fff;
      }

      .cls-5 {
        fill: #f7e723;
      }

      .cls-6 {
        fill: #1a171b;
      }

      .cls-7 {
        fill: #231f20;
      }

      .cls-8 {
        fill: #1a171b;
      }

      .cls-9 {
        stroke-linecap: round;
        stroke-width: 16.44px;
      }

      .cls-9, .cls-10 {
        fill: none;
        stroke: #1a171b;
        stroke-miterlimit: 10;
      }

      .cls-10 {
        stroke-width: 2.05px;
      }
    </style>
  </defs>
  <path class="cls-9" d="M773.44,152.74h-43.82c-27.32,0-49.46,22.14-49.46,49.46h0c0,27.32,22.14,49.46,49.46,49.46h67.06"/>
  <path class="cls-3" d="M1394.95,315.06c-17.39,307.89-272.58,552.2-584.82,552.2S241.94,622.23,225.23,313.68"/>
  <path class="cls-3" d="M225.23,313.68c-1.09-20.07,9.05-39.07,26.19-49.57,43.31-26.53,129.76-67.91,193.03-67.91,70.82,0,211.25,65.22,292.23,94.82,23.71,8.67,48.86,12.59,74.08,11.54,74.98-3.11,280.77-14.9,368.5-52.94,72.9-31.61,145.81-6.22,185.68,13.76,19.37,9.71,31.21,30.05,29.99,51.69"/>
  <g>
    <polygon class="cls-3" points="536.04 228.99 536.04 205.83 551.09 190.78 566.15 190.78 566.15 228.99 536.04 228.99"/>
    <polygon class="cls-8" points="581.2 228.99 581.2 205.83 566.15 190.78 551.09 205.83 551.09 228.99 581.2 228.99"/>
  </g>
  <g>
    <polygon class="cls-3" points="570.26 242.82 570.26 219.67 585.31 204.61 600.37 204.61 600.37 242.82 570.26 242.82"/>
    <polygon class="cls-8" points="615.42 242.82 615.42 219.67 600.37 204.61 585.31 219.67 585.31 242.82 615.42 242.82"/>
  </g>
  <polygon class="cls-3" points="519.43 210.22 519.45 166.35 515.33 166.35 515.33 170.45 511.15 170.45 511.15 166.35 507.03 166.35 507.03 170.45 502.84 170.45 502.84 166.35 498.73 166.35 498.71 184.07 494.54 184.07 494.54 179.96 490.42 179.96 490.42 184.07 486.24 184.07 486.24 179.96 482.12 179.96 482.12 184.07 477.94 184.07 477.94 179.96 473.82 179.96 473.82 184.07 469.63 184.07 469.63 179.96 465.52 179.96 465.52 184.07 461.32 184.07 461.26 173.23 461.28 166.35 457.16 166.35 457.16 170.45 452.98 170.45 452.98 160.81 462.38 160.81 458.49 156.84 462.38 152.87 448.86 152.87 448.86 170.45 444.67 170.45 444.67 166.35 440.56 166.35 440.54 184.07 436.37 184.07 436.37 179.96 432.26 179.96 432.26 184.07 428.07 184.07 428.07 179.96 423.95 179.96 423.95 184.07 419.77 184.07 419.77 179.96 415.65 179.96 415.65 184.07 411.46 184.07 411.46 179.96 407.35 179.96 407.35 184.07 403.15 184.07 403.16 166.35 399.05 166.35 399.05 170.45 394.86 170.45 394.86 160.81 404.26 160.81 400.38 156.84 404.26 152.87 394.86 152.87 390.74 152.87 390.74 170.45 386.56 170.45 386.56 166.35 382.44 166.35 382.42 232.76 519.43 210.22"/>
  <path class="cls-1" d="M858.99,300.14c-19.02,1.11-35.5,1.89-48.21,2.42-25.22,1.04-50.38-2.87-74.08-11.54-14.7-5.37-31.38-12.14-49.24-19.59l-11.6-.51s-28.7,6.52-86.1-10.44c-57.4-16.96-144.81-31.2-208.74-8.42-63.32,22.56-145.11,28.39-146.66,28.5-6.42,9.62-9.77,21.17-9.13,33.12.05.97.14,1.93.19,2.9h642.39l-8.82-16.44Z"/>
  <path class="cls-3" d="M763.2,199.76v-50.55c0-4.8,3.89-8.7,8.7-8.7s8.7,3.89,8.7,8.7v50.55h15.91l-4.03-74.09h-14.91v-24.44s.16-5.27-1.77-7.06h0s1.76-2.08,1.76-2.08h11.58l1.51-4.06h3.81s2.19-.19,2.19-1.34c0-1.38-5.71-1.26-5.71-1.26v-1h-7.39c-.85,0-1.69-.17-2.48-.49l-.91-.37c-1-.41-2.07-.61-3.15-.59h-.13s0,0,0,0h0c-1.36-1.79-2.1-3.97-2.12-6.21h0s0-.06,0-.09c0,0,0-.01,0-.02v-.02h0c-.07-1.54-1.33-2.76-2.89-2.76s-2.82,1.22-2.89,2.76h0v.02c0,2.28-.75,4.5-2.13,6.32h-.13c-1.08-.02-2.15.18-3.15.59l-.91.37c-.79.32-1.63.49-2.48.49h-7.39v1s-5.71-.11-5.71,1.26c0,1.15,2.19,1.34,2.19,1.34h3.81l1.51,4.06h11.58l1.76,2.07h0c-1.92,1.8-1.77,7.07-1.77,7.07v24.44h-14.91l-4.03,74.09h15.91Z"/>
  <ellipse class="cls-3" cx="1060.1" cy="186.42" rx="16.72" ry="34.76"/>
  <path class="cls-8" d="M1335.85,316.58s-83.35,0-163.94-28.7c-78.24-27.86-106.11-62.62-140.03-57.4-33.92,5.22-91.23,63.69-137.49,13.05-46.27-50.64-111.69-71.75-156.04-43.05-44.36,28.7-103.06,126.55-171.52,96.54-68.46-30.01-157.24,19.57-157.24,19.57h926.27Z"/>
  <g id="logo">
    <path class="cls-8" d="M442.52,402.46c.03-.51.16-.93.38-1.26.23-.34.51-.6.86-.81.34-.2.73-.35,1.17-.43.43-.09.87-.13,1.31-.13.4,0,.8.03,1.21.09.41.05.78.16,1.12.33.34.16.61.39.82.68.22.29.32.67.32,1.15v4.09c0,.36.02.69.06,1.02.04.33.12.57.22.73h-2.2c-.04-.12-.07-.24-.1-.37-.03-.13-.04-.26-.05-.39-.35.36-.76.6-1.22.75-.47.14-.95.21-1.44.21-.38,0-.73-.05-1.05-.14-.33-.09-.61-.23-.86-.42-.24-.19-.44-.43-.57-.73-.14-.29-.2-.64-.2-1.05,0-.45.07-.81.24-1.1.16-.29.36-.52.61-.69.25-.17.54-.3.86-.39.32-.09.64-.15.97-.2.33-.05.64-.09.96-.12.31-.03.59-.08.84-.14.24-.06.44-.15.58-.26.14-.12.21-.29.2-.51,0-.23-.04-.42-.12-.55-.07-.14-.18-.24-.3-.32-.13-.08-.27-.13-.44-.15-.17-.02-.35-.04-.54-.04-.43,0-.76.09-1.01.28-.25.18-.39.48-.43.91h-2.17ZM447.53,404.05c-.09.08-.21.14-.35.19-.14.05-.28.09-.44.12-.16.03-.33.06-.5.08-.18.02-.35.05-.52.08-.16.03-.32.07-.48.12-.16.05-.3.12-.41.2-.12.09-.21.19-.28.33-.07.13-.11.3-.11.5s.03.36.11.49c.07.13.17.23.29.31.12.07.26.13.42.16.16.03.33.05.51.05.43,0,.76-.07.99-.21.23-.14.41-.31.52-.51.11-.2.18-.4.21-.6.03-.2.04-.36.04-.48v-.81h0ZM449.02,395.97l-2.49,2.69h-1.51l1.62-2.69h2.38Z"/>
    <path class="cls-8" d="M453.83,400.04v1.46h.03c.1-.24.24-.47.41-.68.17-.21.37-.39.59-.53.22-.15.47-.26.72-.34s.52-.12.79-.12c.15,0,.3.03.48.08v2.01c-.1-.02-.22-.04-.37-.05-.14-.02-.28-.02-.41-.02-.4,0-.73.07-1.01.2-.27.13-.5.31-.66.54-.17.23-.29.49-.36.8-.07.3-.11.63-.11.99v3.54h-2.17v-7.85h2.06Z"/>
    <path class="cls-8" d="M460.46,406.01c.32.31.79.47,1.4.47.44,0,.81-.11,1.13-.33.31-.22.51-.45.58-.69h1.91c-.31.94-.77,1.61-1.41,2.02-.63.41-1.4.61-2.29.61-.62,0-1.18-.1-1.68-.3-.5-.2-.92-.48-1.27-.84-.35-.36-.61-.8-.8-1.3-.19-.51-.28-1.06-.28-1.67s.1-1.13.29-1.64c.2-.51.47-.94.83-1.31s.78-.66,1.28-.87c.5-.21,1.04-.32,1.64-.32.67,0,1.26.13,1.76.39.5.26.91.61,1.23,1.04.32.43.55.93.69,1.49.14.56.2,1.14.15,1.75h-5.7c.03.7.21,1.21.54,1.52M462.91,401.88c-.26-.28-.66-.43-1.18-.43-.35,0-.64.06-.86.17-.23.12-.42.26-.55.43-.14.17-.24.36-.29.55-.06.19-.09.36-.1.52h3.53c-.1-.55-.28-.96-.54-1.25"/>
    <path class="cls-8" d="M467.13,402.46c.03-.51.16-.93.38-1.26.23-.33.51-.6.86-.8.35-.2.74-.35,1.17-.43.43-.09.87-.13,1.31-.13.4,0,.8.03,1.21.08.41.06.78.17,1.12.33.34.16.61.39.82.68.22.29.32.67.32,1.15v4.09c0,.36.02.69.06,1.02.04.33.11.57.22.73h-2.2c-.04-.12-.07-.25-.1-.37-.03-.13-.04-.26-.05-.39-.35.36-.75.6-1.22.75-.47.14-.95.21-1.44.21-.38,0-.73-.05-1.05-.14-.32-.09-.61-.24-.86-.43-.24-.19-.44-.43-.57-.73-.14-.29-.21-.64-.21-1.05,0-.45.08-.81.24-1.1.16-.29.36-.52.61-.69.25-.17.53-.3.85-.39.32-.09.65-.15.97-.2.33-.05.64-.09.97-.12.31-.03.59-.08.84-.14.24-.06.44-.15.58-.27.14-.11.21-.28.2-.51,0-.23-.04-.42-.12-.55-.08-.14-.18-.24-.31-.32-.12-.08-.27-.13-.44-.15-.17-.02-.35-.04-.54-.04-.43,0-.77.09-1.01.27-.25.18-.39.49-.43.91h-2.17ZM472.15,404.05c-.09.08-.21.14-.34.19-.14.05-.29.09-.45.12-.16.03-.32.06-.5.08-.17.02-.35.05-.52.07-.16.03-.32.07-.48.12-.16.05-.29.12-.41.2-.12.09-.21.19-.28.33-.07.13-.11.3-.11.5s.03.36.11.49c.07.13.17.23.29.31.12.07.26.13.43.16.16.03.33.05.5.05.43,0,.76-.07.99-.21.23-.14.41-.31.52-.51.11-.2.18-.4.21-.6.03-.2.04-.36.04-.48v-.81h0Z"/>
    <path class="cls-8" d="M444.72,418.53v1.07h.03c.29-.4.63-.72,1.03-.94.4-.22.86-.33,1.38-.33s.96.1,1.37.29c.41.19.73.53.94,1.02.23-.34.55-.65.96-.91.4-.26.88-.4,1.42-.4.42,0,.81.05,1.17.15.36.1.66.26.92.49.26.22.45.51.6.87.14.36.21.79.21,1.3v5.26h-2.17v-4.45c0-.26,0-.51-.03-.74-.02-.23-.08-.44-.17-.61-.09-.17-.23-.31-.4-.41-.18-.1-.42-.15-.73-.15s-.55.06-.74.18c-.19.12-.34.27-.44.45-.11.19-.18.4-.21.64-.04.24-.05.48-.05.72v4.38h-2.17v-4.41c0-.23,0-.47-.02-.69-.01-.23-.05-.44-.13-.63-.08-.19-.2-.34-.38-.46-.18-.12-.44-.18-.79-.18-.1,0-.24.02-.41.07-.17.04-.33.13-.49.26-.16.13-.29.31-.41.55-.11.24-.17.55-.17.93v4.56h-2.17v-7.86h2.05Z"/>
    <path class="cls-8" d="M459.12,424.5c.33.31.79.47,1.4.47.44,0,.81-.11,1.13-.33.32-.22.51-.45.58-.69h1.91c-.31.94-.77,1.61-1.41,2.02-.63.4-1.39.61-2.29.61-.62,0-1.18-.1-1.68-.3-.5-.2-.92-.48-1.27-.84-.35-.37-.61-.8-.8-1.31-.19-.51-.28-1.06-.28-1.67s.1-1.13.29-1.64c.19-.51.47-.94.82-1.31.36-.37.78-.66,1.27-.88.5-.21,1.04-.32,1.64-.32.68,0,1.26.13,1.76.39.5.26.91.6,1.23,1.04.32.43.56.93.7,1.49.14.55.19,1.14.15,1.74h-5.7c.03.7.21,1.21.53,1.52M461.57,420.36c-.26-.28-.65-.42-1.18-.42-.35,0-.64.06-.86.17-.23.12-.41.26-.55.43-.14.17-.24.35-.29.55-.06.19-.09.37-.1.52h3.53c-.1-.54-.28-.96-.54-1.24"/>
    <path class="cls-8" d="M470.19,418.53v1.44h-1.59v3.89c0,.36.06.61.18.73.12.12.37.18.73.18.12,0,.24,0,.35-.02.11-.01.22-.03.32-.05v1.67c-.18.03-.39.05-.61.06-.22.01-.44.01-.66.01-.34,0-.65-.02-.96-.07-.3-.05-.57-.13-.79-.26-.23-.13-.41-.32-.54-.56-.13-.24-.2-.56-.2-.95v-4.63h-1.32v-1.44h1.32v-2.35h2.17v2.35h1.59Z"/>
    <path class="cls-8" d="M473.75,418.53v1.46h.03c.1-.24.24-.47.41-.68.18-.21.37-.39.6-.53.22-.15.46-.26.71-.34.25-.08.52-.12.79-.12.14,0,.3.02.47.07v2.01c-.1-.02-.23-.04-.37-.05-.14-.02-.28-.02-.41-.02-.4,0-.74.07-1.01.2-.27.13-.49.31-.66.54-.17.23-.29.49-.36.8-.07.3-.1.63-.1.99v3.54h-2.17v-7.86h2.06Z"/>
    <path class="cls-8" d="M478.06,420.75c.19-.51.47-.95.82-1.31.36-.36.79-.64,1.28-.83.5-.2,1.06-.3,1.69-.3s1.18.1,1.69.3c.51.19.93.48,1.29.83.36.36.63.8.83,1.31.19.51.29,1.08.29,1.71s-.1,1.19-.29,1.7c-.2.51-.47.94-.83,1.3-.36.36-.79.64-1.29.83-.5.19-1.07.29-1.69.29s-1.19-.09-1.69-.29c-.5-.19-.92-.47-1.28-.83-.36-.36-.63-.79-.82-1.3-.19-.51-.29-1.07-.29-1.7s.1-1.2.29-1.71M480.03,423.38c.06.3.17.57.31.81.15.24.35.43.59.57.25.14.55.21.92.21s.68-.07.92-.21c.25-.14.45-.33.59-.57.15-.24.26-.51.31-.81.06-.3.09-.61.09-.92s-.03-.62-.09-.93c-.06-.3-.17-.57-.31-.8-.14-.23-.34-.42-.59-.57-.25-.15-.56-.22-.92-.22s-.67.07-.92.22c-.24.15-.44.34-.59.57-.14.23-.25.5-.31.8-.06.3-.09.61-.09.93,0,.31.03.62.09.92"/>
    <path class="cls-8" d="M489.73,418.53v1h.03c.26-.43.6-.74,1.01-.93.41-.19.86-.29,1.35-.29.62,0,1.16.12,1.6.35.45.23.82.54,1.12.93.3.38.51.83.66,1.35.14.51.22,1.04.22,1.6,0,.53-.07,1.03-.22,1.52-.14.49-.36.92-.65,1.29-.29.37-.65.68-1.09.9-.43.22-.94.33-1.52.33-.49,0-.94-.1-1.35-.3-.41-.2-.75-.49-1.02-.87h-.03v3.72h-2.17v-10.6h2.06ZM492.55,424.75c.24-.14.43-.33.58-.55.15-.23.25-.49.31-.8.06-.3.09-.61.09-.93s-.03-.62-.1-.92c-.07-.31-.18-.57-.33-.81-.15-.24-.35-.43-.59-.58-.24-.15-.53-.22-.88-.22s-.65.07-.89.22c-.24.15-.43.34-.58.57-.14.23-.25.5-.31.8-.06.3-.09.62-.09.94s.03.62.1.93c.07.3.17.57.32.8.14.23.34.41.59.55.24.14.54.21.89.21.36,0,.66-.07.89-.21"/>
    <path class="cls-8" d="M497.39,420.75c.19-.51.47-.95.82-1.31.36-.36.79-.64,1.29-.83.5-.2,1.06-.3,1.68-.3s1.18.1,1.69.3c.51.19.94.48,1.3.83.36.36.63.8.82,1.31.19.51.29,1.08.29,1.71s-.1,1.19-.29,1.7c-.19.51-.47.94-.82,1.3-.36.36-.79.64-1.3.83-.5.19-1.06.29-1.69.29s-1.18-.09-1.68-.29c-.5-.19-.93-.47-1.29-.83-.36-.36-.63-.79-.82-1.3-.19-.51-.29-1.07-.29-1.7s.1-1.2.29-1.71M499.36,423.38c.06.3.17.57.31.81.15.24.34.43.59.57.24.14.55.21.92.21s.68-.07.92-.21c.25-.14.45-.33.59-.57.15-.24.25-.51.31-.81.06-.3.09-.61.09-.92s-.03-.62-.09-.93c-.06-.3-.17-.57-.31-.8-.14-.23-.34-.42-.59-.57s-.56-.22-.92-.22-.67.07-.92.22c-.25.15-.44.34-.59.57-.15.23-.25.5-.31.8-.06.3-.09.61-.09.93s.03.62.09.92"/>
    <rect class="cls-8" x="507.04" y="415.53" width="2.17" height="10.85"/>
    <path class="cls-8" d="M511.32,415.54h2.17v1.78h-2.17v-1.78ZM513.49,426.38h-2.17v-7.85h2.17v7.85Z"/>
    <path class="cls-8" d="M519.89,418.53v1.44h-1.59v3.89c0,.36.06.61.18.73.12.12.37.18.73.18.12,0,.24,0,.35-.02.11-.01.22-.03.32-.05v1.67c-.18.03-.39.05-.61.06-.22.01-.44.01-.66.01-.34,0-.66-.02-.96-.07-.3-.05-.57-.13-.79-.26-.23-.13-.41-.32-.54-.56-.13-.24-.2-.56-.2-.95v-4.63h-1.32v-1.44h1.32v-2.35h2.17v2.35h1.59Z"/>
    <path class="cls-8" d="M521.33,420.94c.03-.51.16-.93.39-1.26.22-.33.51-.61.85-.81.35-.2.74-.35,1.17-.43.43-.08.87-.13,1.31-.13.39,0,.8.03,1.21.08.4.05.78.16,1.11.33.34.16.61.39.82.68.22.29.32.67.32,1.15v4.09c0,.36.02.69.06,1.02.04.33.11.57.21.73h-2.2c-.04-.12-.07-.25-.1-.38-.02-.13-.05-.25-.05-.38-.35.36-.75.6-1.22.74-.47.14-.94.21-1.43.21-.38,0-.73-.05-1.05-.14s-.61-.23-.86-.42c-.24-.19-.43-.43-.57-.73-.14-.3-.21-.65-.21-1.05,0-.45.08-.81.24-1.1.16-.29.36-.52.61-.69.25-.17.53-.3.86-.39.32-.09.64-.15.97-.2.33-.05.65-.09.96-.12.32-.03.6-.08.84-.14.24-.06.44-.15.58-.26.14-.12.21-.29.2-.51,0-.23-.04-.42-.12-.55-.08-.14-.18-.24-.31-.32-.13-.08-.28-.13-.44-.15-.17-.03-.35-.04-.54-.04-.43,0-.76.09-1.01.27-.24.18-.39.49-.43.91h-2.17ZM526.34,422.54c-.09.08-.21.14-.34.19-.14.05-.29.08-.44.11-.16.03-.32.06-.5.08-.17.02-.35.04-.52.07-.16.03-.32.07-.48.12-.16.05-.3.12-.41.2-.12.09-.21.2-.29.33-.07.13-.1.3-.1.5,0,.19.03.35.1.48.07.13.17.24.29.31.12.07.27.13.43.16.16.03.33.04.5.04.43,0,.76-.07.99-.21.23-.14.41-.31.52-.51.11-.2.18-.4.21-.6.03-.2.04-.37.04-.49v-.8h0Z"/>
    <path class="cls-8" d="M532.63,418.53v1.09h.05c.27-.46.63-.78,1.07-.99.44-.21.89-.31,1.35-.31.58,0,1.06.08,1.43.23.37.16.66.37.88.65.22.28.36.62.45,1.02.09.4.13.84.13,1.33v4.83h-2.17v-4.44c0-.65-.1-1.13-.31-1.45-.2-.32-.57-.48-1.09-.48-.59,0-1.02.18-1.28.52-.27.35-.4.92-.4,1.72v4.12h-2.17v-7.86h2.06Z"/>
    <path class="cls-8" d="M539.91,420.94c.03-.51.16-.93.38-1.26.22-.33.51-.61.85-.81.35-.2.74-.35,1.17-.43.43-.08.87-.13,1.31-.13.4,0,.8.03,1.21.08.41.05.78.16,1.11.33.34.16.61.39.83.68.22.29.32.67.32,1.15v4.09c0,.36.02.69.06,1.02.04.33.11.57.21.73h-2.2c-.04-.12-.07-.25-.1-.38-.02-.13-.04-.25-.05-.38-.35.36-.76.6-1.22.74-.47.14-.95.21-1.44.21-.37,0-.73-.05-1.05-.14-.33-.09-.61-.23-.86-.42-.24-.19-.44-.43-.58-.73-.14-.3-.21-.65-.21-1.05,0-.45.08-.81.24-1.1.16-.29.36-.52.61-.69.25-.17.54-.3.86-.39.32-.09.65-.15.97-.2.33-.05.64-.09.96-.12.32-.03.59-.08.84-.14.24-.06.44-.15.58-.26.14-.12.21-.29.2-.51,0-.23-.04-.42-.11-.55-.07-.14-.18-.24-.3-.32-.13-.08-.28-.13-.44-.15-.17-.03-.35-.04-.54-.04-.43,0-.76.09-1.01.27-.25.18-.39.49-.43.91h-2.17ZM544.92,422.54c-.09.08-.2.14-.34.19s-.28.08-.44.11c-.16.03-.32.06-.5.08-.17.02-.34.04-.51.07-.16.03-.33.07-.48.12-.16.05-.3.12-.41.2-.12.09-.21.2-.28.33-.07.13-.11.3-.11.5,0,.19.04.35.11.48.07.13.17.24.29.31.12.07.26.13.43.16.16.03.33.04.51.04.43,0,.76-.07.99-.21.23-.14.41-.31.52-.51.11-.2.18-.4.2-.6.03-.2.04-.37.04-.49v-.8h0Z"/>
    <path class="cls-8" d="M448.22,443.86c-.26.42-.59.73-1,.92-.41.19-.88.28-1.4.28-.59,0-1.11-.11-1.56-.34-.45-.23-.81-.54-1.11-.92-.29-.39-.51-.84-.66-1.35-.15-.51-.22-1.03-.22-1.58s.07-1.03.22-1.53c.15-.49.37-.92.66-1.3.29-.37.66-.68,1.09-.9.44-.23.95-.34,1.53-.34.47,0,.92.1,1.34.3.42.19.75.49,1,.87h.03v-3.95h2.17v10.84h-2.06v-1h-.03ZM448.13,439.98c-.06-.3-.16-.56-.31-.79-.14-.23-.34-.41-.57-.55-.23-.14-.53-.21-.88-.21s-.66.07-.9.21c-.24.14-.44.33-.59.56-.14.23-.26.5-.32.8-.07.3-.1.61-.1.93,0,.3.03.61.11.91.07.3.19.57.34.81.16.24.36.43.59.58.24.15.53.22.87.22.36,0,.65-.07.89-.21.24-.14.43-.33.57-.57.14-.24.25-.51.31-.81.06-.3.09-.62.09-.94s-.03-.64-.09-.94"/>
    <path class="cls-8" d="M454.67,442.98c.33.31.8.47,1.41.47.43,0,.81-.11,1.13-.33.32-.22.51-.45.58-.69h1.91c-.31.94-.77,1.62-1.4,2.02-.63.41-1.4.61-2.29.61-.62,0-1.18-.1-1.68-.3-.5-.2-.92-.48-1.27-.84-.35-.36-.62-.8-.81-1.3-.19-.51-.28-1.06-.28-1.67s.1-1.14.29-1.64c.19-.51.47-.94.82-1.31.35-.37.78-.66,1.28-.88.49-.21,1.04-.32,1.64-.32.67,0,1.26.13,1.76.39.5.26.91.6,1.23,1.04.32.43.55.93.7,1.49.14.56.2,1.14.15,1.75h-5.7c.03.7.21,1.2.53,1.52M457.12,438.85c-.26-.29-.66-.43-1.19-.43-.35,0-.63.06-.86.18-.23.12-.41.26-.55.43-.14.17-.24.36-.29.55-.05.19-.09.36-.1.52h3.53c-.1-.55-.28-.96-.54-1.25"/>
    <rect class="cls-8" x="465.71" y="434.02" width="2.17" height="10.84"/>
    <path class="cls-8" d="M469.99,434.02h2.17v1.78h-2.17v-1.78ZM472.16,444.86h-2.17v-7.85h2.17v7.85Z"/>
    <path class="cls-8" d="M476.07,442.91c.09.17.22.31.37.41.15.11.33.18.53.24.2.05.4.08.62.08.15,0,.31-.02.48-.06.17-.03.32-.09.46-.16.14-.08.25-.18.35-.3.09-.13.14-.29.14-.48,0-.32-.22-.57-.65-.73-.43-.16-1.04-.32-1.81-.49-.31-.07-.62-.16-.92-.25-.3-.1-.57-.22-.8-.38-.24-.16-.42-.36-.57-.59-.14-.24-.21-.53-.21-.87,0-.51.1-.92.3-1.24.19-.33.46-.58.79-.77s.69-.32,1.1-.4c.41-.08.83-.11,1.26-.11s.84.04,1.24.12c.4.08.76.22,1.08.41.32.19.58.45.79.76.21.32.33.72.37,1.21h-2.06c-.03-.41-.19-.7-.47-.84-.28-.15-.62-.22-1.01-.22-.12,0-.26,0-.4.03-.14.01-.27.05-.39.1-.12.05-.22.13-.3.22-.08.09-.12.22-.12.39,0,.19.07.35.22.47.14.12.32.22.55.3.23.07.49.14.79.2.29.06.6.13.9.2.31.07.62.16.92.26.3.1.57.23.81.4.23.17.42.38.56.62.14.25.22.56.22.92,0,.52-.11.95-.31,1.3-.21.35-.48.63-.81.84-.34.21-.72.36-1.15.45-.43.08-.87.13-1.32.13s-.91-.05-1.34-.14c-.44-.09-.83-.24-1.17-.46-.34-.21-.62-.49-.84-.84-.22-.35-.34-.79-.36-1.31h2.06c0,.23.05.43.14.59"/>
    <path class="cls-8" d="M485.01,434.02v3.95h.03c.27-.4.62-.7,1.08-.89.45-.19.92-.28,1.42-.28.4,0,.79.08,1.18.24.39.16.73.41,1.05.74.31.33.56.76.76,1.28.19.52.29,1.14.29,1.86s-.1,1.34-.29,1.86c-.19.52-.44.95-.76,1.28-.31.33-.66.58-1.05.74-.39.16-.78.24-1.18.24-.58,0-1.1-.09-1.56-.27-.46-.18-.81-.49-1.04-.93h-.03v1h-2.06v-10.84h2.17ZM488.52,439.99c-.07-.3-.19-.57-.34-.8-.15-.23-.34-.42-.57-.55-.23-.14-.51-.21-.83-.21s-.59.07-.82.21c-.23.14-.43.32-.58.55-.16.23-.27.5-.34.8-.07.3-.11.62-.11.96s.04.64.11.94c.07.3.18.57.34.81.15.23.34.42.58.55.24.14.51.2.82.2s.6-.07.83-.2c.23-.14.42-.32.57-.55.15-.24.26-.5.34-.81.07-.3.11-.62.11-.94,0-.34-.03-.65-.11-.96"/>
    <path class="cls-8" d="M492.51,439.24c.19-.51.47-.95.83-1.3.35-.36.78-.64,1.28-.84.5-.2,1.06-.3,1.68-.3s1.18.1,1.69.3c.5.19.93.48,1.29.84.36.36.63.79.83,1.3.2.51.29,1.08.29,1.71s-.09,1.19-.29,1.7c-.2.51-.47.94-.83,1.3-.36.36-.79.64-1.29.83-.51.19-1.07.29-1.69.29s-1.18-.1-1.68-.29c-.5-.19-.93-.47-1.28-.83-.36-.36-.64-.79-.83-1.3-.19-.51-.29-1.07-.29-1.7s.1-1.2.29-1.71M494.48,441.86c.06.3.17.57.31.81.14.24.34.43.59.57.24.14.55.21.92.21s.67-.07.93-.21c.25-.14.45-.33.59-.57.15-.24.25-.51.31-.81.06-.3.09-.61.09-.92s-.03-.62-.09-.93c-.06-.3-.16-.57-.31-.8-.14-.24-.35-.42-.59-.57-.25-.15-.56-.22-.93-.22s-.67.07-.92.22c-.25.15-.44.34-.59.57-.15.23-.25.5-.31.8-.06.31-.09.62-.09.93s.03.62.09.92"/>
    <path class="cls-8" d="M501.97,439.43c.03-.51.16-.92.38-1.26.23-.34.51-.6.86-.8.34-.2.73-.35,1.17-.43.43-.09.87-.13,1.31-.13.39,0,.8.03,1.2.09.41.05.78.16,1.11.32.34.16.61.39.83.68.22.29.32.67.32,1.15v4.08c0,.36.02.69.06,1.02.04.33.11.57.21.73h-2.2c-.04-.12-.07-.25-.1-.37-.03-.13-.04-.26-.05-.39-.35.36-.75.6-1.22.74-.47.14-.95.21-1.44.21-.37,0-.73-.04-1.05-.14-.33-.09-.61-.23-.86-.42-.24-.19-.43-.44-.57-.73-.14-.3-.21-.64-.21-1.05,0-.44.08-.81.24-1.1.16-.29.36-.52.61-.69.25-.17.54-.3.86-.39.32-.09.64-.15.97-.2.33-.05.64-.09.96-.13.32-.03.6-.07.84-.14.24-.06.44-.15.58-.26.14-.12.21-.29.2-.51,0-.23-.04-.42-.12-.55-.08-.14-.18-.24-.31-.32-.13-.08-.28-.13-.44-.15-.17-.03-.35-.04-.54-.04-.43,0-.76.09-1.01.27-.25.18-.39.49-.43.91h-2.17ZM506.98,441.02c-.09.08-.21.14-.34.19s-.29.08-.44.12c-.16.03-.33.05-.5.08-.18.02-.35.04-.52.08-.16.03-.33.07-.48.12-.16.05-.3.12-.41.2-.12.09-.21.2-.28.33-.07.13-.11.3-.11.5,0,.19.03.35.11.48.07.13.17.24.29.31.12.08.26.13.42.16.16.03.33.05.51.05.43,0,.76-.07.99-.21.24-.14.41-.31.52-.51.11-.2.18-.4.21-.6.03-.2.04-.36.04-.49v-.81h0Z"/>
    <rect class="cls-8" x="368.27" y="367.45" width="3.46" height="3.44"/>
    <rect class="cls-8" x="405.48" y="367.45" width="3.45" height="3.44"/>
    <rect class="cls-8" x="405.48" y="441.44" width="3.45" height="3.44"/>
    <rect class="cls-8" x="405.48" y="404.45" width="3.45" height="3.44"/>
    <rect class="cls-8" x="368.27" y="404.45" width="3.46" height="3.44"/>
    <rect class="cls-8" x="331.05" y="404.45" width="3.46" height="3.44"/>
    <rect class="cls-8" x="331.05" y="441.44" width="3.46" height="3.44"/>
    <rect class="cls-8" x="368.27" y="441.44" width="3.46" height="3.44"/>
    <rect class="cls-8" x="331.05" y="367.45" width="3.46" height="3.44"/>
    <path class="cls-8" d="M316.17,362.24c.05-.8.25-1.47.61-2,.36-.53.81-.96,1.36-1.28.55-.32,1.17-.55,1.86-.69.69-.14,1.39-.21,2.08-.21.63,0,1.27.05,1.92.13.65.09,1.24.26,1.77.52.54.26.97.61,1.32,1.07.34.46.51,1.07.51,1.83v6.5c0,.56.03,1.11.1,1.62.06.51.18.9.34,1.16h-3.5c-.06-.19-.12-.39-.16-.59-.04-.2-.07-.41-.08-.62-.55.56-1.2.96-1.95,1.19-.75.22-1.51.34-2.28.34-.6,0-1.16-.07-1.68-.22-.52-.15-.97-.37-1.36-.68-.39-.31-.69-.69-.91-1.16-.22-.47-.33-1.02-.33-1.67,0-.71.13-1.29.38-1.75.25-.46.57-.82.97-1.1.4-.28.85-.48,1.36-.62.51-.14,1.03-.25,1.55-.33.52-.08,1.03-.14,1.53-.19.5-.05.95-.12,1.34-.22.39-.1.7-.24.92-.42.23-.19.33-.46.32-.81,0-.37-.06-.67-.18-.88-.12-.22-.28-.39-.49-.51-.2-.12-.44-.2-.7-.24-.27-.04-.56-.06-.86-.06-.68,0-1.22.15-1.61.43-.39.29-.62.77-.68,1.45h-3.45ZM324.14,364.78c-.15.13-.33.23-.55.3-.22.07-.45.13-.71.18-.25.05-.51.09-.79.12-.28.03-.55.07-.83.12-.26.05-.51.11-.76.19-.25.08-.47.19-.66.33-.19.14-.34.31-.45.52-.11.21-.17.47-.17.8s.06.57.17.77c.11.21.27.38.46.5.2.12.42.21.68.25.26.05.53.07.8.07.68,0,1.21-.11,1.58-.34.37-.23.65-.5.83-.81.18-.31.29-.63.33-.95.04-.32.06-.58.06-.77v-1.28h0Z"/>
    <path class="cls-8" d="M386.09,395.4v1.69h.05c.45-.64,1-1.14,1.64-1.5.64-.36,1.37-.53,2.2-.53s1.52.15,2.18.46c.66.3,1.15.85,1.5,1.62.37-.55.88-1.03,1.52-1.45.64-.42,1.4-.63,2.27-.63.66,0,1.28.08,1.85.24.57.16,1.05.42,1.46.77.41.36.72.82.95,1.39.23.57.34,1.26.34,2.07v8.36h-3.45v-7.08c0-.42-.02-.81-.05-1.18-.03-.37-.12-.69-.27-.97-.14-.28-.36-.49-.64-.65-.28-.16-.67-.24-1.16-.24s-.88.09-1.18.28c-.3.19-.54.43-.71.73-.17.3-.28.64-.34,1.01s-.08.76-.08,1.15v6.96h-3.45v-7.01c0-.37,0-.74-.03-1.1-.02-.36-.09-.7-.21-1-.12-.3-.32-.55-.61-.74-.28-.18-.7-.28-1.25-.28-.16,0-.38.03-.64.11-.27.07-.53.21-.78.41-.25.2-.47.49-.64.87-.18.38-.27.87-.27,1.49v7.25h-3.45v-12.5h3.26Z"/>
    <rect class="cls-8" x="361.35" y="427.62" width="3.45" height="17.26"/>
  </g>
  <g>
    <polygon class="cls-3" points="853.63 257.12 853.63 189.22 874.11 168.73 894.59 168.73 894.59 257.12 853.63 257.12"/>
    <polygon class="cls-8" points="915.08 257.12 915.08 189.22 894.59 168.73 874.11 189.22 874.11 257.12 915.08 257.12"/>
  </g>
  <g>
    <polygon class="cls-3" points="894.59 279.73 894.59 211.83 915.08 191.35 935.56 191.35 935.56 279.73 894.59 279.73"/>
    <polygon class="cls-8" points="956.04 279.73 956.04 211.83 935.56 191.35 915.08 211.83 915.08 279.73 956.04 279.73"/>
  </g>
  <g>
    <polygon class="cls-3" points="1185.76 316.58 1185.76 223.65 1206.24 203.17 1226.72 203.17 1226.72 316.58 1185.76 316.58"/>
    <polygon class="cls-8" points="1247.21 316.58 1247.21 223.65 1226.72 203.17 1206.24 223.65 1206.24 316.58 1247.21 316.58"/>
  </g>
  <path class="cls-4" d="M445.31,637.13c5.24,4.89,10.72,9.57,16.03,14.24,37.27,32.81,70.18,70.83,110.94,99.18,63.93,44.47,143.07,62.12,220.81,66.62,84.31,4.88,171.5-5.28,246.19-44.69,71.55-37.75,127.24-99.82,174.66-165.35,27.15-37.52,52.5-77.4,64.83-122.04,4.86-17.58,7.6-36.35,2.98-53.99-11.08-42.24-59.17-63.01-102.52-68.3-52-6.35-109.4,2.85-146.39,39.95-31.97,32.07-46.22,82.04-86.12,103.45-34.19,18.35-75.9,9.54-113.83,1.3-54.18-11.76-110.36-21.41-164.79-10.85-39.16,7.6-75.63,25.36-114.29,35.2-37.48,9.54-159.68-2.65-134.87,68.99,4.97,14.35,15.11,25.79,26.36,36.28Z"/>
  <g>
    <path class="cls-2" d="M1151.91,458.51c0-.28.02-.55.09-.83.05-.26.12-.53.24-.79.1-.24.22-.5.38-.72.16-.22.33-.45.53-.64.79-.79,1.88-1.21,2.99-1.22v-.03h-64.54c.26,0,.53.03.79.09.28.05.53.14.79.24.26.1.5.22.72.38.24.16.45.33.66.53.19.19.36.41.52.64.16.22.29.48.4.72.1.26.19.53.24.79.05.28.09.55.09.83,0,1.12-.47,2.21-1.24,3-.77.75-1.82,1.21-2.9,1.23h64.48c-1.12,0-2.21-.46-2.99-1.23s-1.24-1.88-1.24-3Z"/>
    <path class="cls-2" d="M1191.41,423.26c.19.19.36.41.52.64.16.22.29.47.4.72s.19.52.24.79c.05.28.09.55.09.83s-.04.55-.09.83c-.05.28-.14.53-.24.79s-.24.5-.4.72c-.16.24-.33.45-.52.66-.79.77-1.88,1.22-2.99,1.22h0s32.29,0,32.29,0h0c-.28,0-.55-.02-.83-.07-.28-.07-.53-.14-.79-.26-.26-.1-.5-.22-.72-.38-.24-.16-.45-.33-.64-.53-.79-.78-1.24-1.86-1.24-2.98,0-.28.02-.55.09-.83.05-.26.12-.53.22-.79.12-.26.24-.5.4-.72.16-.22.33-.45.53-.64.19-.21.4-.38.64-.53.22-.16.47-.28.72-.38.26-.1.52-.19.79-.24.27-.06.54-.09.81-.09h-32.27v.05c1.1,0,2.21.4,2.99,1.19Z"/>
    <path class="cls-6" d="M1160.03,456.89c-.1-.24-.22-.5-.38-.72-.16-.22-.33-.45-.53-.64-.19-.21-.4-.38-.64-.53-.22-.16-.47-.28-.72-.38s-.52-.19-.79-.24c-.27-.06-.55-.06-.83-.06-1.1,0-2.2.43-2.99,1.22-.21.19-.38.41-.53.64-.16.22-.28.48-.38.72-.12.26-.19.53-.24.79-.07.28-.09.55-.09.83,0,1.12.45,2.21,1.24,3s1.86,1.22,2.99,1.22c.27,0,.55-.02.83-.07.28-.07.53-.14.79-.24.26-.1.5-.24.72-.4.24-.16.45-.33.64-.52.21-.21.38-.41.53-.66.16-.22.28-.47.38-.72.1-.26.19-.52.24-.79.07-.28.09-.55.09-.83s-.02-.55-.09-.83c-.05-.26-.14-.53-.24-.79Z"/>
    <path class="cls-6" d="M1095.8,458.51c0-.28-.03-.55-.09-.83-.05-.26-.14-.53-.24-.79-.1-.24-.24-.5-.4-.72-.16-.22-.33-.45-.52-.64-.21-.21-.41-.38-.66-.53-.22-.16-.47-.28-.72-.38-.26-.1-.52-.19-.79-.24-.26-.06-.53-.08-.79-.09-.29,0-.58.02-.87.09-.26.05-.54.14-.79.24-.24.1-.5.22-.72.38-.23.16-.45.33-.64.53-.79.79-1.24,1.88-1.24,2.98s.45,2.21,1.24,3c.19.19.41.36.64.52.22.16.48.29.72.4.26.1.53.19.79.24.28.05.55.09.83.09.03,0,.07,0,.1-.01,1.09-.03,2.13-.48,2.9-1.23.78-.79,1.24-1.88,1.24-3Z"/>
    <path class="cls-6" d="M1219.09,422.35c-.26.1-.5.22-.72.38-.24.16-.45.33-.64.53-.21.19-.38.41-.53.64-.16.22-.28.47-.4.72-.1.26-.17.53-.22.79-.07.28-.09.55-.09.83,0,1.12.45,2.21,1.24,2.98.19.21.4.38.64.53.22.16.47.28.72.38.26.12.52.19.79.26.28.05.55.07.83.07h0c.28,0,.55-.02.83-.07.28-.07.54-.14.79-.26.26-.1.5-.22.72-.38.23-.16.45-.33.64-.53.79-.78,1.24-1.86,1.24-2.98,0-.28-.02-.55-.09-.83-.05-.26-.14-.53-.24-.79-.1-.26-.22-.5-.38-.72-.16-.22-.33-.45-.54-.64-.19-.21-.41-.38-.64-.53-.22-.16-.47-.28-.72-.38-.26-.1-.52-.19-.79-.24-.28-.06-.57-.09-.85-.09-.27,0-.54.03-.81.09-.28.05-.53.14-.79.24Z"/>
    <path class="cls-6" d="M1184.51,427.87c.1.26.24.5.38.72.16.24.34.45.53.66.79.78,1.88,1.22,2.99,1.22,0,0,0,0,0,0,1.12,0,2.2-.45,2.99-1.22.19-.21.36-.41.52-.66.16-.22.29-.47.4-.72s.19-.52.24-.79c.05-.28.09-.55.09-.83s-.04-.55-.09-.83c-.05-.28-.14-.53-.24-.79s-.24-.5-.4-.72c-.16-.22-.33-.45-.52-.64-.79-.79-1.89-1.19-2.99-1.19-1.1,0-2.21.4-2.99,1.19-.79.78-1.24,1.88-1.24,2.98,0,.28.03.55.09.83s.14.53.24.79Z"/>
    <g>
      <g>
        <path class="cls-6" d="M1061.29,423.67v6.73c0,.17.11.27.28.27h1.87c.17,0,.28-.11.28-.27v-6.73h1.28c.17,0,.27-.11.27-.28v-1.43c0-.17-.11-.27-.27-.27h-1.28v-2.48c0-.17-.11-.27-.28-.27h-1.87c-.17,0-.28.11-.28.27v2.48h-1.28c-.17,0-.27.11-.27.27v1.43c0,.17.11.28.27.28h1.28Z"/>
        <path class="cls-6" d="M1068.83,430.68h1.87c.17,0,.27-.11.27-.27v-4.77c0-1.1.73-1.94,1.87-1.94.35,0,.57.07.75.13s.33.02.4-.18l.55-1.36c.05-.13.05-.26-.09-.37-.26-.22-.7-.42-1.21-.42-1.08,0-1.82.6-2.29,1.47l-.07-.99c-.02-.17-.11-.27-.27-.27h-1.78c-.17,0-.28.11-.28.27v8.44c0,.17.11.27.28.27Z"/>
        <path class="cls-6" d="M1085.81,421.69h-1.69c-.17,0-.26.11-.27.27l-.06.84c-.68-.77-1.6-1.32-2.73-1.32-2.51,0-4.35,2.09-4.35,4.72s1.84,4.72,4.35,4.72c1.17,0,2.07-.53,2.71-1.29l.07.77c.02.17.11.27.27.27h1.69c.17,0,.28-.11.28-.27v-8.44c0-.17-.11-.27-.28-.27ZM1081.35,428.72c-1.34,0-2.31-1.08-2.31-2.53s.97-2.5,2.31-2.5,2.29,1.14,2.29,2.5-.97,2.53-2.29,2.53Z"/>
        <path class="cls-6" d="M1089.99,430.68h1.87c.17,0,.27-.11.27-.27v-4.92c0-.42.63-1.76,1.98-1.76.88,0,1.69.51,1.69,2v4.68c0,.17.11.27.27.27h1.87c.17,0,.27-.11.27-.27v-5.12c0-2.4-1.41-3.8-3.25-3.8-1.3,0-2.26.72-2.84,1.67v-.02l-.07-1.17c-.02-.17-.11-.27-.28-.27h-1.8c-.17,0-.27.11-.27.27v8.44c0,.17.11.27.27.27Z"/>
        <path class="cls-6" d="M1104.99,430.92c1.65,0,3.43-1.01,3.43-2.75,0-3.3-4.37-2.5-4.37-3.96,0-.46.42-.77.99-.77.64,0,1.06.24,1.76.7.17.13.29.17.4.02l.7-.92c.09-.11.13-.26.02-.38-.75-.88-1.93-1.36-3.08-1.36-1.62,0-3.12,1.01-3.12,2.73,0,3.03,4.35,2.48,4.35,3.91,0,.57-.57.75-1.16.75-.72,0-1.5-.35-2.24-.83-.17-.13-.29-.17-.4-.02l-.72,1.01c-.07.11-.11.24,0,.37.64.75,1.89,1.5,3.43,1.5Z"/>
        <path class="cls-6" d="M1116.71,421.49c-1.14,0-2.06.55-2.73,1.32l-.06-.84c-.02-.17-.11-.27-.27-.27h-1.69c-.17,0-.28.11-.28.27v11.93c0,.17.11.27.28.27h1.87c.17,0,.27-.11.27-.27v-4.11c.64.68,1.5,1.14,2.61,1.14,2.51,0,4.35-2.09,4.35-4.72s-1.83-4.72-4.35-4.72ZM1116.41,428.72c-1.32,0-2.29-1.17-2.29-2.53s.97-2.5,2.29-2.5,2.31,1.06,2.31,2.5-.97,2.53-2.31,2.53Z"/>
        <path class="cls-6" d="M1128.7,421.49c-2.59,0-4.66,2.07-4.66,4.72s2.07,4.72,4.66,4.72,4.66-2.07,4.66-4.72-2.07-4.72-4.66-4.72ZM1128.7,428.68c-1.3,0-2.33-1.03-2.33-2.48s1.03-2.48,2.33-2.48,2.33,1.03,2.33,2.48-1.05,2.48-2.33,2.48Z"/>
        <path class="cls-6" d="M1136.98,430.68h1.87c.17,0,.28-.11.28-.27v-4.77c0-1.1.73-1.94,1.87-1.94.35,0,.57.07.75.13s.33.02.4-.18l.55-1.36c.06-.13.06-.26-.09-.37-.26-.22-.7-.42-1.21-.42-1.08,0-1.82.6-2.29,1.47l-.07-.99c-.02-.17-.11-.27-.27-.27h-1.78c-.17,0-.27.11-.27.27v8.44c0,.17.11.27.27.27Z"/>
        <path class="cls-6" d="M1145.64,423.67h1.28v6.73c0,.17.11.27.27.27h1.87c.17,0,.28-.11.28-.27v-6.73h1.28c.17,0,.27-.11.27-.28v-1.43c0-.17-.11-.27-.27-.27h-1.28v-2.48c0-.17-.11-.27-.28-.27h-1.87c-.17,0-.27.11-.27.27v2.48h-1.28c-.17,0-.28.11-.28.27v1.43c0,.17.11.28.28.28Z"/>
        <path class="cls-6" d="M1162.51,426c0-2.44-1.67-4.51-4.27-4.51s-4.53,2.07-4.53,4.72,1.93,4.72,4.73,4.72c1.3,0,2.48-.51,3.34-1.38.15-.15.15-.28.02-.4l-.81-.79c-.13-.13-.24-.13-.4-.02-.63.44-1.19.62-1.91.62-1.41,0-2.33-.68-2.57-1.87h5.76c.55,0,.64-.37.64-1.08ZM1156.07,425.5c.2-1.27,1.08-1.96,2.18-1.96s1.94.7,2.11,1.96h-4.29Z"/>
        <path class="cls-6" d="M1172.23,428.17c0-3.3-4.37-2.5-4.37-3.96,0-.46.42-.77.99-.77.64,0,1.06.24,1.76.7.17.13.29.17.4.02l.7-.92c.09-.11.13-.26.02-.38-.75-.88-1.93-1.36-3.08-1.36-1.61,0-3.12,1.01-3.12,2.73,0,3.03,4.35,2.48,4.35,3.91,0,.57-.57.75-1.16.75-.72,0-1.5-.35-2.24-.83-.17-.13-.29-.17-.4-.02l-.72,1.01c-.07.11-.11.24,0,.37.64.75,1.89,1.5,3.43,1.5,1.65,0,3.43-1.01,3.43-2.75Z"/>
      </g>
      <g>
        <path class="cls-6" d="M1162.18,433.46c-.75,0-1.34.6-1.34,1.34s.59,1.34,1.34,1.34,1.32-.61,1.32-1.34-.59-1.34-1.32-1.34Z"/>
        <path class="cls-6" d="M1072.26,441.88v4.68c0,.17.11.27.27.27h1.87c.17,0,.27-.11.27-.27v-5.12c0-2.4-1.41-3.8-3.37-3.8-1.47,0-2.53.7-3.18,1.67-.57-1.08-1.58-1.67-2.77-1.67-1.3,0-2.26.72-2.84,1.67v-.02l-.07-1.17c-.02-.17-.11-.27-.27-.27h-1.8c-.17,0-.28.11-.28.27v8.44c0,.17.11.27.28.27h1.87c.17,0,.27-.11.27-.27v-4.92c0-.42.62-1.76,1.98-1.76.88,0,1.69.51,1.69,2v4.68c0,.17.11.27.27.27h1.87c.17,0,.28-.11.28-.27v-4.96c0-.64.62-1.73,1.98-1.73.86,0,1.67.51,1.67,2Z"/>
        <path class="cls-6" d="M1088.16,442.15c0-2.44-1.67-4.51-4.28-4.51s-4.53,2.07-4.53,4.72,1.93,4.72,4.73,4.72c1.3,0,2.48-.51,3.34-1.38.15-.15.15-.28.02-.4l-.81-.79c-.13-.13-.24-.13-.4-.02-.62.44-1.19.62-1.91.62-1.41,0-2.33-.68-2.57-1.87h5.76c.55,0,.64-.37.64-1.08ZM1081.72,441.66c.2-1.27,1.08-1.96,2.18-1.96s1.95.7,2.11,1.96h-4.29Z"/>
        <path class="cls-6" d="M1094.09,446.83h1.87c.17,0,.28-.11.28-.27v-6.73h1.28c.17,0,.27-.11.27-.28v-1.43c0-.17-.11-.27-.27-.27h-1.28v-2.48c0-.17-.11-.27-.28-.27h-1.87c-.17,0-.28.11-.28.27v2.48h-1.28c-.17,0-.27.11-.27.27v1.43c0,.17.11.28.27.28h1.28v6.73c0,.17.11.27.28.27Z"/>
        <path class="cls-6" d="M1107.1,437.64c-1.08,0-1.82.6-2.29,1.47l-.07-.99c-.02-.17-.11-.27-.27-.27h-1.78c-.17,0-.27.11-.27.27v8.44c0,.17.11.27.27.27h1.87c.17,0,.27-.11.27-.27v-4.77c0-1.1.73-1.94,1.87-1.94.35,0,.57.07.75.13s.33.02.4-.18l.55-1.36c.06-.13.06-.26-.09-.37-.26-.22-.7-.42-1.21-.42Z"/>
        <path class="cls-6" d="M1116.54,437.64c-2.59,0-4.66,2.07-4.66,4.72s2.07,4.72,4.66,4.72,4.66-2.07,4.66-4.72-2.07-4.72-4.66-4.72ZM1116.54,444.83c-1.3,0-2.33-1.03-2.33-2.48s1.03-2.48,2.33-2.48,2.33,1.03,2.33,2.48-1.05,2.48-2.33,2.48Z"/>
        <path class="cls-6" d="M1130.9,437.64c-1.14,0-2.06.55-2.73,1.32l-.05-.84c-.02-.17-.11-.27-.28-.27h-1.69c-.17,0-.27.11-.27.27v11.93c0,.17.11.27.27.27h1.87c.17,0,.28-.11.28-.27v-4.11c.64.68,1.5,1.14,2.6,1.14,2.51,0,4.35-2.09,4.35-4.72s-1.83-4.72-4.35-4.72ZM1130.61,444.87c-1.32,0-2.29-1.17-2.29-2.53s.97-2.5,2.29-2.5,2.31,1.06,2.31,2.5-.97,2.53-2.31,2.53Z"/>
        <path class="cls-6" d="M1144.21,437.64c-2.59,0-4.66,2.07-4.66,4.72s2.07,4.72,4.66,4.72,4.66-2.07,4.66-4.72-2.07-4.72-4.66-4.72ZM1144.21,444.83c-1.3,0-2.33-1.03-2.33-2.48s1.03-2.48,2.33-2.48,2.33,1.03,2.33,2.48-1.05,2.48-2.33,2.48Z"/>
        <path class="cls-6" d="M1153.81,433.44h1.87c.15,0,.28.12.28.28v12.84c0,.15-.12.27-.27.27h-1.87c-.15,0-.27-.12-.27-.27v-12.85c0-.15.12-.27.27-.27Z"/>
        <rect class="cls-6" x="1160.97" y="437.84" width="2.42" height="8.99" rx=".27" ry=".27"/>
        <path class="cls-6" d="M1173.26,437.84h-1.28v-2.48c0-.17-.11-.27-.28-.27h-1.87c-.17,0-.27.11-.27.27v2.48h-1.28c-.17,0-.28.11-.28.27v1.43c0,.17.11.28.28.28h1.28v6.73c0,.17.11.27.27.27h1.87c.17,0,.28-.11.28-.27v-6.73h1.28c.17,0,.27-.11.27-.28v-1.43c0-.17-.11-.27-.27-.27Z"/>
        <path class="cls-6" d="M1186.75,437.84h-1.69c-.17,0-.26.11-.28.27l-.06.84c-.68-.77-1.6-1.32-2.73-1.32-2.51,0-4.35,2.09-4.35,4.72s1.83,4.72,4.35,4.72c1.17,0,2.07-.53,2.72-1.29l.07.77c.02.17.11.27.28.27h1.69c.17,0,.28-.11.28-.27v-8.44c0-.17-.11-.27-.28-.27ZM1182.29,444.87c-1.34,0-2.31-1.08-2.31-2.53s.97-2.5,2.31-2.5,2.29,1.14,2.29,2.5-.97,2.53-2.29,2.53Z"/>
        <path class="cls-6" d="M1198.34,446.83h1.87c.17,0,.27-.11.27-.27v-5.12c0-2.4-1.41-3.8-3.25-3.8-1.3,0-2.26.72-2.84,1.67v-.02l-.07-1.17c-.02-.17-.11-.27-.27-.27h-1.8c-.17,0-.27.11-.27.27v8.44c0,.17.11.27.27.27h1.87c.17,0,.28-.11.28-.27v-4.92c0-.42.62-1.76,1.98-1.76.88,0,1.69.51,1.69,2v4.68c0,.17.11.27.27.27Z"/>
        <path class="cls-6" d="M1209.82,437.64c-2.59,0-4.66,2.07-4.66,4.72s2.07,4.72,4.66,4.72,4.66-2.07,4.66-4.72-2.07-4.72-4.66-4.72ZM1209.82,444.83c-1.3,0-2.33-1.03-2.33-2.48s1.03-2.48,2.33-2.48,2.33,1.03,2.33,2.48-1.05,2.48-2.33,2.48Z"/>
        <path class="cls-6" d="M1218.82,440.37c0,3.03,4.35,2.48,4.35,3.91,0,.57-.57.75-1.16.75-.72,0-1.5-.35-2.24-.83-.17-.13-.29-.17-.4-.02l-.72,1.01c-.07.11-.11.24,0,.37.64.75,1.89,1.5,3.43,1.5,1.65,0,3.43-1.01,3.43-2.75,0-3.3-4.37-2.5-4.37-3.96,0-.46.42-.77.99-.77.64,0,1.06.24,1.76.7.17.13.29.17.4.02l.7-.92c.09-.11.13-.26.02-.38-.75-.88-1.93-1.36-3.08-1.36-1.61,0-3.12,1.01-3.12,2.73Z"/>
      </g>
      <g>
        <g>
          <path class="cls-6" d="M1068.92,449.59h-1.87c-.17,0-.27.11-.27.27v5.1c-.66-.7-1.54-1.17-2.61-1.17-2.51,0-4.35,2.09-4.35,4.72s1.83,4.72,4.35,4.72c1.17,0,2.07-.53,2.72-1.29l.07.77c.02.17.11.27.28.27h1.69c.17,0,.27-.11.27-.27v-12.85c0-.17-.11-.27-.27-.27ZM1064.46,461.02c-1.34,0-2.31-1.08-2.31-2.53s.97-2.5,2.31-2.5,2.29,1.14,2.29,2.5-.97,2.53-2.29,2.53Z"/>
          <path class="cls-6" d="M1079.92,458.31c0-2.44-1.67-4.51-4.27-4.51s-4.53,2.07-4.53,4.72,1.93,4.72,4.73,4.72c1.3,0,2.48-.51,3.34-1.38.15-.15.15-.28.02-.4l-.81-.79c-.13-.13-.24-.13-.4-.02-.62.44-1.19.62-1.91.62-1.41,0-2.33-.68-2.57-1.87h5.76c.55,0,.64-.37.64-1.08ZM1073.48,457.81c.2-1.27,1.08-1.96,2.18-1.96s1.94.7,2.11,1.96h-4.29Z"/>
        </g>
        <path class="cls-6" d="M1177.34,449.61c-.75,0-1.34.6-1.34,1.34s.59,1.34,1.34,1.34,1.32-.61,1.32-1.34-.59-1.34-1.32-1.34Z"/>
        <path class="cls-6" d="M1170.45,449.59h1.87c.15,0,.27.12.27.27v12.85c0,.15-.12.27-.27.27h-1.87c-.15,0-.28-.12-.28-.28v-12.84c0-.15.12-.27.27-.27Z"/>
        <rect class="cls-6" x="1176.13" y="453.99" width="2.42" height="8.99" rx=".27" ry=".27"/>
        <path class="cls-6" d="M1184.26,456.51c0-.46.42-.77.99-.77.64,0,1.06.24,1.76.7.17.13.29.17.4.02l.7-.92c.09-.11.13-.26.02-.38-.75-.88-1.93-1.36-3.08-1.36-1.61,0-3.12,1.01-3.12,2.73,0,3.03,4.35,2.48,4.35,3.91,0,.57-.57.75-1.16.75-.72,0-1.5-.35-2.24-.83-.17-.13-.29-.17-.4-.02l-.72,1.01c-.07.11-.11.24,0,.37.64.75,1.89,1.5,3.43,1.5,1.65,0,3.43-1.01,3.43-2.75,0-3.3-4.37-2.5-4.37-3.96Z"/>
        <path class="cls-6" d="M1196.76,453.79c-1.06,0-1.94.48-2.6,1.17v-5.1c0-.17-.11-.27-.28-.27h-1.87c-.17,0-.27.11-.27.27v12.85c0,.17.11.27.27.27h1.69c.17,0,.26-.11.28-.27l.07-.77c.64.75,1.54,1.29,2.72,1.29,2.51,0,4.35-2.09,4.35-4.72s-1.83-4.72-4.35-4.72ZM1196.47,461.02c-1.32,0-2.29-1.17-2.29-2.53s.97-2.5,2.29-2.5,2.31,1.06,2.31,2.5-.97,2.53-2.31,2.53Z"/>
        <path class="cls-6" d="M1208.61,453.79c-2.59,0-4.66,2.07-4.66,4.72s2.07,4.72,4.66,4.72,4.66-2.07,4.66-4.72-2.07-4.72-4.66-4.72ZM1208.61,460.98c-1.3,0-2.33-1.03-2.33-2.48s1.03-2.48,2.33-2.48,2.33,1.03,2.33,2.48-1.05,2.48-2.33,2.48Z"/>
        <path class="cls-6" d="M1225.21,453.99h-1.69c-.17,0-.26.11-.28.27l-.06.84c-.68-.77-1.6-1.32-2.73-1.32-2.51,0-4.35,2.09-4.35,4.72s1.83,4.72,4.35,4.72c1.17,0,2.07-.53,2.72-1.29l.07.77c.02.17.11.27.28.27h1.69c.17,0,.28-.11.28-.27v-8.44c0-.17-.11-.27-.28-.27ZM1220.75,461.02c-1.34,0-2.31-1.08-2.31-2.53s.97-2.5,2.31-2.5,2.29,1.14,2.29,2.5-.97,2.53-2.29,2.53Z"/>
      </g>
    </g>
  </g>
  <path class="cls-3" d="M785.42,622.58c-6.63-3.27-14.06-5.15-21.33-6.82-23.16-5.33-47.8-9.44-70.34-1.88-16.01,5.37-29.91,16.34-46.36,20.12-27.42,6.31-132.71-31.3-116.94,33.48,3.97,16.32,17.17,28.6,30.24,39.15,26.12,21.08,54.41,39.47,84.27,54.79,38.67,19.84,82.64,34.74,125.18,25.84,11.41-2.39,22.91-6.75,30.8-15.33,7.92-8.6,11.29-20.4,13.33-31.91,4.71-26.59,3.58-54.21-3.3-80.33-3.06-11.61-7.58-23.46-16.67-31.31-2.71-2.34-5.7-4.23-8.89-5.79Z"/>
  <path class="cls-3" d="M901.51,775.41c-10.33-6.37-18.69-15.66-22.97-27.01-8.05-21.34-1.26-45.59-6.54-67.77-4.51-18.95-17.38-34.7-30.49-49.11-5.81-6.39-12.14-13.65-11.79-22.28,1.04-26.16,42.22-32.46,59.97-22.98,11.71,6.25,20.89,16.23,30.89,24.96,10,8.73,21.83,16.6,35.1,17.08,13.93.5,26.78-7.22,37.76-15.81,10.98-8.59,21.33-18.48,34.28-23.64,16.43-6.55,35.22-4.61,51.91,1.25,10.15,3.56,20.31,8.98,25.86,18.19,6.33,10.52,5.4,23.91,2.1,35.73-6.77,24.24-22.92,45.72-44.32,58.96-12.36,7.65-26.36,12.64-37.83,21.57-12.52,9.75-21.2,23.53-32.46,34.72-16.15,16.04-38.48,26.64-61.21,25.56-10.62-.5-21.19-3.84-30.24-9.43Z"/>
  <g>
    <path class="cls-4" d="M956.34,656.24c-16.65,0-30.14,13.5-30.14,30.14s13.5,30.14,30.14,30.14,30.14-13.5,30.14-30.14-13.5-30.14-30.14-30.14ZM956.34,710c-13.04,0-23.61-10.57-23.61-23.61s10.57-23.61,23.61-23.61,23.61,10.57,23.61,23.61-10.57,23.61-23.61,23.61Z"/>
    <path class="cls-8" d="M989.03,680.54h-2.19c-.21,0-.33.14-.36.36v.25c-.95-.59-2.06-.94-3.27-.94-3.41,0-6.17,2.76-6.17,6.17s2.76,6.17,6.17,6.17c1.2,0,2.32-.35,3.27-.94v.25c.02.21.14.36.36.36h2.19c.21,0,.36-.14.36-.36v-10.96c0-.21-.14-.36-.36-.36Z"/>
    <path class="cls-8" d="M946.61,680.57h2.43c.26,0,.38.14.28.4l-4.32,10.88c-.07.19-.24.28-.42.28h-2.41c-.19,0-.35-.09-.42-.28l-4.34-10.88c-.09-.26.02-.4.28-.4h2.43c.19,0,.35.09.42.28l2.83,7.65,2.81-7.65c.07-.19.24-.28.42-.28Z"/>
    <path class="cls-8" d="M960.34,687.51h-7.41c.31,1.53,1.49,2.41,3.3,2.41.92,0,1.65-.24,2.45-.8.21-.14.35-.14.52.02l1.04,1.01c.17.17.17.33-.02.52-1.11,1.11-2.62,1.77-4.3,1.77-3.61,0-6.09-2.67-6.09-6.07s2.48-6.07,5.83-6.07,5.5,2.67,5.5,5.81c0,.92-.12,1.39-.83,1.39ZM952.88,685.48h5.52c-.21-1.63-1.32-2.53-2.71-2.53s-2.55.9-2.81,2.53Z"/>
    <path class="cls-8" d="M974.97,680.92v11.09c0,3.68-3.42,4.79-6.07,4.79-1.98,0-3.78-.59-4.98-1.42-.17-.12-.19-.28-.09-.47l.78-1.42c.12-.19.26-.26.47-.14,1.06.59,2.15.87,3.56.87s3.45-.54,3.45-2.45v-1.27c-.85.99-2.03,1.7-3.59,1.7-3.23,0-5.59-2.69-5.59-5.95s2.36-5.95,5.59-5.95c1.46,0,2.67.68,3.52,1.65l.07-1.04c.02-.21.14-.35.35-.35h2.17c.21,0,.35.14.35.35ZM971.83,686.23c0-1.63-1.25-3.09-2.95-3.09s-2.97,1.37-2.97,3.09,1.25,3.14,2.97,3.14,2.95-1.51,2.95-3.14Z"/>
    <path class="cls-8" d="M1002.41,685.19v6.59c0,.21-.14.35-.35.35h-2.41c-.21,0-.35-.14-.35-.35v-6.02c0-1.91-1.04-2.57-2.17-2.57-1.75,0-2.55,1.72-2.55,2.27v6.33c0,.21-.14.35-.35.35h-2.41c-.21,0-.35-.14-.35-.35v-10.86c0-.21.14-.35.35-.35h2.31c.21,0,.33.14.35.35l.09,1.51v.02c.76-1.23,1.98-2.15,3.66-2.15,2.36,0,4.18,1.79,4.18,4.89Z"/>
    <path class="cls-8" d="M921.67,685.19v6.59c0,.21-.14.35-.35.35h-2.41c-.21,0-.35-.14-.35-.35v-6.02c0-1.91-1.04-2.57-2.17-2.57-1.75,0-2.55,1.72-2.55,2.27v6.33c0,.21-.14.35-.35.35h-2.41c-.21,0-.35-.14-.35-.35v-10.86c0-.21.14-.35.35-.35h2.31c.21,0,.33.14.35.35l.09,1.51v.02c.76-1.23,1.98-2.15,3.66-2.15,2.36,0,4.18,1.79,4.18,4.89Z"/>
    <path class="cls-8" d="M1010.93,680.92v1.84c0,.21-.14.35-.35.35h-1.65v8.66c0,.21-.14.35-.35.35h-2.41c-.21,0-.35-.14-.35-.35v-8.66h-1.65c-.21,0-.35-.14-.35-.35v-1.84c0-.21.14-.35.35-.35h1.65v-3.19c0-.21.14-.35.35-.35h2.41c.21,0,.35.14.35.35v3.19h1.65c.21,0,.35.14.35.35Z"/>
    <path class="cls-8" d="M1022.71,687.51h-7.41c.31,1.53,1.49,2.41,3.3,2.41.92,0,1.65-.24,2.45-.8.21-.14.35-.14.52.02l1.04,1.01c.17.17.17.33-.02.52-1.11,1.11-2.62,1.77-4.3,1.77-3.61,0-6.09-2.67-6.09-6.07s2.48-6.07,5.83-6.07,5.5,2.67,5.5,5.81c0,.92-.12,1.39-.83,1.39ZM1015.25,685.48h5.52c-.21-1.63-1.32-2.53-2.71-2.53s-2.55.9-2.81,2.53Z"/>
    <path class="cls-8" d="M935.28,680.45h-2.19c-.21,0-.33.14-.36.36v.25c-.95-.59-2.06-.94-3.27-.94-3.41,0-6.17,2.76-6.17,6.17s2.76,6.17,6.17,6.17c1.2,0,2.32-.35,3.27-.94v.25c.02.21.14.36.36.36h2.19c.21,0,.36-.14.36-.36v-10.96c0-.21-.14-.36-.36-.36Z"/>
    <circle class="cls-4" cx="983.22" cy="686.37" r="3.27"/>
    <circle class="cls-4" cx="929.46" cy="686.29" r="3.27"/>
    <circle class="cls-8" cx="975.34" cy="667.38" r="3.27"/>
    <circle class="cls-8" cx="937.33" cy="705.39" r="3.27"/>
  </g>
  <g>
    <path class="cls-5" d="M695.55,683.2s0-.08,0-.12h0s0,.08,0,.12"/>
    <path class="cls-4" d="M704.56,679.01c-.28-2.07-.94-4.08-1.93-5.91-1.97-3.62-5.24-6.48-9.1-7.93-1.93-.73-3.99-1.09-6.05-1.09-4.8,0-9.45,2.05-12.69,5.58-5.37-5.89-14.36-7.27-21.26-3.28-1.8,1.04-3.41,2.41-4.73,4.02-3.28-3.59-7.86-5.87-12.71-6.26-4.28-.35-8.62.76-12.21,3.11-3.44,2.26-6.12,5.61-7.56,9.46-1.5,4.01-1.62,8.49-.34,12.57,1.23,3.92,3.71,7.39,7.01,9.83,3.42,2.53,7.63,3.88,11.88,3.8,1.49-.03,3-.18,4.44-.55.44-.11.86-.24,1.25-.41-.52.21-1.09.33-1.69.33-2.5,0-4.53-2.03-4.53-4.53,0-2.25,1.64-4.11,3.78-4.47-.57.08-1.13.21-1.73.32-2.25.41-4.61.16-6.64-.89-3.78-1.96-6.03-6.14-5.56-10.38.47-4.19,3.55-7.77,7.62-8.87,2.24-.6,4.66-.43,6.78.5,2.27,1,4.17,2.89,5.43,5.01.32.53.59,1.09.81,1.67.22.57.35,1.17.65,1.71.6,1.08,1.63,1.89,2.83,2.2,2.36.61,4.71-.79,5.43-3.07.2-.63.23-1.27.36-1.91.24-1.12.71-2.19,1.39-3.12,1.34-1.82,3.42-3.03,5.66-3.29,4.31-.5,8.34,2.6,9,6.88.17,1.12.34,2.12,1.1,3.03.8.95,1.99,1.55,3.23,1.61,1.27.06,2.53-.42,3.43-1.32.83-.83,1.2-1.87,1.33-3.01.51-4.35,4.58-7.59,8.92-7.22,4.3.37,7.57,4.19,7.4,8.5-.02.5-.05.97-.03,1.43,0-2.51,2.04-4.55,4.56-4.55s4.56,2.04,4.56,4.56c0,0,0,.01,0,.02.02-.18.03-.37.03-.56.05-1.18.02-2.37-.13-3.55"/>
    <path class="cls-7" d="M704.67,683.09c0,2.52-2.04,4.56-4.56,4.56s-4.56-2.04-4.56-4.56,2.04-4.56,4.56-4.56,4.56,2.04,4.56,4.56"/>
    <path class="cls-7" d="M643.4,697.76c0,2.5-2.03,4.53-4.53,4.53s-4.53-2.03-4.53-4.53,2.03-4.53,4.53-4.53,4.53,2.03,4.53,4.53"/>
    <path class="cls-7" d="M684.57,693.01l-.67,1.64c-.09.24-.27.29-.49.22-.22-.07-.49-.15-.91-.15-1.37,0-2.26,1.02-2.26,2.35v5.77c0,.2-.13.33-.33.33h-2.26c-.2,0-.33-.13-.33-.33v-10.2c0-.2.13-.33.33-.33h2.15c.2,0,.31.13.33.33l.09,1.2c.58-1.04,1.46-1.77,2.77-1.77.62,0,1.15.24,1.46.51.18.13.18.29.11.44"/>
    <path class="cls-7" d="M695.16,693.01l-.67,1.64c-.09.24-.27.29-.49.22-.22-.07-.49-.15-.91-.15-1.37,0-2.26,1.02-2.26,2.35v5.77c0,.2-.13.33-.33.33h-2.26c-.2,0-.33-.13-.33-.33v-10.2c0-.2.13-.33.33-.33h2.15c.2,0,.31.13.33.33l.09,1.2c.58-1.04,1.46-1.77,2.77-1.77.62,0,1.15.24,1.46.51.18.13.18.29.11.44"/>
    <path class="cls-7" d="M673.22,692.63v10.2c0,.2-.13.33-.33.33h-2.04c-.2,0-.31-.13-.33-.33l-.09-.93c-.78.91-1.86,1.55-3.28,1.55-3.04,0-5.26-2.53-5.26-5.7s2.22-5.7,5.26-5.7c1.38,0,2.48.67,3.3,1.6l.07-1.02c.02-.2.13-.33.33-.33h2.04c.2,0,.33.13.33.33M670.27,697.73c0-1.64-1.18-3.02-2.77-3.02s-2.79,1.29-2.79,3.02,1.18,3.06,2.79,3.06,2.77-1.42,2.77-3.06"/>
    <path class="cls-7" d="M698.98,692.3h2.26c.2,0,.33.13.33.33v10.2c0,.2-.13.33-.33.33h-2.26c-.2,0-.33-.13-.33-.33v-10.2c0-.2.13-.33.33-.33"/>
    <path class="cls-7" d="M713.4,700.13c0,2.11-2.15,3.33-4.15,3.33-1.86,0-3.37-.91-4.15-1.82-.13-.16-.09-.31,0-.44l.87-1.22c.13-.18.29-.13.49.02.89.58,1.84,1,2.71,1,.71,0,1.4-.22,1.4-.91,0-1.73-5.26-1.06-5.26-4.72,0-2.08,1.82-3.3,3.77-3.3,1.4,0,2.82.58,3.73,1.64.13.16.09.33-.02.47l-.84,1.11c-.13.18-.29.13-.49-.02-.84-.55-1.35-.84-2.13-.84-.69,0-1.2.38-1.2.93,0,1.77,5.28.8,5.28,4.79"/>
    <path class="cls-7" d="M656.74,699.77c.18-.16.33-.16.49,0l1.35,1.29c.13.13.16.31.02.47-1.02,1.17-2.53,1.93-4.26,1.93-3.13,0-5.54-2.51-5.54-5.7s2.42-5.7,5.54-5.7c1.69,0,3.17.75,4.19,1.93.13.16.11.33-.02.47l-1.35,1.31c-.16.16-.31.13-.49-.02-.62-.55-1.26-.98-2.26-.98-1.64,0-2.79,1.29-2.79,2.99s1.15,2.99,2.79,2.99c1.04,0,1.71-.42,2.33-.98"/>
    <path class="cls-7" d="M663.05,713.85v4.95c0,.16-.11.27-.27.27h-1.81c-.16,0-.27-.11-.27-.27v-4.52c0-1.44-.78-1.93-1.61-1.93-1.31,0-1.92,1.05-1.92,1.67v4.79c0,.16-.11.27-.27.27h-1.81c-.16,0-.27-.11-.27-.27v-4.52c0-1.44-.78-1.93-1.63-1.93-1.31,0-1.92,1.3-1.92,1.7v4.76c0,.16-.11.27-.27.27h-1.81c-.16,0-.27-.11-.27-.27v-8.16c0-.16.11-.27.27-.27h1.74c.16,0,.25.11.27.27l.07,1.14v.02c.57-.92,1.49-1.61,2.75-1.61,1.15,0,2.13.57,2.68,1.61.62-.94,1.65-1.61,3.07-1.61,1.9,0,3.26,1.35,3.26,3.67"/>
    <path class="cls-7" d="M673.57,715.59h-5.57c.23,1.15,1.12,1.81,2.48,1.81.69,0,1.24-.18,1.85-.6.16-.11.27-.11.39.02l.78.76c.12.12.12.25-.02.39-.83.83-1.97,1.33-3.23,1.33-2.71,0-4.58-2.01-4.58-4.56s1.86-4.56,4.38-4.56,4.13,2,4.13,4.36c0,.69-.09,1.05-.62,1.05M667.96,714.06h4.15c-.16-1.22-.99-1.9-2.04-1.9s-1.92.67-2.11,1.9"/>
    <path class="cls-7" d="M681.24,710.64v1.38c0,.16-.11.27-.27.27h-1.24v6.51c0,.16-.11.27-.27.27h-1.81c-.16,0-.27-.11-.27-.27v-6.51h-1.24c-.16,0-.27-.11-.27-.27v-1.38c0-.16.11-.27.27-.27h1.24v-2.4c0-.16.11-.27.27-.27h1.81c.16,0,.27.11.27.27v2.4h1.24c.16,0,.27.11.27.27"/>
    <path class="cls-7" d="M690.78,710.94l-.53,1.31c-.07.19-.21.23-.39.18-.18-.05-.39-.12-.73-.12-1.1,0-1.81.82-1.81,1.88v4.61c0,.16-.11.27-.27.27h-1.81c-.16,0-.27-.11-.27-.27v-8.16c0-.16.11-.27.27-.27h1.72c.16,0,.25.11.27.27l.07.96c.46-.83,1.17-1.42,2.22-1.42.5,0,.92.19,1.17.41.14.11.14.23.09.35"/>
    <path class="cls-7" d="M692.52,714.73c0-2.56,2.01-4.56,4.51-4.56s4.51,2,4.51,4.56-2.01,4.56-4.51,4.56-4.51-2-4.51-4.56M699.28,714.73c0-1.4-1.01-2.4-2.25-2.4s-2.25.99-2.25,2.4.99,2.4,2.25,2.4,2.25-.99,2.25-2.4"/>
    <path class="cls-7" d="M713.49,714.73c0,2.54-1.77,4.56-4.21,4.56-1.06,0-1.9-.44-2.52-1.1v3.97c0,.16-.11.27-.27.27h-1.81c-.16,0-.27-.11-.27-.27v-11.53c0-.16.11-.27.27-.27h1.63c.16,0,.25.11.27.27l.05.82c.66-.75,1.54-1.28,2.64-1.28,2.43,0,4.21,2.02,4.21,4.56M711.24,714.72c0-1.38-.94-2.41-2.24-2.41s-2.22,1.1-2.22,2.41.94,2.45,2.22,2.45,2.24-1.05,2.24-2.45"/>
    <path class="cls-7" d="M716.03,714.73c0-2.56,2-4.56,4.51-4.56s4.51,2,4.51,4.56-2.01,4.56-4.51,4.56-4.51-2-4.51-4.56M722.79,714.73c0-1.4-1.01-2.4-2.25-2.4s-2.25.99-2.25,2.4.99,2.4,2.25,2.4,2.25-.99,2.25-2.4"/>
    <path class="cls-7" d="M728.2,706.11h1.81c.16,0,.27.11.27.27v12.42c0,.16-.11.27-.27.27h-1.81c-.16,0-.27-.11-.27-.27v-12.42c0-.16.11-.27.27-.27"/>
    <path class="cls-7" d="M733.37,707.42c0-.71.57-1.3,1.3-1.3s1.28.59,1.28,1.3-.57,1.3-1.28,1.3-1.3-.59-1.3-1.3M733.76,710.37h1.81c.16,0,.27.11.27.27v8.16c0,.16-.11.27-.27.27h-1.81c-.16,0-.27-.11-.27-.27v-8.16c0-.16.11-.27.27-.27"/>
    <path class="cls-7" d="M744.01,710.64v1.38c0,.16-.11.27-.27.27h-1.24v6.51c0,.16-.11.27-.27.27h-1.81c-.16,0-.27-.11-.27-.27v-6.51h-1.24c-.16,0-.27-.11-.27-.27v-1.38c0-.16.11-.27.27-.27h1.24v-2.4c0-.16.11-.27.27-.27h1.81c.16,0,.27.11.27.27v2.4h1.24c.16,0,.27.11.27.27"/>
    <path class="cls-7" d="M755.44,710.64v8.16c0,.16-.11.27-.27.27h-1.63c-.16,0-.25-.11-.27-.27l-.07-.75c-.62.73-1.49,1.24-2.63,1.24-2.43,0-4.21-2.02-4.21-4.56s1.77-4.56,4.21-4.56c1.1,0,1.99.53,2.64,1.28l.05-.82c.02-.16.11-.27.27-.27h1.63c.16,0,.27.11.27.27M753.08,714.72c0-1.31-.94-2.41-2.22-2.41s-2.24,1.03-2.24,2.41.94,2.45,2.24,2.45,2.22-1.14,2.22-2.45"/>
    <path class="cls-7" d="M766.83,713.85v4.95c0,.16-.11.27-.27.27h-1.81c-.16,0-.27-.11-.27-.27v-4.52c0-1.44-.78-1.93-1.63-1.93-1.31,0-1.92,1.3-1.92,1.7v4.76c0,.16-.11.27-.27.27h-1.81c-.16,0-.27-.11-.27-.27v-8.16c0-.16.11-.27.27-.27h1.74c.16,0,.25.11.27.27l.07,1.14v.02c.57-.92,1.49-1.61,2.75-1.61,1.77,0,3.14,1.35,3.14,3.67"/>
    <path class="cls-7" d="M778.79,710.64v8.16c0,.16-.11.27-.27.27h-1.63c-.16,0-.25-.11-.27-.27l-.07-.75c-.62.73-1.49,1.24-2.63,1.24-2.43,0-4.21-2.02-4.21-4.56s1.77-4.56,4.21-4.56c1.1,0,1.99.53,2.64,1.28l.05-.82c.02-.16.11-.27.27-.27h1.63c.16,0,.27.11.27.27M776.43,714.72c0-1.31-.94-2.41-2.22-2.41s-2.24,1.03-2.24,2.41.94,2.45,2.24,2.45,2.22-1.14,2.22-2.45"/>
  </g>
  <line class="cls-10" x1="1060.1" y1="238.39" x2="1060.1" y2="181.38"/>
  <ellipse class="cls-3" cx="1028.55" cy="196.34" rx="13.16" ry="27.38"/>
  <line class="cls-10" x1="1028.55" y1="237.26" x2="1028.55" y2="192.37"/>
  <g>
    <polygon class="cls-3" points="1216.48 316.58 1216.48 274 1236.97 253.52 1257.45 253.52 1257.45 316.58 1216.48 316.58"/>
    <polygon class="cls-8" points="1277.93 316.58 1277.93 274 1257.45 253.52 1236.97 274 1236.97 316.58 1277.93 316.58"/>
  </g>
  <g>
    <polygon class="cls-3" points="1254.34 316.58 1254.34 285.08 1274.82 264.6 1295.31 264.6 1295.31 316.58 1254.34 316.58"/>
    <polygon class="cls-8" points="1315.79 316.58 1315.79 285.08 1295.31 264.6 1274.82 285.08 1274.82 316.58 1315.79 316.58"/>
  </g>
  <g>
    <path class="cls-9" d="M680.16,51.66h221.8c27.32,0,49.46,22.14,49.46,49.46v2.16c0,27.32-22.14,49.46-49.46,49.46h-128.52"/>
    <circle class="cls-4" cx="680.16" cy="51.66" r="7.57"/>
  </g>
</svg>