<?xml version="1.0" encoding="UTF-8"?>
<svg id="Camada_2" data-name="Camada 2" xmlns="http://www.w3.org/2000/svg" xmlns:xlink="http://www.w3.org/1999/xlink" viewBox="0 0 1620.19 911.36">
  <defs>
    <style>
      .cls-1 {
        opacity: .05;
      }

      .cls-2, .cls-3, .cls-4 {
        fill: #fff;
      }

      .cls-2, .cls-5, .cls-6, .cls-7, .cls-8, .cls-4, .cls-9 {
        stroke: #1d1d1b;
        stroke-width: 8.11px;
      }

      .cls-2, .cls-5, .cls-7, .cls-9 {
        stroke-miterlimit: 10;
      }

      .cls-10, .cls-5, .cls-6 {
        fill: #fd0;
      }

      .cls-11, .cls-7, .cls-8, .cls-9 {
        fill: none;
      }

      .cls-6, .cls-8, .cls-4 {
        stroke-linejoin: round;
      }

      .cls-6, .cls-8, .cls-4, .cls-9 {
        stroke-linecap: round;
      }

      .cls-12 {
        fill: #1d1d1b;
      }

      .cls-13 {
        clip-path: url(#clippath);
      }
    </style>
    <clipPath id="clippath">
      <path class="cls-11" d="M183.18,984.06v-15.71c0-67.08,54.38-121.45,121.45-121.45h325.97c65.33,0,118.29-52.96,118.29-118.29h0c0-65.33-52.96-118.29-118.29-118.29H197.87c-8.11,0-14.68-6.57-14.68-14.68h0c0-8.11,6.57-14.68,14.68-14.68h632.37c65.33,0,118.29-52.96,118.29-118.29h0c0-65.33-52.96-118.29-118.29-118.29h-455.45c-8.11,0-14.68-6.57-14.68-14.68h0c0-8.11,6.57-14.68,14.68-14.68h37.15c65.33,0,118.29-52.96,118.29-118.29h0c0-65.33-52.96-118.29-118.29-118.29H-.78v905.62s183.96,0,183.96,0Z"/>
    </clipPath>
  </defs>
  <rect class="cls-10" x="-.78" y="0" width="1620.98" height="911.36"/>
  <g>
    <path class="cls-3" d="M117.5,78.44h412.71v236.58H117.5C52.22,315.02-.78,262.01-.78,196.73h0c0-65.28,53-118.29,118.29-118.29Z" transform="translate(529.43 393.46) rotate(-180)"/>
    <path class="cls-3" d="M117.5,344.38h831.01v236.58H117.5c-65.28,0-118.29-53-118.29-118.29h0c0-65.28,53-118.29,118.29-118.29Z" transform="translate(947.74 925.34) rotate(-180)"/>
    <path class="cls-3" d="M-.78,610.33v236.58s631.38,0,631.38,0c65.33,0,118.29-52.96,118.29-118.29h0c0-65.33-52.96-118.29-118.29-118.29H40.96"/>
    <g class="cls-13">
      <g>
        <g>
          <path class="cls-6" d="M342.75,526.55l-13.51-58.65h-81.6v-5.18h-74.95v5.18H50.29v-5.18H-24.66v5.18h-67.94l-10.04,58.68.34,32.93,33.95,4.79H.01c-.4-1.53-.63-3.13-.63-4.79,0-10.54,8.55-19.09,19.09-19.09s19.09,8.55,19.09,19.09c0,1.66-.23,3.26-.63,4.79h182.93c-.4-1.53-.63-3.13-.63-4.79,0-10.54,8.55-19.09,19.09-19.09s19.09,8.55,19.09,19.09c0,1.66-.23,3.26-.63,4.79h85.96v-37.75h0Z"/>
          <path class="cls-4" d="M18.47,540.42c-10.54,0-19.09,8.55-19.09,19.09,0,1.66.23,3.26.63,4.79,2.13,8.23,9.58,14.31,18.46,14.31s16.34-6.08,18.46-14.31c.4-1.53.63-3.13.63-4.79,0-10.54-8.55-19.09-19.09-19.09h0Z"/>
          <path class="cls-4" d="M238.33,540.42c-10.54,0-19.09,8.55-19.09,19.09,0,1.66.23,3.26.63,4.79,2.13,8.23,9.58,14.31,18.46,14.31s16.34-6.08,18.46-14.31c.4-1.53.63-3.13.63-4.79,0-10.54-8.55-19.09-19.09-19.09h0Z"/>
        </g>
        <circle cx="238.33" cy="559.52" r="6.52"/>
        <circle cx="18.47" cy="559.52" r="6.52"/>
        <rect class="cls-4" x="-15.93" y="487.6" width="92.98" height="42.73"/>
        <rect class="cls-4" x="119.39" y="487.6" width="154.18" height="42.73"/>
        <path class="cls-8" d="M334.54,487.6h9.24c3.58,0,6.75,2.28,7.9,5.67l6.37,18.88"/>
        <polygon class="cls-4" points="333.78 487.6 315.6 487.6 315.6 530.33 342.75 537.11 342.75 525.95 333.78 487.6 334.54 487.6 333.78 487.6"/>
        <rect class="cls-4" x="77.04" y="487.6" width="42.35" height="76.71"/>
        <line class="cls-8" x1="98.32" y1="506.92" x2="98.32" y2="564.31"/>
        <rect class="cls-4" x="273.55" y="487.6" width="42.05" height="76.71"/>
        <line class="cls-8" x1="294.52" y1="506.92" x2="294.52" y2="564.31"/>
        <g>
          <path class="cls-3" d="M258.36,492.95H126.36v33.42h23.85c1.69,3.31,4.14,6.24,7.15,8.47,4.11,3.04,9.17,4.71,14.29,4.71.14,0,.28,0,.42,0,1.99-.04,3.84-.27,5.49-.68.69-.17,1.3-.38,1.87-.62v-.02c3.08-1.28,5.17-4.33,5.17-7.72,0-1.5-.41-2.9-1.11-4.12h74.87v-33.42Z"/>
          <path class="cls-10" d="M245.26,510.79c-.29-2.17-.98-4.29-2.03-6.21-2.07-3.81-5.51-6.81-9.57-8.33-2.03-.76-4.19-1.15-6.36-1.15-5.04,0-9.93,2.16-13.34,5.87-5.65-6.19-15.1-7.64-22.35-3.45-1.89,1.09-3.59,2.53-4.97,4.23-3.45-3.77-8.26-6.17-13.36-6.58-4.5-.37-9.06.79-12.83,3.27-3.61,2.38-6.43,5.89-7.95,9.94-1.58,4.21-1.7,8.92-.36,13.22,1.29,4.12,3.9,7.77,7.37,10.33,3.59,2.66,8.02,4.07,12.49,3.99,1.56-.03,3.15-.19,4.67-.57.46-.12.9-.26,1.32-.44-.55.22-1.15.34-1.78.34-2.63,0-4.76-2.13-4.76-4.76,0-2.36,1.72-4.32,3.98-4.7-.59.08-1.18.22-1.81.34-2.36.43-4.84.17-6.98-.93-3.98-2.06-6.34-6.46-5.84-10.91.49-4.4,3.73-8.17,8.01-9.32,2.35-.63,4.9-.45,7.13.53,2.39,1.05,4.38,3.04,5.71,5.26.33.56.62,1.14.85,1.75.23.6.37,1.23.68,1.8.63,1.14,1.72,1.99,2.97,2.31,2.49.64,4.95-.83,5.71-3.23.21-.66.24-1.34.38-2.01.25-1.18.75-2.3,1.46-3.28,1.41-1.91,3.59-3.18,5.95-3.46,4.53-.52,8.77,2.73,9.46,7.23.18,1.18.36,2.23,1.16,3.19.84,1,2.09,1.62,3.4,1.69,1.33.07,2.66-.44,3.6-1.38.88-.87,1.26-1.96,1.4-3.16.54-4.57,4.81-7.98,9.38-7.59,4.53.39,7.95,4.4,7.78,8.94-.02.53-.05,1.02-.03,1.51,0-2.64,2.15-4.78,4.79-4.78s4.79,2.15,4.79,4.79c0,0,0,.01,0,.02.02-.19.03-.39.04-.58.05-1.25.02-2.5-.14-3.73"/>
          <path class="cls-12" d="M245.37,515.09c0,2.65-2.15,4.79-4.79,4.79-2.65,0-4.79-2.15-4.79-4.79s2.15-4.79,4.79-4.79,4.79,2.15,4.79,4.79"/>
          <path class="cls-12" d="M180.97,530.5c0,2.63-2.13,4.76-4.76,4.76s-4.76-2.13-4.76-4.76,2.13-4.76,4.76-4.76,4.76,2.13,4.76,4.76"/>
        </g>
      </g>
      <g>
        <g>
          <path class="cls-6" d="M511.07,794.85v37.75s85.96,0,85.96,0c-.4-1.53-.63-3.13-.63-4.79,0-10.54,8.55-19.09,19.09-19.09,10.54,0,19.09,8.55,19.09,19.09,0,1.66-.23,3.25-.63,4.79h182.93c-.4-1.53-.63-3.13-.63-4.79,0-10.54,8.55-19.09,19.09-19.09,10.54,0,19.09,8.55,19.09,19.09,0,1.66-.23,3.25-.63,4.79h68.37s33.95-4.79,33.95-4.79l.34-32.93-10.04-58.68h-67.94v-5.18s-74.95,0-74.95,0v5.18h-122.4v-5.18s-74.95,0-74.95,0v5.18h-81.6s-13.51,58.65-13.51,58.65h0Z"/>
          <path class="cls-4" d="M835.36,808.71c-10.54,0-19.09,8.55-19.09,19.09,0,1.66.23,3.25.63,4.79,2.13,8.23,9.58,14.31,18.46,14.31,8.89,0,16.34-6.08,18.46-14.31.4-1.53.63-3.13.63-4.79,0-10.54-8.55-19.09-19.09-19.09h0Z"/>
          <path class="cls-4" d="M615.5,808.71c-10.54,0-19.09,8.55-19.09,19.09,0,1.66.23,3.25.63,4.79,2.13,8.23,9.58,14.31,18.46,14.31,8.89,0,16.34-6.08,18.46-14.31.4-1.53.63-3.13.63-4.79,0-10.54-8.55-19.09-19.09-19.09h0Z"/>
        </g>
        <circle cx="615.5" cy="827.81" r="6.52"/>
        <circle cx="835.36" cy="827.81" r="6.52"/>
        <rect class="cls-4" x="776.79" y="755.89" width="92.98" height="42.73"/>
        <rect class="cls-4" x="580.26" y="755.89" width="154.18" height="42.73"/>
        <path class="cls-8" d="M495.78,780.43l6.37-18.88c1.14-3.39,4.32-5.67,7.9-5.67h9.24"/>
        <polygon class="cls-4" points="519.29 755.89 520.05 755.89 511.08 794.24 511.08 805.4 538.23 798.62 538.23 755.89 520.05 755.89 519.29 755.89"/>
        <rect class="cls-4" x="869.76" y="755.89" width="42.35" height="76.71"/>
        <line class="cls-8" x1="890.85" y1="832.6" x2="890.85" y2="775.21"/>
        <rect class="cls-4" x="734.44" y="755.89" width="42.35" height="76.71"/>
        <line class="cls-8" x1="755.51" y1="832.6" x2="755.51" y2="775.21"/>
        <rect class="cls-4" x="538.23" y="755.89" width="42.05" height="76.71"/>
        <line class="cls-8" x1="559.31" y1="832.6" x2="559.31" y2="775.21"/>
      </g>
      <g>
        <line class="cls-9" x1="394.93" y1="316.88" x2="394.93" y2="197.16"/>
        <circle class="cls-9" cx="394.93" cy="184.41" r="11.47"/>
        <line class="cls-9" x1="394.93" y1="172.93" x2="394.93" y2="110.97"/>
        <line class="cls-9" x1="406.19" y1="186.57" x2="461.48" y2="206.81"/>
        <line class="cls-9" x1="382.99" y1="186.22" x2="328.38" y2="206.81"/>
      </g>
      <g>
        <path class="cls-6" d="M371.87,690.37h72.4c19.32,0,35.01,15.69,35.01,35.01h0c0,19.32-15.69,35.01-35.01,35.01h-72.4v-70.02h0Z"/>
        <line class="cls-8" x1="374.89" y1="760.4" x2="374.89" y2="842.51"/>
        <path class="cls-8" d="M353.96,842.51v-157.02c0-6.11,4.95-11.06,11.06-11.06h0c5.45,0,9.87,4.42,9.87,9.87v6.07"/>
      </g>
      <g>
        <rect class="cls-8" x="133.14" y="696.76" width="79.57" height="130.68"/>
        <rect class="cls-10" x="135.39" y="700.11" width="75.06" height="123.99"/>
        <line class="cls-8" x1="133.14" y1="677.01" x2="133.14" y2="846.9"/>
        <line class="cls-8" x1="212.71" y1="667.72" x2="212.71" y2="846.9"/>
        <path class="cls-8" d="M114.72,689.27c17.05-16.87,40.95-27.36,67.41-27.36,30.5,0,57.6,13.93,74.72,35.51"/>
        <line class="cls-8" x1="133.26" y1="762.1" x2="212.71" y2="762.1"/>
      </g>
    </g>
    <circle class="cls-3" cx="711.28" cy="344.38" r="4.39"/>
    <path class="cls-9" d="M-.78,78.44h412.71c65.33,0,118.29,52.96,118.29,118.29h0c0,65.33-52.96,118.29-118.29,118.29h-37.15c-8.11,0-14.68,6.57-14.68,14.68h0c0,8.11,6.57,14.68,14.68,14.68h455.45c65.33,0,118.29,52.96,118.29,118.29h0c0,65.33-52.96,118.29-118.29,118.29H197.87c-8.11,0-14.68,6.57-14.68,14.68h0c0,8.11,6.57,14.68,14.68,14.68h432.73c65.33,0,118.29,52.96,118.29,118.29h0c0,65.33-52.96,118.29-118.29,118.29H244.14c-62.9,0-113.88,50.99-113.88,113.88h0c0,62.9,50.99,113.88,113.88,113.88"/>
    <g>
      <polygon class="cls-1" points="139.29 227.6 246.85 54.88 139.15 54.58 139.29 227.6"/>
      <g>
        <polygon class="cls-10" points="224.46 316.59 134.66 316.59 134.66 235.66 251 235.66 251 315.02 224.46 316.59"/>
        <path class="cls-4" d="M142.09,50.51h101.47c4.1,0,7.43,3.33,7.43,7.43v177.72h-116.33V57.94c0-4.1,3.33-7.43,7.43-7.43Z"/>
        <g>
          <path class="cls-12" d="M192.56,250.31c9.96,0,18.03,8.07,18.03,18.03s-8.07,18.03-18.03,18.03-18.03-8.07-18.03-18.03,8.07-18.03,18.03-18.03M192.56,249.22c-10.55,0-19.12,8.58-19.12,19.12s8.58,19.12,19.12,19.12,19.12-8.58,19.12-19.12-8.58-19.12-19.12-19.12h0Z"/>
          <path class="cls-12" d="M192.56,255.31c7.19,0,13.03,5.85,13.03,13.03s-5.85,13.03-13.03,13.03-13.03-5.85-13.03-13.03,5.85-13.03,13.03-13.03M192.56,254.22c-7.8,0-14.12,6.32-14.12,14.12s6.32,14.12,14.12,14.12,14.12-6.32,14.12-14.12-6.32-14.12-14.12-14.12h0Z"/>
          <circle class="cls-12" cx="203.93" cy="256.98" r="1.95"/>
          <path class="cls-12" d="M183.15,279.72c0,1.08-.87,1.95-1.95,1.95-1.08,0-1.95-.87-1.95-1.95s.87-1.95,1.95-1.95c1.08,0,1.95.87,1.95,1.95Z"/>
        </g>
        <polyline class="cls-8" points="134.66 312.03 134.66 235.66 251 235.66 251 311.28"/>
      </g>
    </g>
    <g>
      <polygon class="cls-6" points="659.18 580.7 688.38 580.7 688.38 470.69 639.43 470.69 639.43 580.7 659.18 580.7"/>
      <rect class="cls-5" x="601.69" y="273.85" width="124.44" height="83.27" rx="7.89" ry="7.89" transform="translate(1327.82 630.97) rotate(-180)"/>
      <rect class="cls-2" x="623.07" y="291.3" width="81.68" height="48.37" rx="5.36" ry="5.36" transform="translate(1327.82 630.97) rotate(-180)"/>
      <line class="cls-7" x1="663.91" y1="470.69" x2="663.91" y2="357.12"/>
    </g>
  </g>
  <g>
    <path d="M1312.9,732.31c0,7.78-7.34,13.9-16.42,13.9-6.98,0-12.53-3.38-15.77-7.63-.36-.58-.29-1.01.22-1.44l2.09-2.02c.5-.43,1.01-.36,1.51.14,2.88,3.1,6.62,5.76,11.88,5.76,6.62,0,10.94-4.03,10.94-9,0-12.17-25.78-8.64-25.78-24.91,0-7.42,6.26-12.82,14.54-12.82,5.4,0,10.73,2.59,14.26,6.77.43.5.43.94-.07,1.51l-1.8,1.87c-.5.5-1.01.58-1.51.07-3.24-3.24-6.48-5.11-10.87-5.11-5.18,0-9.22,2.81-9.22,7.78,0,11.88,25.99,8.06,25.99,25.13Z"/>
    <path d="M1317.94,727.71c0-10.44,7.78-18.51,17.86-18.51s17.86,8.06,17.86,18.51-7.78,18.51-17.86,18.51-17.86-8.07-17.86-18.51ZM1348.47,727.71c0-7.92-5.54-13.61-12.67-13.61s-12.67,5.69-12.67,13.61,5.54,13.61,12.67,13.61,12.67-5.69,12.67-13.61Z"/>
    <path d="M1394.91,727.71c0,10.3-7.2,18.43-17.28,18.43-5.47,0-9.65-2.52-12.46-6.26l-.29,4.32c-.07.65-.43,1.08-1.08,1.08h-2.95c-.65,0-1.08-.43-1.08-1.08v-50.4c0-.65.43-1.08,1.08-1.08h3.24c.65,0,1.08.43,1.08,1.08v21.82c2.74-3.82,6.98-6.34,12.46-6.34,10.08,0,17.28,8.14,17.28,18.43ZM1389.73,727.63c0-7.7-5.33-13.46-12.53-13.46s-12.46,6.12-12.46,13.46,5.26,13.61,12.46,13.61,12.53-5.83,12.53-13.61Z"/>
    <path d="M1419.53,711.5l-1.15,2.52c-.29.58-.65.65-1.3.5-.65-.14-1.37-.36-2.81-.36-4.39,0-7.85,3.31-7.85,7.85v22.18c0,.65-.43,1.08-1.08,1.08h-3.24c-.65,0-1.08-.43-1.08-1.08v-33.12c0-.65.43-1.08,1.08-1.08h2.88c.65,0,1.01.43,1.08,1.08l.29,3.1c1.94-2.95,4.9-4.97,8.71-4.97,1.73,0,3.24.43,4.25,1.15.43.29.5.58.22,1.15Z"/>
    <path d="M1454.24,726.34c0,2.45-.29,3.6-2.09,3.6h-26.43c.79,6.7,5.62,11.59,13.11,11.59,4.39,0,7.34-1.58,9.65-3.53.5-.43.94-.65,1.51-.14l1.37,1.3c.58.58.65,1.08.07,1.66-3.31,3.46-7.92,5.4-13.18,5.4-10.51,0-17.86-8.14-17.86-18.51s7.13-18.51,17.28-18.51,16.56,8.14,16.56,17.14ZM1425.65,725.76h23.83c-.29-6.62-5.11-11.81-11.81-11.81s-11.3,4.97-12.02,11.81Z"/>
    <path d="M1513.13,711.07v33.12c0,.65-.43,1.08-1.08,1.08h-2.95c-.65,0-1.01-.43-1.08-1.08l-.29-4.32c-2.81,3.74-6.98,6.26-12.46,6.26-10.08,0-17.28-8.14-17.28-18.43s7.2-18.43,17.28-18.43c5.47,0,9.72,2.52,12.46,6.34l.29-4.54c.07-.65.43-1.08,1.08-1.08h2.95c.65,0,1.08.43,1.08,1.08ZM1508.16,727.63c0-7.34-5.26-13.46-12.46-13.46s-12.53,5.76-12.53,13.46,5.33,13.61,12.53,13.61,12.46-6.19,12.46-13.61Z"/>
    <path d="M900.57,823.83c.5.5.5,1.01,0,1.51-4.46,4.46-10.58,7.27-17.57,7.27-14.4,0-25.92-11.45-25.92-25.92s11.52-25.99,25.92-25.99c6.98,0,13.11,2.81,17.57,7.27.5.5.5,1.01,0,1.51l-4.75,5.11c-.43.5-1.01.5-1.51.07-3.02-2.67-6.77-4.32-11.38-4.32-8.78,0-15.7,6.99-15.7,16.35s6.91,16.27,15.7,16.27c4.61,0,8.35-1.66,11.38-4.32.5-.43,1.08-.43,1.51.07l4.75,5.11Z"/>
    <path d="M939.88,797.47v33.12c0,.65-.43,1.08-1.08,1.08h-6.62c-.65,0-1.01-.43-1.08-1.08l-.29-3.02c-2.52,2.95-6.05,5.04-10.66,5.04-9.86,0-17.07-8.21-17.07-18.51s7.2-18.51,17.07-18.51c4.46,0,8.06,2.16,10.73,5.18l.22-3.31c.07-.65.43-1.08,1.08-1.08h6.62c.65,0,1.08.43,1.08,1.08ZM930.3,814.03c0-5.33-3.82-9.79-9-9.79s-9.07,4.18-9.07,9.79,3.82,9.94,9.07,9.94,9-4.61,9-9.94Z"/>
    <path d="M969.9,798.7l-2.16,5.33c-.29.79-.86.94-1.58.72-.72-.22-1.58-.5-2.95-.5-4.46,0-7.34,3.31-7.34,7.63v18.72c0,.65-.43,1.08-1.08,1.08h-7.34c-.65,0-1.08-.43-1.08-1.08v-33.12c0-.65.43-1.08,1.08-1.08h6.98c.65,0,1.01.43,1.08,1.08l.29,3.89c1.87-3.38,4.75-5.76,9-5.76,2.02,0,3.74.79,4.75,1.66.58.43.58.94.36,1.44Z"/>
    <path d="M996.75,798.7l-2.16,5.33c-.29.79-.86.94-1.58.72-.72-.22-1.58-.5-2.95-.5-4.46,0-7.34,3.31-7.34,7.63v18.72c0,.65-.43,1.08-1.08,1.08h-7.34c-.65,0-1.08-.43-1.08-1.08v-33.12c0-.65.43-1.08,1.08-1.08h6.98c.65,0,1.01.43,1.08,1.08l.29,3.89c1.87-3.38,4.75-5.76,9-5.76,2.02,0,3.74.79,4.75,1.66.58.43.58.94.36,1.44Z"/>
    <path d="M999.7,784.44c0-2.88,2.3-5.26,5.26-5.26s5.18,2.38,5.18,5.26-2.3,5.26-5.18,5.26-5.26-2.38-5.26-5.26ZM1001.29,796.39h7.34c.65,0,1.08.43,1.08,1.08v33.12c0,.65-.43,1.08-1.08,1.08h-7.34c-.65,0-1.08-.43-1.08-1.08v-33.12c0-.65.43-1.08,1.08-1.08Z"/>
    <path d="M1042.04,821.81c0,6.84-6.98,10.8-13.47,10.8-6.05,0-10.95-2.95-13.47-5.91-.43-.5-.29-1.01,0-1.44l2.81-3.96c.43-.58.94-.43,1.58.07,2.88,1.87,5.98,3.24,8.78,3.24,2.3,0,4.54-.72,4.54-2.95,0-5.62-17.07-3.46-17.07-15.34,0-6.77,5.9-10.73,12.24-10.73,4.54,0,9.14,1.87,12.1,5.33.43.5.29,1.08-.07,1.51l-2.74,3.6c-.43.58-.94.43-1.58-.07-2.74-1.8-4.39-2.74-6.91-2.74-2.23,0-3.89,1.22-3.89,3.02,0,5.76,17.14,2.59,17.14,15.55Z"/>
    <path d="M1119.15,782.35v48.24c0,.65-.43,1.08-1.08,1.08h-7.7c-.65,0-1.08-.43-1.08-1.08v-28.66l-11.66,28.87c-.22.58-.72.86-1.3.86h-6.98c-.58,0-1.08-.29-1.3-.86l-11.67-28.87v28.66c0,.65-.43,1.08-1.08,1.08h-7.7c-.65,0-1.08-.43-1.08-1.08v-48.24c0-.65.43-1.08,1.08-1.08h8.86c.58,0,1.08.22,1.3.72l15.12,38.38,15.05-38.38c.22-.5.72-.72,1.3-.72h8.86c.65,0,1.08.43,1.08,1.08Z"/>
    <path d="M1157.31,817.56h-22.61c.94,4.68,4.54,7.34,10.08,7.34,2.81,0,5.04-.72,7.49-2.45.65-.43,1.08-.43,1.58.07l3.17,3.1c.5.5.5,1.01-.07,1.58-3.38,3.38-7.99,5.4-13.1,5.4-11.02,0-18.58-8.14-18.58-18.51s7.56-18.51,17.79-18.51,16.78,8.14,16.78,17.71c0,2.81-.36,4.25-2.52,4.25ZM1134.56,811.37h16.85c-.65-4.97-4.03-7.71-8.28-7.71s-7.78,2.74-8.57,7.71Z"/>
    <path d="M1184.74,797.47v5.62c0,.65-.43,1.08-1.08,1.08h-5.04v26.43c0,.65-.43,1.08-1.08,1.08h-7.34c-.65,0-1.08-.43-1.08-1.08v-26.43h-5.04c-.65,0-1.08-.43-1.08-1.08v-5.62c0-.65.43-1.08,1.08-1.08h5.04v-9.72c0-.65.43-1.08,1.08-1.08h7.34c.65,0,1.08.43,1.08,1.08v9.72h5.04c.65,0,1.08.43,1.08,1.08Z"/>
    <path d="M1213.4,798.7l-2.16,5.33c-.29.79-.86.94-1.58.72-.72-.22-1.58-.5-2.95-.5-4.46,0-7.34,3.31-7.34,7.63v18.72c0,.65-.43,1.08-1.08,1.08h-7.34c-.65,0-1.08-.43-1.08-1.08v-33.12c0-.65.43-1.08,1.08-1.08h6.98c.65,0,1.01.43,1.08,1.08l.29,3.89c1.87-3.38,4.75-5.76,9-5.76,2.02,0,3.74.79,4.75,1.66.58.43.58.94.36,1.44Z"/>
    <path d="M1214.12,814.11c0-10.37,8.14-18.51,18.29-18.51s18.29,8.14,18.29,18.51-8.14,18.51-18.29,18.51-18.29-8.14-18.29-18.51ZM1241.55,814.11c0-5.69-4.1-9.72-9.14-9.72s-9.15,4.03-9.15,9.72,4.03,9.72,9.15,9.72,9.14-4.03,9.14-9.72Z"/>
    <path d="M1292.89,814.11c0,10.3-7.2,18.51-17.07,18.51-4.32,0-7.7-1.8-10.23-4.46v16.13c0,.65-.43,1.08-1.08,1.08h-7.34c-.65,0-1.08-.43-1.08-1.08v-46.8c0-.65.43-1.08,1.08-1.08h6.62c.65,0,1.01.43,1.08,1.08l.22,3.31c2.66-3.02,6.26-5.18,10.73-5.18,9.86,0,17.07,8.21,17.07,18.51ZM1283.74,814.03c0-5.62-3.82-9.79-9.07-9.79s-9,4.46-9,9.79,3.82,9.94,9,9.94,9.07-4.25,9.07-9.94Z"/>
    <path d="M1296.84,814.11c0-10.37,8.14-18.51,18.29-18.51s18.29,8.14,18.29,18.51-8.14,18.51-18.29,18.51-18.29-8.14-18.29-18.51ZM1324.28,814.11c0-5.69-4.1-9.72-9.15-9.72s-9.14,4.03-9.14,9.72,4.03,9.72,9.14,9.72,9.15-4.03,9.15-9.72Z"/>
    <path d="M1339.9,779.11h7.34c.65,0,1.08.43,1.08,1.08v50.4c0,.65-.43,1.08-1.08,1.08h-7.34c-.65,0-1.08-.43-1.08-1.08v-50.4c0-.65.43-1.08,1.08-1.08Z"/>
    <path d="M1354.52,784.44c0-2.88,2.3-5.26,5.26-5.26s5.18,2.38,5.18,5.26-2.3,5.26-5.18,5.26-5.26-2.38-5.26-5.26ZM1356.1,796.39h7.34c.65,0,1.08.43,1.08,1.08v33.12c0,.65-.43,1.08-1.08,1.08h-7.34c-.65,0-1.08-.43-1.08-1.08v-33.12c0-.65.43-1.08,1.08-1.08Z"/>
    <path d="M1391.38,797.47v5.62c0,.65-.43,1.08-1.08,1.08h-5.04v26.43c0,.65-.43,1.08-1.08,1.08h-7.34c-.65,0-1.08-.43-1.08-1.08v-26.43h-5.04c-.65,0-1.08-.43-1.08-1.08v-5.62c0-.65.43-1.08,1.08-1.08h5.04v-9.72c0-.65.43-1.08,1.08-1.08h7.34c.65,0,1.08.43,1.08,1.08v9.72h5.04c.65,0,1.08.43,1.08,1.08Z"/>
    <path d="M1431.41,797.47v33.12c0,.65-.43,1.08-1.08,1.08h-6.62c-.65,0-1.01-.43-1.08-1.08l-.29-3.02c-2.52,2.95-6.05,5.04-10.66,5.04-9.86,0-17.07-8.21-17.07-18.51s7.2-18.51,17.07-18.51c4.46,0,8.06,2.16,10.73,5.18l.22-3.31c.07-.65.43-1.08,1.08-1.08h6.62c.65,0,1.08.43,1.08,1.08ZM1421.84,814.03c0-5.33-3.82-9.79-9-9.79s-9.07,4.18-9.07,9.79,3.82,9.94,9.07,9.94,9-4.61,9-9.94Z"/>
    <path d="M1471.3,810.51v20.09c0,.65-.43,1.08-1.08,1.08h-7.34c-.65,0-1.08-.43-1.08-1.08v-18.36c0-5.83-3.17-7.85-6.62-7.85-5.33,0-7.78,5.26-7.78,6.91v19.3c0,.65-.43,1.08-1.08,1.08h-7.34c-.65,0-1.08-.43-1.08-1.08v-33.12c0-.65.43-1.08,1.08-1.08h7.06c.65,0,1.01.43,1.08,1.08l.29,4.61v.07c2.3-3.74,6.05-6.55,11.16-6.55,7.2,0,12.75,5.47,12.75,14.91Z"/>
    <path d="M1513.49,797.47v33.12c0,.65-.43,1.08-1.08,1.08h-6.62c-.65,0-1.01-.43-1.08-1.08l-.29-3.02c-2.52,2.95-6.05,5.04-10.66,5.04-9.86,0-17.07-8.21-17.07-18.51s7.2-18.51,17.07-18.51c4.46,0,8.06,2.16,10.73,5.18l.22-3.31c.07-.65.43-1.08,1.08-1.08h6.62c.65,0,1.08.43,1.08,1.08ZM1503.92,814.03c0-5.33-3.82-9.79-9-9.79s-9.07,4.18-9.07,9.79,3.82,9.94,9.07,9.94,9-4.61,9-9.94Z"/>
  </g>
</svg>