<?xml version="1.0" encoding="UTF-8"?>
<svg id="Camada_1" data-name="Camada 1" xmlns="http://www.w3.org/2000/svg" viewBox="0 0 1155.5 619.5">
  <defs>
    <style>
      .cls-1, .cls-2 {
        fill: #fd0;
      }

      .cls-3 {
        fill: #fdb71a;
      }

      .cls-4, .cls-2 {
        opacity: .2;
      }
    </style>
  </defs>
  <rect class="cls-2" x="16.8" y="16.88" width="1121.4" height="585" rx="80.1" ry="80.1"/>
  <g class="cls-4">
    <path class="cls-1" d="M1138.2,521.77V96.98c0-13.43-3.32-26.07-9.16-37.19-34.61,41.47-73.96,79.6-121.1,105.75-49.07,27.23-105.91,41.16-149.32,76.72-33.3,27.28-56.72,65.85-92.71,89.46-26.81,17.59-58.79,25.64-86.58,41.62-25.94,14.91-47.46,36.25-70.51,55.33-77.78,64.38-175.88,103.82-276.58,111.22-28.97,2.13-58.15,1.68-86.97,5.29-27.3,3.42-54.01,10.46-80.62,17.47-35.96,9.48-71.92,18.95-107.88,28.43,11.8,6.85,25.5,10.79,40.13,10.79h961.2c44.24,0,80.1-35.86,80.1-80.1Z"/>
    <path class="cls-2" d="M1138.2,521.77V96.98c0-13.43-3.32-26.07-9.16-37.19-34.61,41.47-73.96,79.6-121.1,105.75-49.07,27.23-105.91,41.16-149.32,76.72-33.3,27.28-56.72,65.85-92.71,89.46-26.81,17.59-58.79,25.64-86.58,41.62-25.94,14.91-47.46,36.25-70.51,55.33-77.78,64.38-175.88,103.82-276.58,111.22-28.97,2.13-58.15,1.68-86.97,5.29-27.3,3.42-54.01,10.46-80.62,17.47-35.96,9.48-71.92,18.95-107.88,28.43,11.8,6.85,25.5,10.79,40.13,10.79h961.2c44.24,0,80.1-35.86,80.1-80.1Z"/>
  </g>
  <g>
    <g class="cls-4">
      <path class="cls-1" d="M1138.2,521.77v-221.74c-51.25,21.62-112.28,16.2-167.41,29.72-60.28,14.78-112.38,52.06-160.36,91.43-14.6,11.97-29.25,24.39-46.61,31.83-23.71,10.16-51.01,10.36-73.95,22.14-16.02,8.23-28.8,21.55-43.88,31.4-18.96,12.38-41.03,18.94-62.76,25.34-29.19,8.6-58.64,17.25-88.98,19.69-30.76,2.47-61.94-1.51-92.44,3.17-32.35,4.97-62.49,19.47-94.49,26.32-33.13,7.09-67.41,5.83-101.12,9.13-18.36,1.79-37.07,5.21-54.3,11.69h906.19c44.24,0,80.1-35.86,80.1-80.1Z"/>
    </g>
    <path class="cls-2" d="M1138.2,521.77v-221.74c-51.25,21.62-112.28,16.2-167.41,29.72-60.28,14.78-112.38,52.06-160.36,91.43-14.6,11.97-29.25,24.39-46.61,31.83-23.71,10.16-51.01,10.36-73.95,22.14-16.02,8.23-28.8,21.55-43.88,31.4-18.96,12.38-41.03,18.94-62.76,25.34-29.19,8.6-58.64,17.25-88.98,19.69-30.76,2.47-61.94-1.51-92.44,3.17-32.35,4.97-62.49,19.47-94.49,26.32-33.13,7.09-67.41,5.83-101.12,9.13-18.36,1.79-37.07,5.21-54.3,11.69h906.19c44.24,0,80.1-35.86,80.1-80.1Z"/>
  </g>
  <g>
    <path class="cls-1" d="M1138.2,521.77v-97.87c-30.47-1.68-61.26,2.38-90.24,11.96-21.01,6.95-40.98,16.72-61.88,23.98-70.75,24.6-150.6,20.11-217.35,54.11-33.09,16.86-61.4,42.52-95.67,56.83-41.42,17.29-87.74,16.56-132.6,18.05-30.25,1-61.57,3.53-89.99,13.04h607.63c44.24,0,80.1-35.86,80.1-80.1Z"/>
    <path class="cls-2" d="M1138.2,521.77v-97.87c-30.47-1.68-61.26,2.38-90.24,11.96-21.01,6.95-40.98,16.72-61.88,23.98-70.75,24.6-150.6,20.11-217.35,54.11-33.09,16.86-61.4,42.52-95.67,56.83-41.42,17.29-87.74,16.56-132.6,18.05-30.25,1-61.57,3.53-89.99,13.04h607.63c44.24,0,80.1-35.86,80.1-80.1Z"/>
  </g>
  <g>
    <path class="cls-3" d="M158.59,222.44c-4.59-.03-9.08-.84-13.45-2.41-4.38-1.58-8.31-4.16-11.81-7.73-3.5-3.58-6.28-8.34-8.34-14.3s-3.08-13.34-3.05-22.15c0-8.22.87-15.55,2.62-21.98,1.75-6.44,4.27-11.88,7.55-16.34s7.24-7.85,11.88-10.2,9.84-3.52,15.59-3.52c6.03,0,11.38,1.19,16.05,3.56,4.67,2.38,8.44,5.62,11.32,9.73,2.88,4.11,4.66,8.74,5.34,13.9h-17.11c-.88-3.69-2.66-6.63-5.37-8.84-2.7-2.2-6.12-3.3-10.24-3.3-6.66,0-11.77,2.89-15.35,8.67-3.58,5.78-5.38,13.72-5.41,23.81h.66c1.53-2.75,3.52-5.11,5.95-7.08s5.2-3.49,8.27-4.57c3.08-1.08,6.34-1.62,9.77-1.62,5.62,0,10.68,1.34,15.16,4.03,4.48,2.69,8.04,6.38,10.66,11.09s3.92,10.09,3.89,16.15c.03,6.31-1.41,11.98-4.31,16.99s-6.95,8.96-12.14,11.84c-5.19,2.88-11.23,4.3-18.14,4.27ZM158.5,208.37c3.41,0,6.45-.83,9.14-2.48,2.69-1.66,4.81-3.89,6.38-6.7,1.56-2.81,2.33-5.97,2.3-9.47.03-3.44-.71-6.55-2.23-9.33-1.52-2.78-3.6-4.98-6.26-6.61-2.66-1.62-5.69-2.44-9.09-2.44-2.53,0-4.89.48-7.08,1.45-2.19.97-4.09,2.3-5.72,4.01-1.62,1.7-2.9,3.67-3.82,5.91-.92,2.23-1.4,4.62-1.43,7.15.03,3.34.81,6.42,2.34,9.23,1.53,2.81,3.64,5.06,6.33,6.75,2.69,1.69,5.73,2.53,9.14,2.53Z"/>
    <path class="cls-3" d="M243.1,222.44c-6.97,0-13.15-1.17-18.54-3.52s-9.61-5.55-12.66-9.63-4.55-8.71-4.52-13.9c-.03-4.03.84-7.73,2.62-11.11s4.2-6.2,7.24-8.46,6.45-3.71,10.2-4.34v-.66c-4.94-1.09-8.93-3.62-11.98-7.57s-4.55-8.52-4.52-13.71c-.03-4.94,1.34-9.34,4.12-13.22,2.78-3.88,6.59-6.93,11.44-9.16,4.84-2.23,10.38-3.35,16.59-3.35s11.65,1.12,16.48,3.35,8.64,5.29,11.44,9.16c2.8,3.88,4.2,8.28,4.2,13.22,0,5.19-1.54,9.76-4.62,13.71-3.08,3.95-7.04,6.48-11.88,7.57v.66c3.75.62,7.13,2.07,10.15,4.34,3.02,2.27,5.42,5.09,7.22,8.46,1.8,3.38,2.7,7.08,2.7,11.11,0,5.19-1.53,9.82-4.59,13.9-3.06,4.08-7.27,7.29-12.63,9.63-5.36,2.34-11.51,3.52-18.45,3.52ZM243.1,209.03c3.59,0,6.72-.62,9.38-1.85,2.66-1.23,4.72-2.98,6.19-5.23,1.47-2.25,2.22-4.84,2.25-7.78-.03-3.06-.82-5.77-2.37-8.13s-3.66-4.21-6.33-5.55-5.71-2.02-9.12-2.02-6.5.67-9.19,2.02c-2.69,1.34-4.8,3.2-6.35,5.55s-2.3,5.07-2.27,8.13c-.03,2.94.69,5.52,2.16,7.76,1.47,2.23,3.54,3.98,6.21,5.23s5.82,1.88,9.45,1.88ZM243.1,165.3c2.94,0,5.54-.59,7.8-1.78,2.27-1.19,4.05-2.84,5.37-4.97s1.98-4.58,2.02-7.36c-.03-2.75-.69-5.16-1.97-7.24-1.28-2.08-3.06-3.69-5.34-4.83-2.28-1.14-4.91-1.71-7.88-1.71s-5.7.57-7.99,1.71-4.08,2.75-5.34,4.83-1.88,4.49-1.85,7.24c-.03,2.78.6,5.23,1.9,7.34,1.3,2.11,3.09,3.77,5.39,4.97s4.93,1.8,7.9,1.8Z"/>
    <path class="cls-3" d="M328.37,222.44c-6.97,0-13.15-1.17-18.54-3.52s-9.61-5.55-12.66-9.63-4.55-8.71-4.52-13.9c-.03-4.03.84-7.73,2.62-11.11s4.2-6.2,7.24-8.46,6.45-3.71,10.2-4.34v-.66c-4.94-1.09-8.93-3.62-11.98-7.57s-4.55-8.52-4.52-13.71c-.03-4.94,1.34-9.34,4.12-13.22,2.78-3.88,6.59-6.93,11.44-9.16,4.84-2.23,10.38-3.35,16.59-3.35s11.65,1.12,16.48,3.35,8.64,5.29,11.44,9.16c2.8,3.88,4.2,8.28,4.2,13.22,0,5.19-1.54,9.76-4.62,13.71-3.08,3.95-7.04,6.48-11.88,7.57v.66c3.75.62,7.13,2.07,10.15,4.34,3.02,2.27,5.42,5.09,7.22,8.46,1.8,3.38,2.7,7.08,2.7,11.11,0,5.19-1.53,9.82-4.59,13.9-3.06,4.08-7.27,7.29-12.63,9.63-5.36,2.34-11.51,3.52-18.45,3.52ZM328.37,209.03c3.59,0,6.72-.62,9.38-1.85,2.66-1.23,4.72-2.98,6.19-5.23,1.47-2.25,2.22-4.84,2.25-7.78-.03-3.06-.82-5.77-2.37-8.13s-3.66-4.21-6.33-5.55-5.71-2.02-9.12-2.02-6.5.67-9.19,2.02c-2.69,1.34-4.8,3.2-6.35,5.55s-2.3,5.07-2.27,8.13c-.03,2.94.69,5.52,2.16,7.76,1.47,2.23,3.54,3.98,6.21,5.23s5.82,1.88,9.45,1.88ZM328.37,165.3c2.94,0,5.54-.59,7.8-1.78,2.27-1.19,4.05-2.84,5.37-4.97s1.98-4.58,2.02-7.36c-.03-2.75-.69-5.16-1.97-7.24-1.28-2.08-3.06-3.69-5.34-4.83-2.28-1.14-4.91-1.71-7.88-1.71s-5.7.57-7.99,1.71-4.08,2.75-5.34,4.83-1.88,4.49-1.85,7.24c-.03,2.78.6,5.23,1.9,7.34,1.3,2.11,3.09,3.77,5.39,4.97s4.93,1.8,7.9,1.8Z"/>
    <path class="cls-3" d="M447.76,222.95c-7.72,0-14.34-1.96-19.85-5.88-5.52-3.92-9.75-9.59-12.7-17.02s-4.43-16.37-4.43-26.84c.03-10.47,1.52-19.38,4.48-26.74s7.19-12.98,12.7-16.85c5.52-3.88,12.12-5.81,19.8-5.81s14.3,1.94,19.83,5.81,9.77,9.5,12.73,16.88,4.43,16.28,4.43,26.72-1.48,19.46-4.43,26.88-7.19,13.09-12.7,16.99c-5.52,3.91-12.13,5.86-19.85,5.86ZM447.76,208.28c6,0,10.74-2.96,14.23-8.88,3.48-5.92,5.23-14.65,5.23-26.18,0-7.62-.8-14.03-2.39-19.22s-3.84-9.1-6.75-11.74-6.34-3.96-10.31-3.96c-5.97,0-10.69,2.96-14.16,8.88s-5.22,14.6-5.25,26.04c-.03,7.66.74,14.09,2.32,19.31,1.58,5.22,3.82,9.15,6.73,11.79s6.36,3.96,10.36,3.96Z"/>
    <path class="cls-3" d="M535.79,222.95c-7.72,0-14.34-1.96-19.85-5.88-5.52-3.92-9.75-9.59-12.7-17.02s-4.43-16.37-4.43-26.84c.03-10.47,1.52-19.38,4.48-26.74s7.19-12.98,12.7-16.85c5.52-3.88,12.12-5.81,19.8-5.81s14.3,1.94,19.83,5.81,9.77,9.5,12.73,16.88,4.43,16.28,4.43,26.72-1.48,19.46-4.43,26.88-7.19,13.09-12.7,16.99c-5.52,3.91-12.13,5.86-19.85,5.86ZM535.79,208.28c6,0,10.74-2.96,14.23-8.88,3.48-5.92,5.23-14.65,5.23-26.18,0-7.62-.8-14.03-2.39-19.22s-3.84-9.1-6.75-11.74-6.34-3.96-10.31-3.96c-5.97,0-10.69,2.96-14.16,8.88s-5.22,14.6-5.25,26.04c-.03,7.66.74,14.09,2.32,19.31,1.58,5.22,3.82,9.15,6.73,11.79s6.36,3.96,10.36,3.96Z"/>
    <path class="cls-3" d="M623.82,222.95c-7.72,0-14.34-1.96-19.85-5.88s-9.75-9.59-12.7-17.02-4.43-16.37-4.43-26.84c.03-10.47,1.52-19.38,4.48-26.74s7.19-12.98,12.7-16.85,12.12-5.81,19.8-5.81,14.3,1.94,19.83,5.81,9.77,9.5,12.73,16.88,4.43,16.28,4.43,26.72-1.48,19.46-4.43,26.88-7.19,13.09-12.7,16.99-12.13,5.86-19.85,5.86ZM623.82,208.28c6,0,10.74-2.96,14.23-8.88s5.23-14.65,5.23-26.18c0-7.62-.8-14.03-2.39-19.22s-3.84-9.1-6.75-11.74-6.34-3.96-10.31-3.96c-5.97,0-10.69,2.96-14.16,8.88s-5.22,14.6-5.25,26.04c-.03,7.66.74,14.09,2.32,19.31s3.82,9.15,6.73,11.79,6.36,3.96,10.36,3.96Z"/>
  </g>
  <g>
    <path class="cls-3" d="M120.14,283.39v-21.75h4.33v2.66h.2c.19-.43.47-.86.84-1.3.37-.44.85-.81,1.44-1.11s1.33-.45,2.22-.45c1.15,0,2.22.3,3.19.9.98.6,1.75,1.5,2.34,2.71.58,1.21.88,2.71.88,4.53s-.28,3.25-.85,4.46-1.34,2.13-2.31,2.75c-.97.62-2.06.93-3.26.93-.85,0-1.57-.14-2.17-.42s-1.08-.64-1.46-1.07-.67-.86-.87-1.3h-.13v8.46h-4.39ZM124.43,269.55c0,.94.13,1.76.39,2.46.26.7.64,1.25,1.13,1.63.49.39,1.09.58,1.8.58s1.32-.2,1.81-.59c.49-.39.87-.94,1.13-1.65.26-.7.39-1.52.39-2.44s-.13-1.72-.38-2.41c-.25-.69-.63-1.24-1.12-1.63-.49-.39-1.1-.59-1.82-.59s-1.32.19-1.81.57c-.49.38-.87.91-1.13,1.61-.26.69-.39,1.51-.39,2.45Z"/>
    <path class="cls-3" d="M142.99,277.75c-1.01,0-1.91-.18-2.7-.53s-1.41-.88-1.87-1.58c-.46-.7-.68-1.57-.68-2.61,0-.88.16-1.62.48-2.21.32-.6.76-1.08,1.32-1.44.56-.36,1.19-.64,1.9-.82s1.46-.32,2.24-.39c.92-.1,1.66-.19,2.22-.27s.97-.21,1.23-.39c.25-.17.38-.43.38-.76v-.06c0-.65-.2-1.16-.61-1.51-.41-.36-.99-.54-1.74-.54-.79,0-1.42.17-1.88.52-.47.35-.78.78-.93,1.3l-4.06-.33c.21-.96.61-1.79,1.22-2.5.6-.7,1.38-1.25,2.34-1.63.96-.38,2.07-.57,3.33-.57.88,0,1.72.1,2.53.31s1.52.52,2.15.96c.63.43,1.12.99,1.49,1.66.36.68.55,1.49.55,2.43v10.67h-4.16v-2.19h-.12c-.25.49-.59.93-1.02,1.3s-.94.67-1.53.88c-.6.21-1.29.31-2.07.31ZM144.24,274.73c.65,0,1.22-.13,1.71-.39.49-.26.88-.61,1.16-1.04.28-.44.42-.94.42-1.49v-1.68c-.14.09-.32.17-.56.24-.24.07-.5.14-.8.2-.29.06-.59.11-.89.15-.3.04-.56.08-.8.12-.52.08-.96.2-1.35.36-.38.17-.68.39-.9.67-.21.28-.32.62-.32,1.03,0,.6.22,1.05.65,1.37s.99.47,1.66.47Z"/>
    <path class="cls-3" d="M168.46,266.15l-4.02.25c-.07-.34-.22-.65-.44-.93s-.52-.5-.89-.67c-.37-.17-.81-.25-1.31-.25-.68,0-1.25.14-1.72.43-.47.28-.7.66-.7,1.14,0,.38.15.7.45.96.3.26.82.47,1.56.63l2.86.58c1.54.32,2.68.82,3.44,1.52.75.7,1.13,1.62,1.13,2.76,0,1.04-.3,1.95-.91,2.73-.61.78-1.44,1.39-2.49,1.83-1.05.44-2.27.65-3.64.65-2.09,0-3.76-.44-5-1.31-1.24-.88-1.97-2.07-2.18-3.58l4.31-.23c.13.64.45,1.12.95,1.46.5.33,1.14.5,1.93.5s1.39-.15,1.86-.45c.47-.3.71-.68.72-1.16,0-.4-.17-.73-.5-.98-.33-.26-.84-.46-1.52-.59l-2.74-.55c-1.54-.31-2.69-.84-3.44-1.61-.75-.76-1.13-1.73-1.13-2.91,0-1.02.28-1.89.83-2.63.55-.73,1.33-1.3,2.34-1.7s2.19-.6,3.54-.6c2,0,3.57.42,4.72,1.27,1.15.84,1.82,2,2.01,3.45Z"/>
    <path class="cls-3" d="M184.76,266.15l-4.02.25c-.07-.34-.22-.65-.44-.93s-.52-.5-.89-.67c-.37-.17-.81-.25-1.31-.25-.68,0-1.25.14-1.72.43-.47.28-.7.66-.7,1.14,0,.38.15.7.45.96.3.26.82.47,1.56.63l2.86.58c1.54.32,2.68.82,3.44,1.52.75.7,1.13,1.62,1.13,2.76,0,1.04-.3,1.95-.91,2.73-.61.78-1.44,1.39-2.49,1.83-1.05.44-2.27.65-3.64.65-2.09,0-3.76-.44-5-1.31-1.24-.88-1.97-2.07-2.18-3.58l4.31-.23c.13.64.45,1.12.95,1.46.5.33,1.14.5,1.93.5s1.39-.15,1.86-.45c.47-.3.71-.68.72-1.16,0-.4-.17-.73-.5-.98-.33-.26-.84-.46-1.52-.59l-2.74-.55c-1.54-.31-2.69-.84-3.44-1.61-.75-.76-1.13-1.73-1.13-2.91,0-1.02.28-1.89.83-2.63.55-.73,1.33-1.3,2.34-1.7s2.19-.6,3.54-.6c2,0,3.57.42,4.72,1.27,1.15.84,1.82,2,2.01,3.45Z"/>
    <path class="cls-3" d="M192.4,277.75c-1.01,0-1.91-.18-2.7-.53s-1.41-.88-1.87-1.58c-.46-.7-.68-1.57-.68-2.61,0-.88.16-1.62.48-2.21.32-.6.76-1.08,1.32-1.44.56-.36,1.19-.64,1.9-.82s1.46-.32,2.24-.39c.92-.1,1.66-.19,2.22-.27s.97-.21,1.23-.39c.25-.17.38-.43.38-.76v-.06c0-.65-.2-1.16-.61-1.51-.41-.36-.99-.54-1.74-.54-.79,0-1.42.17-1.88.52-.47.35-.78.78-.93,1.3l-4.06-.33c.21-.96.61-1.79,1.22-2.5.6-.7,1.38-1.25,2.34-1.63.96-.38,2.07-.57,3.33-.57.88,0,1.72.1,2.53.31s1.52.52,2.15.96c.63.43,1.12.99,1.49,1.66.36.68.55,1.49.55,2.43v10.67h-4.16v-2.19h-.12c-.25.49-.59.93-1.02,1.3s-.94.67-1.53.88c-.6.21-1.29.31-2.07.31ZM193.65,274.73c.65,0,1.22-.13,1.71-.39.49-.26.88-.61,1.16-1.04.28-.44.42-.94.42-1.49v-1.68c-.14.09-.32.17-.56.24-.24.07-.5.14-.8.2-.29.06-.59.11-.89.15-.3.04-.56.08-.8.12-.52.08-.96.2-1.35.36-.38.17-.68.39-.9.67-.21.28-.32.62-.32,1.03,0,.6.22,1.05.65,1.37s.99.47,1.66.47Z"/>
    <path class="cls-3" d="M211.84,283.72c-1.42,0-2.64-.19-3.65-.58-1.01-.39-1.82-.92-2.42-1.58s-.99-1.41-1.16-2.25l4.06-.55c.12.32.32.61.59.89.27.27.62.5,1.07.66.44.17.98.25,1.62.25.95,0,1.74-.23,2.36-.7.62-.46.93-1.24.93-2.32v-2.89h-.19c-.19.44-.48.85-.87,1.25-.38.39-.88.71-1.48.96s-1.33.37-2.16.37c-1.19,0-2.27-.28-3.24-.83-.97-.55-1.74-1.4-2.32-2.54-.57-1.14-.86-2.59-.86-4.34s.29-3.29.88-4.49c.58-1.2,1.36-2.1,2.33-2.7.97-.6,2.04-.9,3.2-.9.89,0,1.63.15,2.22.45.6.3,1.08.67,1.45,1.11.37.44.65.88.85,1.3h.16v-2.66h4.36v15.97c0,1.35-.33,2.47-.99,3.38s-1.57,1.59-2.73,2.04c-1.16.46-2.5.69-4.01.69ZM211.93,273.93c.71,0,1.31-.18,1.8-.53.49-.35.87-.86,1.13-1.52.26-.66.4-1.46.4-2.38s-.13-1.73-.39-2.42c-.26-.68-.64-1.21-1.13-1.59-.49-.38-1.1-.57-1.8-.57s-1.33.19-1.82.58-.87.92-1.12,1.61-.38,1.48-.38,2.38.13,1.7.39,2.36c.26.66.63,1.17,1.12,1.53.49.36,1.1.54,1.82.54Z"/>
    <path class="cls-3" d="M230.28,277.76c-1.63,0-3.03-.33-4.2-.99-1.17-.66-2.07-1.6-2.7-2.82s-.95-2.66-.95-4.33.32-3.05.95-4.28c.63-1.23,1.52-2.19,2.67-2.87s2.5-1.03,4.05-1.03c1.04,0,2.02.17,2.92.5s1.69.83,2.37,1.5c.68.67,1.2,1.5,1.58,2.51s.57,2.18.57,3.53v1.21h-13.36v-2.72h9.23c0-.63-.14-1.19-.41-1.68s-.65-.87-1.14-1.15c-.48-.28-1.05-.42-1.68-.42s-1.25.15-1.77.46c-.51.31-.91.71-1.2,1.23s-.44,1.08-.44,1.7v2.58c0,.78.15,1.46.44,2.03.29.57.71,1.01,1.24,1.32.54.31,1.17.46,1.91.46.49,0,.93-.07,1.34-.21.4-.14.75-.34,1.04-.62.29-.27.51-.61.66-1.01l4.06.27c-.21.97-.63,1.82-1.26,2.55-.64.72-1.45,1.29-2.45,1.69-1,.4-2.15.6-3.46.6Z"/>
    <path class="cls-3" d="M242.61,259.6c-.65,0-1.21-.22-1.67-.65-.46-.44-.7-.96-.7-1.57s.23-1.12.7-1.56c.46-.44,1.02-.65,1.67-.65s1.21.22,1.67.65c.46.44.7.96.7,1.56s-.23,1.13-.7,1.57c-.46.44-1.02.65-1.67.65ZM240.41,277.46v-15.82h4.39v15.82h-4.39Z"/>
    <path class="cls-3" d="M248.3,277.46v-15.82h4.25v2.76h.16c.29-.98.77-1.72,1.45-2.23.68-.5,1.46-.76,2.35-.76.22,0,.46.01.71.04.25.03.48.07.67.11v3.89c-.21-.06-.49-.12-.85-.17-.36-.05-.7-.07-1-.07-.65,0-1.22.14-1.73.42-.5.28-.9.66-1.19,1.16-.29.5-.44,1.06-.44,1.71v8.95h-4.39Z"/>
    <path class="cls-3" d="M266.56,277.76c-1.6,0-2.98-.34-4.15-1.02-1.16-.68-2.06-1.64-2.69-2.86-.63-1.22-.95-2.65-.95-4.27s.32-3.06.95-4.29,1.53-2.18,2.69-2.86c1.16-.68,2.55-1.03,4.15-1.03s2.98.34,4.15,1.03c1.16.68,2.06,1.64,2.69,2.86.63,1.23.95,2.66.95,4.29s-.32,3.04-.95,4.27c-.63,1.23-1.53,2.18-2.69,2.86-1.16.68-2.55,1.02-4.15,1.02ZM266.58,274.37c.73,0,1.33-.21,1.82-.62.49-.42.86-.98,1.11-1.7s.38-1.54.38-2.46-.13-1.74-.38-2.46c-.25-.72-.62-1.29-1.11-1.71-.49-.42-1.1-.63-1.82-.63s-1.35.21-1.85.63c-.5.42-.87.99-1.12,1.71-.25.72-.38,1.54-.38,2.46s.13,1.74.38,2.46.62,1.29,1.12,1.7c.5.42,1.11.62,1.85.62Z"/>
    <path class="cls-3" d="M290.36,266.15l-4.02.25c-.07-.34-.22-.65-.44-.93s-.52-.5-.89-.67c-.37-.17-.81-.25-1.31-.25-.68,0-1.25.14-1.72.43-.47.28-.7.66-.7,1.14,0,.38.15.7.45.96.3.26.82.47,1.56.63l2.86.58c1.54.32,2.68.82,3.44,1.52.75.7,1.13,1.62,1.13,2.76,0,1.04-.3,1.95-.91,2.73-.61.78-1.44,1.39-2.49,1.83-1.05.44-2.27.65-3.64.65-2.09,0-3.76-.44-5-1.31-1.24-.88-1.97-2.07-2.18-3.58l4.31-.23c.13.64.45,1.12.95,1.46.5.33,1.14.5,1.93.5s1.39-.15,1.86-.45c.47-.3.71-.68.72-1.16,0-.4-.17-.73-.5-.98-.33-.26-.84-.46-1.52-.59l-2.74-.55c-1.54-.31-2.69-.84-3.44-1.61-.75-.76-1.13-1.73-1.13-2.91,0-1.02.28-1.89.83-2.63.55-.73,1.33-1.3,2.34-1.7s2.19-.6,3.54-.6c2,0,3.57.42,4.72,1.27,1.15.84,1.82,2,2.01,3.45Z"/>
    <path class="cls-3" d="M308.63,261.64v3.3h-9.53v-3.3h9.53ZM301.27,257.85h4.39v14.75c0,.4.06.72.19.94.12.22.3.38.52.47.22.09.48.13.78.13.21,0,.41-.02.62-.06.21-.04.36-.07.47-.09l.69,3.26c-.22.07-.53.15-.93.24-.4.09-.88.15-1.45.17-1.06.04-1.98-.1-2.78-.42s-1.41-.82-1.85-1.5-.66-1.54-.65-2.57v-15.32Z"/>
    <path class="cls-3" d="M311.49,277.46v-15.82h4.25v2.76h.16c.29-.98.77-1.72,1.45-2.23.68-.5,1.46-.76,2.35-.76.22,0,.46.01.71.04.25.03.48.07.67.11v3.89c-.21-.06-.49-.12-.85-.17-.36-.05-.7-.07-1-.07-.65,0-1.22.14-1.73.42-.5.28-.9.66-1.19,1.16-.29.5-.44,1.06-.44,1.71v8.95h-4.39Z"/>
    <path class="cls-3" d="M327.41,277.75c-1.01,0-1.91-.18-2.7-.53s-1.41-.88-1.87-1.58c-.46-.7-.68-1.57-.68-2.61,0-.88.16-1.62.48-2.21.32-.6.76-1.08,1.32-1.44.56-.36,1.19-.64,1.9-.82s1.46-.32,2.24-.39c.92-.1,1.66-.19,2.22-.27s.97-.21,1.23-.39c.25-.17.38-.43.38-.76v-.06c0-.65-.2-1.16-.61-1.51-.41-.36-.99-.54-1.74-.54-.79,0-1.42.17-1.88.52-.47.35-.78.78-.93,1.3l-4.06-.33c.21-.96.61-1.79,1.22-2.5.6-.7,1.38-1.25,2.34-1.63.96-.38,2.07-.57,3.33-.57.88,0,1.72.1,2.53.31s1.52.52,2.15.96c.63.43,1.12.99,1.49,1.66.36.68.55,1.49.55,2.43v10.67h-4.16v-2.19h-.12c-.25.49-.59.93-1.02,1.3s-.94.67-1.53.88c-.6.21-1.29.31-2.07.31ZM328.66,274.73c.65,0,1.22-.13,1.71-.39.49-.26.88-.61,1.16-1.04.28-.44.42-.94.42-1.49v-1.68c-.14.09-.32.17-.56.24-.24.07-.5.14-.8.2-.29.06-.59.11-.89.15-.3.04-.56.08-.8.12-.52.08-.96.2-1.35.36-.38.17-.68.39-.9.67-.21.28-.32.62-.32,1.03,0,.6.22,1.05.65,1.37s.99.47,1.66.47Z"/>
    <path class="cls-3" d="M344.11,268.31v9.14h-4.39v-15.82h4.18v2.79h.19c.35-.92.94-1.65,1.76-2.19.82-.54,1.82-.81,3-.81,1.1,0,2.06.24,2.87.72.82.48,1.45,1.17,1.91,2.05.45.89.68,1.95.68,3.18v10.07h-4.39v-9.29c0-.97-.24-1.72-.74-2.27-.5-.55-1.19-.82-2.07-.82-.59,0-1.11.13-1.56.38s-.8.62-1.05,1.11c-.25.48-.38,1.07-.39,1.75Z"/>
    <path class="cls-3" d="M370.92,266.15l-4.02.25c-.07-.34-.22-.65-.44-.93s-.52-.5-.89-.67c-.37-.17-.81-.25-1.31-.25-.68,0-1.25.14-1.72.43-.47.28-.7.66-.7,1.14,0,.38.15.7.45.96.3.26.82.47,1.56.63l2.86.58c1.54.32,2.68.82,3.44,1.52.75.7,1.13,1.62,1.13,2.76,0,1.04-.3,1.95-.91,2.73-.61.78-1.44,1.39-2.49,1.83-1.05.44-2.27.65-3.64.65-2.09,0-3.76-.44-5-1.31-1.24-.88-1.97-2.07-2.18-3.58l4.31-.23c.13.64.45,1.12.95,1.46.5.33,1.14.5,1.93.5s1.39-.15,1.86-.45c.47-.3.71-.68.72-1.16,0-.4-.17-.73-.5-.98-.33-.26-.84-.46-1.52-.59l-2.74-.55c-1.54-.31-2.69-.84-3.44-1.61-.75-.76-1.13-1.73-1.13-2.91,0-1.02.28-1.89.83-2.63.55-.73,1.33-1.3,2.34-1.7s2.19-.6,3.54-.6c2,0,3.57.42,4.72,1.27,1.15.84,1.82,2,2.01,3.45Z"/>
    <path class="cls-3" d="M374.05,283.39v-21.75h4.33v2.66h.2c.19-.43.47-.86.84-1.3.37-.44.85-.81,1.44-1.11s1.33-.45,2.22-.45c1.15,0,2.22.3,3.19.9.98.6,1.75,1.5,2.34,2.71.58,1.21.88,2.71.88,4.53s-.28,3.25-.85,4.46-1.34,2.13-2.31,2.75c-.97.62-2.06.93-3.26.93-.85,0-1.57-.14-2.17-.42s-1.08-.64-1.46-1.07-.67-.86-.87-1.3h-.13v8.46h-4.39ZM378.34,269.55c0,.94.13,1.76.39,2.46.26.7.64,1.25,1.13,1.63.49.39,1.09.58,1.8.58s1.32-.2,1.81-.59c.49-.39.87-.94,1.13-1.65.26-.7.39-1.52.39-2.44s-.13-1.72-.38-2.41c-.25-.69-.63-1.24-1.12-1.63-.49-.39-1.1-.59-1.82-.59s-1.32.19-1.81.57c-.49.38-.87.91-1.13,1.61-.26.69-.39,1.51-.39,2.45Z"/>
    <path class="cls-3" d="M399.54,277.76c-1.6,0-2.98-.34-4.15-1.02-1.16-.68-2.06-1.64-2.69-2.86-.63-1.22-.95-2.65-.95-4.27s.32-3.06.95-4.29,1.53-2.18,2.69-2.86c1.16-.68,2.55-1.03,4.15-1.03s2.98.34,4.15,1.03c1.16.68,2.06,1.64,2.69,2.86.63,1.23.95,2.66.95,4.29s-.32,3.04-.95,4.27c-.63,1.23-1.53,2.18-2.69,2.86-1.16.68-2.55,1.02-4.15,1.02ZM399.56,274.37c.73,0,1.33-.21,1.82-.62.49-.42.86-.98,1.11-1.7s.38-1.54.38-2.46-.13-1.74-.38-2.46c-.25-.72-.62-1.29-1.11-1.71-.49-.42-1.1-.63-1.82-.63s-1.35.21-1.85.63c-.5.42-.87.99-1.12,1.71-.25.72-.38,1.54-.38,2.46s.13,1.74.38,2.46.62,1.29,1.12,1.7c.5.42,1.11.62,1.85.62Z"/>
    <path class="cls-3" d="M410.18,277.46v-15.82h4.25v2.76h.16c.29-.98.77-1.72,1.45-2.23.68-.5,1.46-.76,2.35-.76.22,0,.46.01.71.04.25.03.48.07.67.11v3.89c-.21-.06-.49-.12-.85-.17-.36-.05-.7-.07-1-.07-.65,0-1.22.14-1.73.42-.5.28-.9.66-1.19,1.16-.29.5-.44,1.06-.44,1.71v8.95h-4.39Z"/>
    <path class="cls-3" d="M431.24,261.64v3.3h-9.53v-3.3h9.53ZM423.88,257.85h4.39v14.75c0,.4.06.72.19.94.12.22.3.38.52.47.22.09.48.13.78.13.21,0,.41-.02.62-.06.21-.04.36-.07.47-.09l.69,3.26c-.22.07-.53.15-.93.24-.4.09-.88.15-1.45.17-1.06.04-1.98-.1-2.78-.42s-1.41-.82-1.85-1.5-.66-1.54-.65-2.57v-15.32Z"/>
    <path class="cls-3" d="M438.61,277.75c-1.01,0-1.91-.18-2.7-.53s-1.41-.88-1.87-1.58c-.46-.7-.68-1.57-.68-2.61,0-.88.16-1.62.48-2.21.32-.6.76-1.08,1.32-1.44.56-.36,1.19-.64,1.9-.82s1.46-.32,2.24-.39c.92-.1,1.66-.19,2.22-.27s.97-.21,1.23-.39c.25-.17.38-.43.38-.76v-.06c0-.65-.2-1.16-.61-1.51-.41-.36-.99-.54-1.74-.54-.79,0-1.42.17-1.88.52-.47.35-.78.78-.93,1.3l-4.06-.33c.21-.96.61-1.79,1.22-2.5.6-.7,1.38-1.25,2.34-1.63.96-.38,2.07-.57,3.33-.57.88,0,1.72.1,2.53.31s1.52.52,2.15.96c.63.43,1.12.99,1.49,1.66.36.68.55,1.49.55,2.43v10.67h-4.16v-2.19h-.12c-.25.49-.59.93-1.02,1.3s-.94.67-1.53.88c-.6.21-1.29.31-2.07.31ZM439.86,274.73c.65,0,1.22-.13,1.71-.39.49-.26.88-.61,1.16-1.04.28-.44.42-.94.42-1.49v-1.68c-.14.09-.32.17-.56.24-.24.07-.5.14-.8.2-.29.06-.59.11-.89.15-.3.04-.56.08-.8.12-.52.08-.96.2-1.35.36-.38.17-.68.39-.9.67-.21.28-.32.62-.32,1.03,0,.6.22,1.05.65,1.37s.99.47,1.66.47Z"/>
    <path class="cls-3" d="M456.75,277.71c-1.2,0-2.29-.31-3.26-.93-.97-.62-1.74-1.54-2.31-2.75s-.85-2.7-.85-4.46.29-3.32.88-4.53c.58-1.2,1.36-2.11,2.33-2.71s2.04-.9,3.2-.9c.89,0,1.63.15,2.22.45s1.07.67,1.44,1.11c.37.44.65.88.84,1.3h.13v-7.93h4.38v21.09h-4.33v-2.53h-.19c-.21.44-.5.87-.87,1.3-.37.43-.86.78-1.45,1.07-.59.28-1.32.42-2.17.42ZM458.14,274.22c.71,0,1.31-.19,1.8-.58.49-.39.87-.93,1.13-1.63.26-.7.4-1.52.4-2.46s-.13-1.76-.39-2.45-.64-1.23-1.13-1.61c-.49-.38-1.1-.57-1.8-.57s-1.33.2-1.82.59c-.49.39-.87.93-1.12,1.63-.25.69-.38,1.5-.38,2.41s.13,1.73.39,2.44c.26.7.63,1.25,1.12,1.65.49.4,1.1.59,1.82.59Z"/>
    <path class="cls-3" d="M476.49,277.76c-1.6,0-2.98-.34-4.15-1.02-1.16-.68-2.06-1.64-2.69-2.86-.63-1.22-.95-2.65-.95-4.27s.32-3.06.95-4.29,1.53-2.18,2.69-2.86c1.16-.68,2.55-1.03,4.15-1.03s2.98.34,4.15,1.03c1.16.68,2.06,1.64,2.69,2.86.63,1.23.95,2.66.95,4.29s-.32,3.04-.95,4.27c-.63,1.23-1.53,2.18-2.69,2.86-1.16.68-2.55,1.02-4.15,1.02ZM476.51,274.37c.73,0,1.33-.21,1.82-.62.49-.42.86-.98,1.11-1.7s.38-1.54.38-2.46-.13-1.74-.38-2.46c-.25-.72-.62-1.29-1.11-1.71-.49-.42-1.1-.63-1.82-.63s-1.35.21-1.85.63c-.5.42-.87.99-1.12,1.71-.25.72-.38,1.54-.38,2.46s.13,1.74.38,2.46.62,1.29,1.12,1.7c.5.42,1.11.62,1.85.62Z"/>
    <path class="cls-3" d="M500.3,266.15l-4.02.25c-.07-.34-.22-.65-.44-.93s-.52-.5-.89-.67c-.37-.17-.81-.25-1.31-.25-.68,0-1.25.14-1.72.43-.47.28-.7.66-.7,1.14,0,.38.15.7.45.96.3.26.82.47,1.56.63l2.86.58c1.54.32,2.68.82,3.44,1.52.75.7,1.13,1.62,1.13,2.76,0,1.04-.3,1.95-.91,2.73-.61.78-1.44,1.39-2.49,1.83-1.05.44-2.27.65-3.64.65-2.09,0-3.76-.44-5-1.31-1.24-.88-1.97-2.07-2.18-3.58l4.31-.23c.13.64.45,1.12.95,1.46.5.33,1.14.5,1.93.5s1.39-.15,1.86-.45c.47-.3.71-.68.72-1.16,0-.4-.17-.73-.5-.98-.33-.26-.84-.46-1.52-.59l-2.74-.55c-1.54-.31-2.69-.84-3.44-1.61-.75-.76-1.13-1.73-1.13-2.91,0-1.02.28-1.89.83-2.63.55-.73,1.33-1.3,2.34-1.7s2.19-.6,3.54-.6c2,0,3.57.42,4.72,1.27,1.15.84,1.82,2,2.01,3.45Z"/>
    <path class="cls-3" d="M514.54,268.31v9.14h-4.39v-15.82h4.18v2.79h.19c.35-.92.94-1.65,1.76-2.19.82-.54,1.82-.81,3-.81,1.1,0,2.06.24,2.87.72.82.48,1.45,1.17,1.91,2.05.45.89.68,1.95.68,3.18v10.07h-4.39v-9.29c0-.97-.24-1.72-.74-2.27-.5-.55-1.19-.82-2.07-.82-.59,0-1.11.13-1.56.38s-.8.62-1.05,1.11c-.25.48-.38,1.07-.39,1.75Z"/>
    <path class="cls-3" d="M538.33,270.72v-9.08h4.39v15.82h-4.21v-2.87h-.17c-.36.93-.95,1.67-1.78,2.23-.83.56-1.83.84-3.02.84-1.06,0-1.99-.24-2.79-.72s-1.43-1.16-1.88-2.05-.68-1.95-.69-3.18v-10.07h4.39v9.29c0,.93.26,1.67.75,2.21.49.54,1.16.81,1.99.81.53,0,1.02-.12,1.48-.37.46-.24.83-.61,1.12-1.09.28-.48.42-1.08.42-1.78Z"/>
    <path class="cls-3" d="M546.22,277.46v-15.82h4.18v2.79h.19c.33-.93.88-1.66,1.65-2.19.77-.54,1.69-.8,2.76-.8s2.01.27,2.77.81c.76.54,1.27,1.27,1.52,2.19h.16c.32-.91.91-1.63,1.76-2.18.85-.55,1.85-.82,3.01-.82,1.48,0,2.68.47,3.6,1.41.92.94,1.38,2.26,1.38,3.98v10.64h-4.38v-9.77c0-.88-.23-1.54-.7-1.98-.47-.44-1.05-.66-1.75-.66-.8,0-1.42.25-1.86.76-.45.5-.67,1.17-.67,1.99v9.66h-4.25v-9.87c0-.78-.22-1.39-.66-1.85s-1.02-.69-1.75-.69c-.49,0-.93.12-1.31.37-.39.24-.7.58-.92,1.02-.23.44-.34.95-.34,1.53v9.5h-4.39Z"/>
    <path class="cls-3" d="M585.22,277.71c-1.2,0-2.29-.31-3.26-.93-.97-.62-1.74-1.54-2.31-2.75s-.85-2.7-.85-4.46.29-3.32.88-4.53c.58-1.2,1.36-2.11,2.33-2.71.97-.6,2.04-.9,3.2-.9.89,0,1.62.15,2.22.45s1.07.67,1.44,1.11c.37.44.65.88.84,1.3h.13v-7.93h4.38v21.09h-4.33v-2.53h-.19c-.21.44-.5.87-.87,1.3s-.86.78-1.45,1.07-1.32.42-2.17.42ZM586.61,274.22c.71,0,1.31-.19,1.8-.58.49-.39.87-.93,1.13-1.63.26-.7.4-1.52.4-2.46s-.13-1.76-.39-2.45c-.26-.69-.64-1.23-1.13-1.61-.49-.38-1.1-.57-1.8-.57s-1.33.2-1.82.59c-.49.39-.87.93-1.12,1.63-.25.69-.38,1.5-.38,2.41s.13,1.73.39,2.44c.26.7.63,1.25,1.12,1.65.49.4,1.1.59,1.82.59Z"/>
    <path class="cls-3" d="M600.02,259.6c-.65,0-1.21-.22-1.67-.65-.46-.44-.7-.96-.7-1.57s.23-1.12.7-1.56c.46-.44,1.02-.65,1.67-.65s1.21.22,1.67.65c.46.44.7.96.7,1.56s-.23,1.13-.7,1.57c-.46.44-1.02.65-1.67.65ZM597.82,277.46v-15.82h4.39v15.82h-4.39Z"/>
    <path class="cls-3" d="M610.21,277.75c-1.01,0-1.91-.18-2.7-.53s-1.41-.88-1.87-1.58c-.46-.7-.68-1.57-.68-2.61,0-.88.16-1.62.48-2.21.32-.6.76-1.08,1.32-1.44.56-.36,1.19-.64,1.9-.82s1.46-.32,2.24-.39c.92-.1,1.66-.19,2.22-.27.56-.09.97-.21,1.22-.39s.38-.43.38-.76v-.06c0-.65-.2-1.16-.61-1.51-.41-.36-.99-.54-1.74-.54-.79,0-1.42.17-1.88.52-.47.35-.78.78-.93,1.3l-4.06-.33c.21-.96.61-1.79,1.22-2.5.6-.7,1.38-1.25,2.34-1.63.96-.38,2.07-.57,3.33-.57.88,0,1.72.1,2.53.31s1.52.52,2.15.96c.63.43,1.12.99,1.49,1.66.36.68.55,1.49.55,2.43v10.67h-4.16v-2.19h-.12c-.25.49-.59.93-1.02,1.3s-.94.67-1.53.88c-.6.21-1.29.31-2.07.31ZM611.47,274.73c.64,0,1.21-.13,1.71-.39s.88-.61,1.16-1.04.42-.94.42-1.49v-1.68c-.14.09-.32.17-.56.24-.24.07-.5.14-.8.2s-.59.11-.88.15c-.3.04-.56.08-.8.12-.51.08-.96.2-1.35.36-.38.17-.68.39-.9.67-.21.28-.32.62-.32,1.03,0,.6.22,1.05.65,1.37.44.31.99.47,1.66.47Z"/>
    <path class="cls-3" d="M639.4,270.72v-9.08h4.39v15.82h-4.21v-2.87h-.16c-.36.93-.95,1.67-1.78,2.23-.83.56-1.83.84-3.02.84-1.06,0-1.99-.24-2.79-.72-.8-.48-1.43-1.16-1.88-2.05s-.68-1.95-.68-3.18v-10.07h4.39v9.29c0,.93.26,1.67.75,2.21.49.54,1.16.81,1.99.81.53,0,1.02-.12,1.48-.37.46-.24.83-.61,1.12-1.09s.42-1.08.42-1.78ZM634.96,259.6l2.18-4.69h4.06l-3.14,4.69h-3.1Z"/>
    <path class="cls-3" d="M655.7,261.64v3.3h-9.53v-3.3h9.53ZM648.34,257.85h4.39v14.75c0,.4.06.72.19.94.12.22.3.38.52.47.22.09.48.13.78.13.21,0,.41-.02.62-.06.21-.04.36-.07.47-.09l.69,3.26c-.22.07-.53.15-.93.24-.4.09-.88.15-1.45.17-1.06.04-1.98-.1-2.78-.42s-1.41-.82-1.85-1.5-.66-1.54-.65-2.57v-15.32Z"/>
    <path class="cls-3" d="M660.76,259.6c-.65,0-1.21-.22-1.67-.65-.46-.44-.7-.96-.7-1.57s.23-1.12.7-1.56c.46-.44,1.02-.65,1.67-.65s1.21.22,1.67.65c.46.44.7.96.7,1.56s-.23,1.13-.7,1.57c-.46.44-1.02.65-1.67.65ZM658.55,277.46v-15.82h4.39v15.82h-4.39Z"/>
    <path class="cls-3" d="M670.83,256.36v21.09h-4.39v-21.09h4.39Z"/>
    <path class="cls-3" d="M127.98,291.16v21.09h-2.55v-18.41h-.12l-5.15,3.42v-2.6l5.27-3.5h2.55Z"/>
    <path class="cls-3" d="M140.92,312.54c-1.55,0-2.87-.42-3.96-1.27s-1.93-2.08-2.5-3.7-.87-3.57-.87-5.87.29-4.23.87-5.84,1.42-2.85,2.51-3.71c1.09-.86,2.41-1.28,3.95-1.28s2.85.43,3.95,1.28c1.1.85,1.93,2.09,2.51,3.71.58,1.62.87,3.56.87,5.84s-.29,4.25-.87,5.87-1.41,2.85-2.5,3.7-2.41,1.27-3.96,1.27ZM140.92,310.28c1.54,0,2.73-.74,3.58-2.22.85-1.48,1.28-3.6,1.28-6.34,0-1.83-.19-3.38-.58-4.67-.39-1.28-.94-2.26-1.67-2.93-.72-.67-1.59-1.01-2.61-1.01-1.52,0-2.72.75-3.57,2.25-.86,1.5-1.29,3.62-1.29,6.36,0,1.83.19,3.38.58,4.66s.94,2.25,1.66,2.91c.72.67,1.6,1,2.62,1Z"/>
    <path class="cls-3" d="M166.33,312.58c-1.32,0-2.48-.33-3.49-1-1.01-.67-1.8-1.62-2.37-2.84-.57-1.23-.85-2.68-.85-4.35s.28-3.1.85-4.33c.57-1.22,1.36-2.17,2.38-2.83,1.02-.67,2.19-1,3.52-1,1.03,0,1.84.17,2.45.51.6.34,1.06.72,1.38,1.15.32.43.57.78.75,1.06h.21v-7.79h2.43v21.09h-2.35v-2.43h-.29c-.18.29-.43.65-.76,1.09-.33.44-.8.82-1.41,1.16-.61.34-1.42.51-2.44.51ZM166.66,310.4c.98,0,1.8-.26,2.47-.77.67-.51,1.18-1.22,1.53-2.13.35-.91.52-1.96.52-3.16s-.17-2.22-.51-3.1c-.34-.89-.85-1.58-1.52-2.08-.67-.5-1.5-.75-2.49-.75s-1.89.26-2.57.79c-.68.52-1.19,1.24-1.53,2.13-.34.9-.51,1.9-.51,3.01s.17,2.15.52,3.06c.35.92.86,1.64,1.54,2.18s1.53.81,2.55.81Z"/>
    <path class="cls-3" d="M184.99,312.58c-1.52,0-2.84-.34-3.94-1.01-1.1-.68-1.95-1.62-2.54-2.84s-.89-2.64-.89-4.26.3-3.05.89-4.29c.59-1.24,1.42-2.21,2.49-2.9,1.07-.7,2.32-1.05,3.74-1.05.82,0,1.64.14,2.44.41.8.27,1.53.72,2.19,1.33s1.18,1.43,1.58,2.44c.39,1.01.59,2.25.59,3.73v1.03h-12.19v-2.1h9.72c0-.89-.18-1.69-.53-2.39s-.85-1.25-1.5-1.66c-.65-.41-1.41-.61-2.29-.61-.97,0-1.8.24-2.51.72s-1.24,1.1-1.62,1.86c-.38.76-.57,1.58-.57,2.45v1.4c0,1.2.21,2.21.62,3.03.42.83.99,1.46,1.73,1.88.74.43,1.6.64,2.58.64.64,0,1.22-.09,1.74-.27.52-.18.97-.46,1.34-.82s.67-.83.88-1.38l2.35.66c-.25.8-.66,1.5-1.25,2.1s-1.3,1.07-2.16,1.4c-.86.33-1.82.5-2.89.5Z"/>
    <path class="cls-3" d="M209.83,312.58c-1.43,0-2.68-.34-3.75-1.02-1.07-.68-1.91-1.63-2.51-2.85-.6-1.22-.9-2.65-.9-4.28s.3-3.09.9-4.31c.6-1.23,1.44-2.18,2.51-2.86,1.07-.68,2.33-1.02,3.75-1.02s2.68.34,3.75,1.02c1.07.68,1.91,1.63,2.51,2.86s.9,2.67.9,4.31-.3,3.06-.9,4.28c-.6,1.22-1.44,2.17-2.51,2.85-1.07.68-2.33,1.02-3.75,1.02ZM209.83,310.4c1.08,0,1.98-.28,2.68-.83.7-.56,1.22-1.29,1.56-2.19.34-.91.5-1.89.5-2.95s-.17-2.04-.5-2.96c-.34-.91-.85-1.65-1.56-2.21-.7-.56-1.59-.84-2.68-.84s-1.98.28-2.68.84c-.7.56-1.22,1.3-1.56,2.21s-.5,1.9-.5,2.96.17,2.04.5,2.95.85,1.64,1.56,2.19c.7.56,1.59.83,2.68.83Z"/>
    <path class="cls-3" d="M230.68,305.79v-9.35h2.43v15.82h-2.43v-2.68h-.17c-.37.8-.95,1.49-1.73,2.04-.78.56-1.77.84-2.97.84-.99,0-1.87-.22-2.64-.65-.77-.44-1.37-1.09-1.81-1.98-.44-.88-.66-2-.66-3.34v-10.05h2.43v9.89c0,1.15.32,2.07.97,2.76s1.48,1.03,2.49,1.03c.6,0,1.22-.16,1.85-.46.63-.31,1.16-.78,1.59-1.42.43-.64.64-1.45.64-2.44Z"/>
    <path class="cls-3" d="M244.43,296.44v2.06h-8.2v-2.06h8.2ZM238.63,292.65h2.43v15.08c0,.69.1,1.2.3,1.54.2.34.46.57.78.68.32.11.66.17,1.01.17.27,0,.49-.02.66-.05.17-.03.31-.06.41-.08l.49,2.18c-.17.06-.4.12-.69.19-.3.06-.67.1-1.12.1-.69,0-1.36-.15-2.01-.44-.66-.29-1.2-.74-1.63-1.35s-.64-1.37-.64-2.29v-15.74Z"/>
    <path class="cls-3" d="M258.07,305.79v-9.35h2.43v15.82h-2.43v-2.68h-.17c-.37.8-.95,1.49-1.73,2.04-.78.56-1.77.84-2.97.84-.99,0-1.87-.22-2.64-.65-.77-.44-1.37-1.09-1.81-1.98-.44-.88-.66-2-.66-3.34v-10.05h2.43v9.89c0,1.15.32,2.07.97,2.76s1.48,1.03,2.49,1.03c.6,0,1.22-.16,1.85-.46.63-.31,1.16-.78,1.59-1.42.43-.64.64-1.45.64-2.44Z"/>
    <path class="cls-3" d="M265.28,312.25v-21.09h2.43v7.79h.21c.18-.27.43-.63.75-1.06.32-.43.78-.81,1.38-1.15s1.42-.51,2.45-.51c1.33,0,2.51.33,3.52,1s1.81,1.61,2.38,2.83c.57,1.22.85,2.66.85,4.33s-.29,3.13-.85,4.35-1.36,2.17-2.37,2.84c-1.01.67-2.17,1-3.49,1-1.02,0-1.83-.17-2.44-.51-.61-.34-1.08-.73-1.41-1.16-.33-.44-.58-.8-.76-1.09h-.29v2.43h-2.35ZM267.67,304.35c0,1.19.17,2.25.52,3.16.35.91.86,1.62,1.53,2.13.67.51,1.5.77,2.47.77s1.87-.27,2.55-.81c.68-.54,1.2-1.27,1.54-2.18.35-.92.52-1.94.52-3.06s-.17-2.12-.51-3.01c-.34-.9-.85-1.61-1.53-2.13-.68-.53-1.54-.79-2.57-.79s-1.82.25-2.49.75c-.67.5-1.18,1.19-1.52,2.08-.34.89-.51,1.92-.51,3.1Z"/>
    <path class="cls-3" d="M282.95,312.25v-15.82h2.35v2.39h.17c.29-.78.81-1.42,1.57-1.91.75-.49,1.61-.73,2.55-.73.18,0,.4,0,.67.01s.47.02.61.03v2.47c-.08-.02-.27-.05-.56-.1-.29-.04-.6-.07-.92-.07-.77,0-1.45.16-2.05.48-.6.32-1.07.76-1.42,1.32s-.52,1.2-.52,1.91v10.01h-2.43Z"/>
    <path class="cls-3" d="M299.67,312.58c-1.43,0-2.68-.34-3.75-1.02-1.07-.68-1.91-1.63-2.51-2.85-.6-1.22-.9-2.65-.9-4.28s.3-3.09.9-4.31c.6-1.23,1.44-2.18,2.51-2.86,1.07-.68,2.33-1.02,3.75-1.02s2.68.34,3.75,1.02c1.07.68,1.91,1.63,2.51,2.86s.9,2.67.9,4.31-.3,3.06-.9,4.28c-.6,1.22-1.44,2.17-2.51,2.85-1.07.68-2.33,1.02-3.75,1.02ZM299.67,310.4c1.08,0,1.98-.28,2.68-.83.7-.56,1.22-1.29,1.56-2.19.34-.91.5-1.89.5-2.95s-.17-2.04-.5-2.96c-.34-.91-.85-1.65-1.56-2.21-.7-.56-1.59-.84-2.68-.84s-1.98.28-2.68.84c-.7.56-1.22,1.3-1.56,2.21s-.5,1.9-.5,2.96.17,2.04.5,2.95.85,1.64,1.56,2.19c.7.56,1.59.83,2.68.83Z"/>
    <path class="cls-3" d="M324.68,312.58c-1.32,0-2.48-.33-3.49-1-1.01-.67-1.8-1.62-2.37-2.84-.57-1.23-.85-2.68-.85-4.35s.28-3.1.85-4.33c.57-1.22,1.36-2.17,2.38-2.83,1.02-.67,2.19-1,3.52-1,1.03,0,1.84.17,2.45.51.6.34,1.06.72,1.38,1.15.32.43.57.78.75,1.06h.21v-7.79h2.43v21.09h-2.35v-2.43h-.29c-.18.29-.43.65-.76,1.09-.33.44-.8.82-1.41,1.16-.61.34-1.42.51-2.44.51ZM325.01,310.4c.98,0,1.8-.26,2.47-.77.67-.51,1.18-1.22,1.53-2.13.35-.91.52-1.96.52-3.16s-.17-2.22-.51-3.1c-.34-.89-.85-1.58-1.52-2.08-.67-.5-1.5-.75-2.49-.75s-1.89.26-2.57.79c-.68.52-1.19,1.24-1.53,2.13-.34.9-.51,1.9-.51,3.01s.17,2.15.52,3.06c.35.92.86,1.64,1.54,2.18s1.53.81,2.55.81Z"/>
    <path class="cls-3" d="M343.34,312.58c-1.52,0-2.84-.34-3.94-1.01-1.1-.68-1.95-1.62-2.54-2.84s-.89-2.64-.89-4.26.3-3.05.89-4.29c.59-1.24,1.42-2.21,2.49-2.9,1.07-.7,2.32-1.05,3.74-1.05.82,0,1.64.14,2.44.41.8.27,1.53.72,2.19,1.33s1.18,1.43,1.58,2.44c.39,1.01.59,2.25.59,3.73v1.03h-12.19v-2.1h9.72c0-.89-.18-1.69-.53-2.39s-.85-1.25-1.5-1.66c-.65-.41-1.41-.61-2.29-.61-.97,0-1.8.24-2.51.72s-1.24,1.1-1.62,1.86c-.38.76-.57,1.58-.57,2.45v1.4c0,1.2.21,2.21.62,3.03.42.83.99,1.46,1.73,1.88.74.43,1.6.64,2.58.64.64,0,1.22-.09,1.74-.27.52-.18.97-.46,1.34-.82s.67-.83.88-1.38l2.35.66c-.25.8-.66,1.5-1.25,2.1s-1.3,1.07-2.16,1.4c-.86.33-1.82.5-2.89.5Z"/>
    <path class="cls-3" d="M361.71,312.25v-1.85l6.96-7.62c.82-.89,1.49-1.67,2.02-2.33.53-.66.92-1.29,1.18-1.88.26-.59.39-1.2.39-1.85,0-.74-.18-1.38-.53-1.93-.35-.54-.84-.96-1.45-1.26-.61-.29-1.3-.44-2.06-.44-.81,0-1.52.17-2.12.5-.6.33-1.06.8-1.39,1.4-.33.6-.49,1.3-.49,2.1h-2.43c0-1.24.28-2.32.85-3.25.57-.93,1.35-1.66,2.33-2.18.98-.52,2.09-.78,3.32-.78s2.33.26,3.29.78c.95.52,1.7,1.23,2.25,2.11s.81,1.87.81,2.96c0,.78-.14,1.53-.42,2.27-.28.74-.76,1.56-1.44,2.46-.68.9-1.63,2-2.84,3.3l-4.74,5.07v.17h9.8v2.27h-13.31Z"/>
    <path class="cls-3" d="M386.14,312.54c-1.55,0-2.87-.42-3.96-1.27s-1.93-2.08-2.5-3.7-.87-3.57-.87-5.87.29-4.23.87-5.84,1.42-2.85,2.51-3.71c1.09-.86,2.41-1.28,3.95-1.28s2.85.43,3.95,1.28c1.1.85,1.93,2.09,2.51,3.71.58,1.62.87,3.56.87,5.84s-.29,4.25-.87,5.87-1.41,2.85-2.5,3.7-2.41,1.27-3.96,1.27ZM386.14,310.28c1.54,0,2.73-.74,3.58-2.22.85-1.48,1.28-3.6,1.28-6.34,0-1.83-.19-3.38-.58-4.67-.39-1.28-.94-2.26-1.67-2.93-.72-.67-1.59-1.01-2.61-1.01-1.52,0-2.72.75-3.57,2.25-.86,1.5-1.29,3.62-1.29,6.36,0,1.83.19,3.38.58,4.66s.94,2.25,1.66,2.91c.72.67,1.6,1,2.62,1Z"/>
    <path class="cls-3" d="M397.38,312.25v-1.85l6.96-7.62c.82-.89,1.49-1.67,2.02-2.33.53-.66.92-1.29,1.18-1.88.26-.59.39-1.2.39-1.85,0-.74-.18-1.38-.53-1.93-.35-.54-.84-.96-1.45-1.26-.61-.29-1.3-.44-2.06-.44-.81,0-1.52.17-2.12.5-.6.33-1.06.8-1.39,1.4-.33.6-.49,1.3-.49,2.1h-2.43c0-1.24.28-2.32.85-3.25.57-.93,1.35-1.66,2.33-2.18.98-.52,2.09-.78,3.32-.78s2.33.26,3.29.78c.95.52,1.7,1.23,2.25,2.11s.81,1.87.81,2.96c0,.78-.14,1.53-.42,2.27-.28.74-.76,1.56-1.44,2.46-.68.9-1.63,2-2.84,3.3l-4.74,5.07v.17h9.8v2.27h-13.31Z"/>
    <path class="cls-3" d="M413.98,307.93v-2.1l9.27-14.67h1.52v3.25h-1.03l-7,11.08v.17h12.48v2.27h-15.24ZM423.91,312.25v-21.09h2.43v21.09h-2.43Z"/>
  </g>
  <g>
    <g>
      <path class="cls-3" d="M750.49,196.8c-19.48,0-35.32-15.84-35.32-35.32s15.85-35.32,35.32-35.32,35.32,15.84,35.32,35.32-15.85,35.32-35.32,35.32ZM750.49,132.71c-15.86,0-28.76,12.9-28.76,28.76s12.9,28.76,28.76,28.76,28.76-12.9,28.76-28.76-12.9-28.76-28.76-28.76Z"/>
      <path class="cls-3" d="M732.31,173.83c-5.1,0-10.02-1.06-14.63-3.16-1.65-.75-2.38-2.7-1.62-4.34.75-1.65,2.7-2.38,4.34-1.62,3.75,1.71,7.75,2.57,11.91,2.57,15.86,0,28.76-12.9,28.76-28.76,0-1.65-.14-3.3-.42-4.91-.31-1.79.89-3.48,2.68-3.79,1.78-.31,3.48.89,3.79,2.68.34,1.97.51,4,.51,6.02,0,19.48-15.85,35.32-35.32,35.32Z"/>
      <path class="cls-3" d="M780.88,173.83c-10.29,0-20.05-4.48-26.77-12.28-1.18-1.37-1.03-3.44.34-4.62,1.37-1.18,3.44-1.03,4.62.35,5.48,6.36,13.42,10,21.8,10,1.81,0,3.28,1.47,3.28,3.28s-1.47,3.28-3.28,3.28Z"/>
    </g>
    <path class="cls-3" d="M705.86,283.2c-1.81,0-3.28-1.47-3.28-3.28v-55.19c0-11.97,9.74-21.72,21.72-21.72h52.39c1.81,0,3.28,1.47,3.28,3.28s-1.47,3.28-3.28,3.28h-52.39c-8.36,0-15.16,6.8-15.16,15.16v55.19c0,1.81-1.47,3.28-3.28,3.28Z"/>
    <path class="cls-3" d="M723.97,283.2c-1.81,0-3.28-1.47-3.28-3.28v-32.68c0-1.81,1.47-3.28,3.28-3.28s3.28,1.47,3.28,3.28v32.68c0,1.81-1.47,3.28-3.28,3.28Z"/>
    <path class="cls-3" d="M777,283.2c-1.81,0-3.28-1.47-3.28-3.28v-48.9c0-1.81,1.47-3.28,3.28-3.28h3.53c26.56,0,48.17-21.61,48.17-48.17v-50.13c0-1.81,1.47-3.28,3.28-3.28s3.28,1.47,3.28,3.28v50.13c0,30.18-24.55,54.73-54.73,54.73h-.25v45.62c0,1.81-1.47,3.28-3.28,3.28Z"/>
    <path class="cls-3" d="M784.33,209.58h-29.65c-1.81,0-3.28-1.47-3.28-3.28s1.47-3.28,3.28-3.28h29.65c14.04,0,25.46-11.42,25.46-25.46v-48.12c0-1.81,1.47-3.28,3.28-3.28s3.28,1.47,3.28,3.28v48.12c0,17.66-14.36,32.02-32.02,32.02Z"/>
    <path class="cls-3" d="M836.7,127.11c-1.15,0-2.27-.61-2.87-1.69-.88-1.58-.31-3.58,1.28-4.46,7.98-4.42,12.93-12.83,12.93-21.94v-1.59c0-13.82-11.25-25.07-25.07-25.07s-25.07,11.25-25.07,25.07v1.59c0,8.34,4.13,16.11,11.05,20.78,1.5,1.01,1.89,3.05.88,4.55-1.01,1.5-3.05,1.9-4.55.88-8.72-5.9-13.93-15.7-13.93-26.22v-1.59c0-17.44,14.19-31.63,31.63-31.63s31.63,14.19,31.63,31.63v1.59c0,11.49-6.25,22.1-16.31,27.68-.5.28-1.05.41-1.59.41Z"/>
    <path class="cls-3" d="M836.7,130.65h-29.93c-1.81,0-3.28-1.47-3.28-3.28v-1.69c0-10.06,8.18-18.24,18.24-18.24s18.24,8.18,18.24,18.24v1.69c0,1.81-1.47,3.28-3.28,3.28ZM810.16,124.09h23.15c-.78-5.69-5.67-10.09-11.58-10.09s-10.8,4.4-11.57,10.09Z"/>
    <path class="cls-3" d="M822.97,72.35c-1.81,0-3.28-1.47-3.28-3.28v-30.6c0-1.81,1.47-3.28,3.28-3.28s3.28,1.47,3.28,3.28v30.6c0,1.81-1.47,3.28-3.28,3.28Z"/>
  </g>
</svg>