<?xml version="1.0" encoding="UTF-8"?>
<svg id="Camada_2" data-name="Camada 2" xmlns="http://www.w3.org/2000/svg" viewBox="0 0 1168.18 639.16">
  <defs>
    <style>
      .cls-1 {
        letter-spacing: -.02em;
      }

      .cls-2 {
        letter-spacing: -.02em;
      }

      .cls-3, .cls-4 {
        fill: #fd0;
      }

      .cls-5 {
        font-family: Inter-Regular, Inter;
      }

      .cls-6 {
        letter-spacing: -.02em;
      }

      .cls-7 {
        fill: none;
        stroke: #fdb71a;
        stroke-linecap: round;
        stroke-linejoin: round;
        stroke-width: 8px;
      }

      .cls-8, .cls-9, .cls-10 {
        fill: #fdb71a;
      }

      .cls-11, .cls-4 {
        opacity: .2;
      }

      .cls-12 {
        letter-spacing: 0em;
      }

      .cls-13 {
        font-family: Inter-Bold, Inter;
        font-weight: 700;
      }

      .cls-9 {
        font-size: 29px;
      }

      .cls-14 {
        letter-spacing: .03em;
      }

      .cls-10 {
        font-family: Inter-SemiBold, Inter;
        font-size: 132px;
        font-weight: 600;
      }

      .cls-15 {
        letter-spacing: -.03em;
      }
    </style>
  </defs>
  <rect class="cls-4" x="21.45" y="25.39" width="1121.4" height="585" rx="80.1" ry="80.1"/>
  <text class="cls-10" transform="translate(392.48 195.29)"><tspan x="0" y="0">17 milhões</tspan></text>
  <text class="cls-9" transform="translate(549.51 251.62)"><tspan class="cls-13"><tspan x="0" y="0">passagei</tspan><tspan class="cls-15" x="128.16" y="0">r</tspan><tspan class="cls-12" x="139.27" y="0">os t</tspan><tspan class="cls-2" x="191.35" y="0">r</tspan><tspan x="202.76" y="0">anspo</tspan><tspan class="cls-14" x="290.05" y="0">r</tspan><tspan x="302.69" y="0">tados num mês</tspan></tspan><tspan class="cls-5"><tspan x="289.59" y="34.8">outub</tspan><tspan class="cls-1" x="369.14" y="34.8">r</tspan><tspan x="379.44" y="34.8">o de 20</tspan><tspan class="cls-6" x="483.61" y="34.8">2</tspan><tspan x="500.71" y="34.8">4</tspan></tspan></text>
  <g>
    <g>
      <path class="cls-8" d="M120.2,209.14c-18.32,0-33.23-14.91-33.23-33.23s14.91-33.23,33.23-33.23,33.23,14.91,33.23,33.23-14.91,33.23-33.23,33.23ZM120.2,149.24c-14.71,0-26.67,11.96-26.67,26.67s11.96,26.67,26.67,26.67,26.67-11.96,26.67-26.67-11.96-26.67-26.67-26.67Z"/>
      <path class="cls-8" d="M103.22,187.68c-4.8,0-9.43-1-13.76-2.98-1.65-.75-2.38-2.7-1.62-4.34.75-1.65,2.7-2.38,4.34-1.62,3.48,1.58,7.19,2.39,11.04,2.39,14.71,0,26.67-11.96,26.67-26.67,0-1.53-.13-3.06-.39-4.55-.31-1.78.89-3.48,2.68-3.79,1.79-.31,3.48.89,3.79,2.68.32,1.86.48,3.76.48,5.66,0,18.32-14.91,33.23-33.23,33.23Z"/>
      <path class="cls-8" d="M148.62,187.68c-9.68,0-18.86-4.21-25.19-11.55-1.18-1.37-1.03-3.44.34-4.62,1.37-1.18,3.44-1.03,4.62.35,5.08,5.89,12.45,9.28,20.22,9.28,1.81,0,3.28,1.47,3.28,3.28s-1.47,3.28-3.28,3.28Z"/>
    </g>
    <path class="cls-8" d="M78.49,289.9c-1.81,0-3.28-1.47-3.28-3.28v-51.58c0-11.31,9.2-20.51,20.51-20.51h48.97c1.81,0,3.28,1.47,3.28,3.28s-1.47,3.28-3.28,3.28h-48.97c-7.69,0-13.95,6.26-13.95,13.95v51.58c0,1.81-1.47,3.28-3.28,3.28Z"/>
    <path class="cls-8" d="M95.42,289.9c-1.81,0-3.28-1.47-3.28-3.28v-30.55c0-1.81,1.47-3.28,3.28-3.28s3.28,1.47,3.28,3.28v30.55c0,1.81-1.47,3.28-3.28,3.28Z"/>
    <path class="cls-8" d="M144.98,289.9c-1.81,0-3.28-1.47-3.28-3.28v-45.71c0-1.81,1.47-3.28,3.28-3.28h3.3c24.71,0,44.81-20.1,44.81-44.81v-46.86c0-1.81,1.47-3.28,3.28-3.28s3.28,1.47,3.28,3.28v46.86c0,28.33-23.04,51.37-51.37,51.37h-.02v42.43c0,1.81-1.47,3.28-3.28,3.28Z"/>
    <path class="cls-8" d="M151.84,221.09h-27.71c-1.81,0-3.28-1.47-3.28-3.28s1.47-3.28,3.28-3.28h27.71c13,0,23.58-10.58,23.58-23.58v-44.98c0-1.81,1.47-3.28,3.28-3.28s3.28,1.47,3.28,3.28v44.98c0,16.62-13.52,30.14-30.14,30.14Z"/>
    <path class="cls-8" d="M200.79,144c-1.15,0-2.27-.61-2.87-1.69-.88-1.58-.31-3.58,1.28-4.46,7.39-4.1,11.98-11.88,11.98-20.32v-1.49c0-12.8-10.42-23.22-23.22-23.22s-23.22,10.42-23.22,23.22v1.49c0,7.72,3.82,14.92,10.23,19.25,1.5,1.01,1.89,3.05.88,4.55-1.01,1.5-3.05,1.9-4.55.88-8.21-5.55-13.12-14.78-13.12-24.68v-1.49c0-16.42,13.36-29.78,29.78-29.78s29.78,13.36,29.78,29.78v1.49c0,10.82-5.88,20.81-15.36,26.06-.5.28-1.05.41-1.59.41Z"/>
    <path class="cls-8" d="M200.79,147.31h-27.97c-1.81,0-3.28-1.47-3.28-3.28v-1.58c0-9.52,7.75-17.26,17.27-17.26s17.26,7.75,17.26,17.26v1.58c0,1.81-1.47,3.28-3.28,3.28ZM176.23,140.75h21.14c-.82-5.1-5.25-9-10.57-9s-9.75,3.91-10.57,9Z"/>
    <path class="cls-8" d="M187.96,92.82c-1.81,0-3.28-1.47-3.28-3.28v-28.6c0-1.81,1.47-3.28,3.28-3.28s3.28,1.47,3.28,3.28v28.6c0,1.81-1.47,3.28-3.28,3.28Z"/>
  </g>
  <g>
    <g>
      <path class="cls-8" d="M193.63,312.12c-18.32,0-33.23-14.91-33.23-33.23s14.91-33.23,33.23-33.23,33.23,14.91,33.23,33.23-14.91,33.23-33.23,33.23ZM193.63,252.21c-14.71,0-26.67,11.96-26.67,26.67s11.96,26.67,26.67,26.67,26.67-11.96,26.67-26.67-11.96-26.67-26.67-26.67Z"/>
      <path class="cls-8" d="M176.65,290.65c-4.8,0-9.43-1-13.76-2.98-1.65-.75-2.38-2.7-1.62-4.34.75-1.65,2.7-2.38,4.34-1.62,3.47,1.58,7.19,2.39,11.04,2.39,14.71,0,26.67-11.96,26.67-26.67,0-1.53-.13-3.06-.39-4.55-.31-1.79.89-3.48,2.68-3.79,1.78-.31,3.48.89,3.79,2.68.32,1.86.48,3.76.48,5.66,0,18.32-14.91,33.23-33.23,33.23Z"/>
      <path class="cls-8" d="M222.05,290.65c-9.68,0-18.86-4.21-25.19-11.55-1.18-1.37-1.03-3.44.34-4.62,1.37-1.18,3.44-1.03,4.62.35,5.08,5.89,12.45,9.28,20.22,9.28,1.81,0,3.28,1.47,3.28,3.28s-1.47,3.28-3.28,3.28Z"/>
    </g>
    <path class="cls-8" d="M151.92,392.88c-1.81,0-3.28-1.47-3.28-3.28v-51.58c0-11.31,9.2-20.51,20.51-20.51h48.97c1.81,0,3.28,1.47,3.28,3.28s-1.47,3.28-3.28,3.28h-48.97c-7.69,0-13.95,6.26-13.95,13.95v51.58c0,1.81-1.47,3.28-3.28,3.28Z"/>
    <path class="cls-8" d="M168.85,392.88c-1.81,0-3.28-1.47-3.28-3.28v-30.55c0-1.81,1.47-3.28,3.28-3.28s3.28,1.47,3.28,3.28v30.55c0,1.81-1.47,3.28-3.28,3.28Z"/>
    <path class="cls-8" d="M218.41,392.88c-1.81,0-3.28-1.47-3.28-3.28v-45.71c0-1.81,1.47-3.28,3.28-3.28h3.3c24.71,0,44.81-20.1,44.81-44.81v-46.86c0-1.81,1.47-3.28,3.28-3.28s3.28,1.47,3.28,3.28v46.86c0,28.33-23.04,51.37-51.37,51.37h-.02v42.43c0,1.81-1.47,3.28-3.28,3.28Z"/>
    <path class="cls-8" d="M225.27,324.06h-27.71c-1.81,0-3.28-1.47-3.28-3.28s1.47-3.28,3.28-3.28h27.71c13,0,23.58-10.58,23.58-23.58v-44.98c0-1.81,1.47-3.28,3.28-3.28s3.28,1.47,3.28,3.28v44.98c0,16.62-13.52,30.14-30.14,30.14Z"/>
    <path class="cls-8" d="M274.22,246.98c-1.15,0-2.27-.61-2.87-1.69-.88-1.58-.31-3.58,1.28-4.46,7.39-4.1,11.98-11.88,11.98-20.32v-1.49c0-12.8-10.42-23.22-23.22-23.22s-23.22,10.42-23.22,23.22v1.49c0,7.72,3.82,14.92,10.23,19.25,1.5,1.02,1.89,3.05.88,4.55-1.01,1.5-3.05,1.89-4.55.88-8.21-5.55-13.11-14.78-13.11-24.68v-1.49c0-16.42,13.36-29.78,29.78-29.78s29.78,13.36,29.78,29.78v1.49c0,10.82-5.88,20.81-15.36,26.06-.5.28-1.05.41-1.59.41Z"/>
    <path class="cls-8" d="M274.22,250.28h-27.97c-1.81,0-3.28-1.47-3.28-3.28v-1.58c0-9.52,7.74-17.26,17.26-17.26s17.27,7.75,17.27,17.26v1.58c0,1.81-1.47,3.28-3.28,3.28ZM249.66,243.73h21.14c-.82-5.1-5.25-9-10.57-9s-9.75,3.91-10.57,9Z"/>
    <path class="cls-8" d="M261.39,195.8c-1.81,0-3.28-1.47-3.28-3.28v-28.6c0-1.81,1.47-3.28,3.28-3.28s3.28,1.47,3.28,3.28v28.6c0,1.81-1.47,3.28-3.28,3.28Z"/>
  </g>
  <g>
    <path class="cls-4" d="M52.11,428.94c-.2.04-.4.09-.6.14.2-.05.4-.09.6-.14Z"/>
    <path class="cls-4" d="M62.02,427.44c-.16.01-.33.03-.49.05.16-.02.33-.04.49-.05Z"/>
    <path class="cls-4" d="M58.99,427.77c-.3.04-.61.08-.91.12.3-.04.61-.08.91-.12Z"/>
    <path class="cls-4" d="M1116.93,333.42c-.23.03-.46.07-.69.11.23-.04.46-.08.69-.11Z"/>
    <path class="cls-4" d="M1099.34,337.72c-.25.08-.49.16-.74.24.24-.08.49-.16.74-.24Z"/>
    <path class="cls-4" d="M55.78,428.24c-.25.04-.49.08-.74.12.24-.04.49-.08.74-.12Z"/>
    <path class="cls-4" d="M1109.07,334.95c-.29.07-.58.14-.86.21.29-.07.58-.14.86-.21Z"/>
    <path class="cls-4" d="M1114.96,333.74c-.26.05-.53.1-.79.14.26-.05.53-.1.79-.14Z"/>
    <path class="cls-4" d="M65.84,427.18c-.27.01-.54.02-.81.04.27-.02.54-.02.81-.04Z"/>
    <path class="cls-4" d="M78.98,427.52c-.29-.03-.58-.05-.86-.08.29.03.58.05.86.08Z"/>
    <path class="cls-4" d="M1105.17,335.95c-.28.08-.56.16-.84.24.28-.08.56-.16.84-.24Z"/>
    <path class="cls-4" d="M75.88,427.27c-.28-.02-.56-.04-.84-.05.28.02.56.04.84.05Z"/>
    <path class="cls-4" d="M1112.99,334.1c-.28.05-.56.11-.83.17.28-.06.55-.11.83-.17Z"/>
    <path class="cls-4" d="M1097.33,338.4c-.2.07-.4.14-.6.21.2-.07.4-.14.6-.21Z"/>
    <path class="cls-4" d="M72.05,427.1c-.1,0-.2,0-.3,0,.1,0,.2,0,.3,0Z"/>
    <path class="cls-4" d="M1111.03,334.51c-.28.06-.57.13-.85.19.28-.06.57-.13.85-.19Z"/>
    <path class="cls-4" d="M1123.61,332.71c-.26.02-.51.03-.77.05.26-.02.51-.03.77-.05Z"/>
    <path class="cls-4" d="M33.87,435.65c-.22.12-.43.25-.64.37.21-.12.43-.25.64-.37Z"/>
    <path class="cls-4" d="M36.87,434.09c-.16.08-.32.15-.48.23.16-.08.32-.15.48-.23Z"/>
    <path class="cls-4" d="M1103.22,336.51c-.27.08-.55.16-.82.24.27-.08.55-.16.82-.24Z"/>
    <path class="cls-4" d="M68.12,427.1c.3,0,.61-.01.91-.02-.3,0-.61.01-.91.02Z"/>
    <path class="cls-4" d="M1107.11,335.43c-.29.07-.57.15-.85.22.28-.08.57-.15.85-.22Z"/>
    <path class="cls-4" d="M1125.63,332.61c-.27,0-.55.02-.82.03.27-.01.55-.02.82-.03Z"/>
    <path class="cls-4" d="M49.18,429.64c-.29.08-.59.15-.88.23.29-.08.59-.16.88-.23Z"/>
    <path class="cls-4" d="M46.03,430.52c-.21.06-.42.12-.63.19.21-.07.42-.12.63-.19Z"/>
    <path class="cls-4" d="M39.87,432.74c-.27.11-.55.23-.82.35.27-.12.54-.23.82-.35Z"/>
    <path class="cls-4" d="M1101.29,337.09c-.27.08-.53.17-.8.25.27-.08.53-.17.8-.25Z"/>
    <path class="cls-4" d="M1118.91,333.15c-.07,0-.14.02-.2.03.07,0,.14-.02.2-.03Z"/>
    <path class="cls-4" d="M42.63,431.65c-.22.08-.44.17-.65.25.22-.08.43-.17.65-.25Z"/>
    <path class="cls-4" d="M1121.52,332.87c-.22.02-.43.04-.65.06.22-.02.43-.04.65-.06Z"/>
    <g class="cls-11">
      <path class="cls-3" d="M1106.26,335.66c-.36.1-.73.2-1.09.3.36-.1.73-.2,1.09-.3Z"/>
    </g>
    <path class="cls-4" d="M1106.26,335.66c-.36.1-.73.2-1.09.3.36-.1.73-.2,1.09-.3Z"/>
    <g class="cls-11">
      <path class="cls-3" d="M1108.21,335.16c-.36.09-.73.18-1.09.27.36-.09.73-.18,1.09-.27Z"/>
    </g>
    <path class="cls-4" d="M1108.21,335.16c-.36.09-.73.18-1.09.27.36-.09.73-.18,1.09-.27Z"/>
    <g class="cls-11">
      <path class="cls-3" d="M1110.17,334.7c-.37.08-.74.17-1.1.25.37-.09.73-.17,1.1-.25Z"/>
    </g>
    <path class="cls-4" d="M1110.17,334.7c-.37.08-.74.17-1.1.25.37-.09.73-.17,1.1-.25Z"/>
    <g class="cls-11">
      <path class="cls-3" d="M1122.84,332.76c-.44.03-.88.07-1.32.11.44-.04.88-.08,1.32-.11Z"/>
    </g>
    <path class="cls-4" d="M1122.84,332.76c-.44.03-.88.07-1.32.11.44-.04.88-.08,1.32-.11Z"/>
    <g class="cls-11">
      <path class="cls-3" d="M1112.16,334.27c-.38.08-.76.15-1.13.24.38-.08.76-.16,1.13-.24Z"/>
    </g>
    <path class="cls-4" d="M1112.16,334.27c-.38.08-.76.15-1.13.24.38-.08.76-.16,1.13-.24Z"/>
    <g class="cls-11">
      <path class="cls-3" d="M1120.87,332.93c-.65.07-1.31.14-1.97.22.66-.08,1.31-.16,1.97-.22Z"/>
    </g>
    <path class="cls-4" d="M1120.87,332.93c-.65.07-1.31.14-1.97.22.66-.08,1.31-.16,1.97-.22Z"/>
    <g class="cls-11">
      <path class="cls-3" d="M1126.77,332.57c-.38,0-.76.02-1.14.03.38-.01.76-.03,1.14-.03Z"/>
    </g>
    <path class="cls-4" d="M1126.77,332.57c-.38,0-.76.02-1.14.03.38-.01.76-.03,1.14-.03Z"/>
    <g class="cls-11">
      <path class="cls-3" d="M1124.81,332.64c-.4.02-.8.04-1.2.07.4-.03.8-.05,1.2-.07Z"/>
    </g>
    <path class="cls-4" d="M1124.81,332.64c-.4.02-.8.04-1.2.07.4-.03.8-.05,1.2-.07Z"/>
    <g class="cls-11">
      <path class="cls-3" d="M1114.17,333.88c-.39.07-.78.14-1.18.22.39-.08.78-.15,1.18-.22Z"/>
    </g>
    <path class="cls-4" d="M1114.17,333.88c-.39.07-.78.14-1.18.22.39-.08.78-.15,1.18-.22Z"/>
    <g class="cls-11">
      <path class="cls-3" d="M1116.24,333.53c-.43.07-.85.13-1.28.21.43-.07.85-.14,1.28-.21Z"/>
    </g>
    <path class="cls-4" d="M1116.24,333.53c-.43.07-.85.13-1.28.21.43-.07.85-.14,1.28-.21Z"/>
    <g class="cls-11">
      <path class="cls-3" d="M1118.7,333.18c-.59.08-1.18.16-1.77.24.59-.09,1.18-.17,1.77-.24Z"/>
    </g>
    <path class="cls-4" d="M1118.7,333.18c-.59.08-1.18.16-1.77.24.59-.09,1.18-.17,1.77-.24Z"/>
    <g class="cls-11">
      <path class="cls-3" d="M1096.73,338.61c-.62.22-1.24.44-1.85.67.61-.23,1.23-.45,1.85-.67Z"/>
    </g>
    <path class="cls-4" d="M1096.73,338.61c-.62.22-1.24.44-1.85.67.61-.23,1.23-.45,1.85-.67Z"/>
    <g class="cls-11">
      <path class="cls-3" d="M41.98,431.9c-.71.27-1.41.55-2.11.84.7-.29,1.4-.57,2.11-.84Z"/>
    </g>
    <path class="cls-4" d="M41.98,431.9c-.71.27-1.41.55-2.11.84.7-.29,1.4-.57,2.11-.84Z"/>
    <g class="cls-11">
      <path class="cls-3" d="M45.41,430.71c-.93.3-1.86.61-2.77.94.91-.33,1.84-.65,2.77-.94Z"/>
    </g>
    <path class="cls-4" d="M45.41,430.71c-.93.3-1.86.61-2.77.94.91-.33,1.84-.65,2.77-.94Z"/>
    <g class="cls-11">
      <path class="cls-3" d="M48.3,429.87c-.76.21-1.51.42-2.26.65.75-.23,1.5-.45,2.26-.65Z"/>
    </g>
    <path class="cls-4" d="M48.3,429.87c-.76.21-1.51.42-2.26.65.75-.23,1.5-.45,2.26-.65Z"/>
    <g class="cls-11">
      <path class="cls-3" d="M51.51,429.07c-.78.17-1.56.36-2.34.56.77-.2,1.55-.39,2.34-.56Z"/>
    </g>
    <path class="cls-4" d="M51.51,429.07c-.78.17-1.56.36-2.34.56.77-.2,1.55-.39,2.34-.56Z"/>
    <g class="cls-11">
      <path class="cls-3" d="M39.05,433.09c-.74.32-1.46.65-2.18,1,.72-.35,1.44-.68,2.18-1Z"/>
    </g>
    <path class="cls-4" d="M39.05,433.09c-.74.32-1.46.65-2.18,1,.72-.35,1.44-.68,2.18-1Z"/>
    <g class="cls-11">
      <path class="cls-3" d="M55.05,428.36c-.98.17-1.96.36-2.93.57.97-.21,1.95-.4,2.93-.57Z"/>
    </g>
    <path class="cls-4" d="M55.05,428.36c-.98.17-1.96.36-2.93.57.97-.21,1.95-.4,2.93-.57Z"/>
    <g class="cls-11">
      <path class="cls-3" d="M101.55,610.39h961.2c44.24,0,80.1-35.86,80.1-80.1v-195.79c-5.17-1.46-10.59-2.03-16.08-1.93-.38,0-.76.02-1.14.03-.27,0-.55.02-.82.03-.4.02-.8.04-1.2.07-.26.02-.51.03-.77.05-.44.03-.88.07-1.32.11-.22.02-.43.04-.65.06-.65.07-1.31.14-1.97.22-.07,0-.14.02-.2.03-.59.08-1.18.16-1.77.24-.23.03-.46.07-.69.11-.43.07-.85.13-1.28.21-.26.05-.53.1-.79.14-.39.07-.78.14-1.18.22-.28.05-.56.11-.83.17-.38.08-.76.15-1.13.24-.28.06-.57.13-.85.19-.37.08-.74.17-1.1.25-.29.07-.58.14-.86.21-.36.09-.73.18-1.09.27-.29.07-.57.15-.85.22-.36.1-.73.2-1.09.3-.28.08-.56.16-.84.24-.37.1-.73.21-1.1.32-.27.08-.55.16-.82.24-.37.11-.74.23-1.11.34-.27.08-.53.17-.8.25-.39.12-.77.25-1.15.38-.25.08-.49.16-.74.24-.43.14-.85.29-1.27.44-.2.07-.4.14-.6.21-.62.22-1.24.44-1.85.67-18.84,6.95-36.97,16.97-56.94,18.99-35.97,3.63-69.91-19.25-106.07-19.55-35.15-.29-66.5,20.45-99.72,31.93-42.42,14.67-89.97,14.01-131.97-1.82-27.5-10.36-53.22-27.12-82.44-30.18-73.95-7.75-131.96,72.71-206.27,75.35-28.27,1.01-55.87-9.6-84.16-9.74-58.51-.29-111.27,43.74-169.65,39.8-25.8-1.74-50.11-12.84-75.75-16.22-.97-.13-1.95-.24-2.93-.33-.29-.03-.58-.05-.86-.08-.74-.07-1.49-.12-2.24-.17-.28-.02-.56-.04-.84-.05-.99-.05-1.99-.1-2.99-.12-.1,0-.2,0-.3,0-.9-.02-1.81-.02-2.72,0-.3,0-.61.01-.91.02-.76.02-1.52.04-2.29.08-.27.01-.54.02-.81.04-1,.06-2.01.13-3.01.22-.16.01-.33.03-.49.05-.85.08-1.69.18-2.53.28-.3.04-.61.08-.91.12-.77.11-1.54.22-2.3.35-.25.04-.49.08-.74.12-.98.17-1.96.36-2.93.57-.2.04-.4.09-.6.14-.78.17-1.56.36-2.34.56-.29.08-.59.15-.88.23-.76.21-1.51.42-2.26.65-.21.06-.42.12-.63.19-.93.3-1.86.61-2.77.94-.22.08-.44.17-.65.25-.71.27-1.41.55-2.11.84-.27.11-.55.23-.82.35-.74.32-1.46.65-2.18,1-.16.08-.32.15-.48.23-.86.43-1.7.87-2.53,1.34-.22.12-.43.25-.64.37-.63.36-1.25.74-1.86,1.13-3.7,2.36-7.06,5.14-9.91,8.41v84.72c0,44.24,35.86,80.1,80.1,80.1Z"/>
    </g>
    <path class="cls-4" d="M101.55,610.39h961.2c44.24,0,80.1-35.86,80.1-80.1v-195.79c-5.17-1.46-10.59-2.03-16.08-1.93-.38,0-.76.02-1.14.03-.27,0-.55.02-.82.03-.4.02-.8.04-1.2.07-.26.02-.51.03-.77.05-.44.03-.88.07-1.32.11-.22.02-.43.04-.65.06-.65.07-1.31.14-1.97.22-.07,0-.14.02-.2.03-.59.08-1.18.16-1.77.24-.23.03-.46.07-.69.11-.43.07-.85.13-1.28.21-.26.05-.53.1-.79.14-.39.07-.78.14-1.18.22-.28.05-.56.11-.83.17-.38.08-.76.15-1.13.24-.28.06-.57.13-.85.19-.37.08-.74.17-1.1.25-.29.07-.58.14-.86.21-.36.09-.73.18-1.09.27-.29.07-.57.15-.85.22-.36.1-.73.2-1.09.3-.28.08-.56.16-.84.24-.37.1-.73.21-1.1.32-.27.08-.55.16-.82.24-.37.11-.74.23-1.11.34-.27.08-.53.17-.8.25-.39.12-.77.25-1.15.38-.25.08-.49.16-.74.24-.43.14-.85.29-1.27.44-.2.07-.4.14-.6.21-.62.22-1.24.44-1.85.67-18.84,6.95-36.97,16.97-56.94,18.99-35.97,3.63-69.91-19.25-106.07-19.55-35.15-.29-66.5,20.45-99.72,31.93-42.42,14.67-89.97,14.01-131.97-1.82-27.5-10.36-53.22-27.12-82.44-30.18-73.95-7.75-131.96,72.71-206.27,75.35-28.27,1.01-55.87-9.6-84.16-9.74-58.51-.29-111.27,43.74-169.65,39.8-25.8-1.74-50.11-12.84-75.75-16.22-.97-.13-1.95-.24-2.93-.33-.29-.03-.58-.05-.86-.08-.74-.07-1.49-.12-2.24-.17-.28-.02-.56-.04-.84-.05-.99-.05-1.99-.1-2.99-.12-.1,0-.2,0-.3,0-.9-.02-1.81-.02-2.72,0-.3,0-.61.01-.91.02-.76.02-1.52.04-2.29.08-.27.01-.54.02-.81.04-1,.06-2.01.13-3.01.22-.16.01-.33.03-.49.05-.85.08-1.69.18-2.53.28-.3.04-.61.08-.91.12-.77.11-1.54.22-2.3.35-.25.04-.49.08-.74.12-.98.17-1.96.36-2.93.57-.2.04-.4.09-.6.14-.78.17-1.56.36-2.34.56-.29.08-.59.15-.88.23-.76.21-1.51.42-2.26.65-.21.06-.42.12-.63.19-.93.3-1.86.61-2.77.94-.22.08-.44.17-.65.25-.71.27-1.41.55-2.11.84-.27.11-.55.23-.82.35-.74.32-1.46.65-2.18,1-.16.08-.32.15-.48.23-.86.43-1.7.87-2.53,1.34-.22.12-.43.25-.64.37-.63.36-1.25.74-1.86,1.13-3.7,2.36-7.06,5.14-9.91,8.41v84.72c0,44.24,35.86,80.1,80.1,80.1Z"/>
    <g class="cls-11">
      <path class="cls-3" d="M1104.32,336.19c-.37.1-.73.21-1.1.32.37-.11.73-.21,1.1-.32Z"/>
    </g>
    <path class="cls-4" d="M1104.32,336.19c-.37.1-.73.21-1.1.32.37-.11.73-.21,1.1-.32Z"/>
    <g class="cls-11">
      <path class="cls-3" d="M36.39,434.32c-.86.43-1.7.87-2.53,1.34.83-.46,1.67-.91,2.53-1.34Z"/>
    </g>
    <path class="cls-4" d="M36.39,434.32c-.86.43-1.7.87-2.53,1.34.83-.46,1.67-.91,2.53-1.34Z"/>
    <g class="cls-11">
      <path class="cls-3" d="M33.22,436.03c-.63.36-1.25.74-1.86,1.13.61-.39,1.23-.76,1.86-1.13Z"/>
    </g>
    <path class="cls-4" d="M33.22,436.03c-.63.36-1.25.74-1.86,1.13.61-.39,1.23-.76,1.86-1.13Z"/>
    <g class="cls-11">
      <path class="cls-3" d="M69.03,427.09c.91-.01,1.81,0,2.72,0-.9-.02-1.81-.02-2.72,0Z"/>
    </g>
    <path class="cls-4" d="M69.03,427.09c.91-.01,1.81,0,2.72,0-.9-.02-1.81-.02-2.72,0Z"/>
    <g class="cls-11">
      <path class="cls-3" d="M1098.6,337.96c-.43.14-.85.29-1.27.44.42-.15.85-.29,1.27-.44Z"/>
    </g>
    <path class="cls-4" d="M1098.6,337.96c-.43.14-.85.29-1.27.44.42-.15.85-.29,1.27-.44Z"/>
    <g class="cls-11">
      <path class="cls-3" d="M81.91,427.85c-.97-.13-1.95-.24-2.93-.33.98.1,1.96.2,2.93.33Z"/>
    </g>
    <path class="cls-4" d="M81.91,427.85c-.97-.13-1.95-.24-2.93-.33.98.1,1.96.2,2.93.33Z"/>
    <g class="cls-11">
      <path class="cls-3" d="M78.12,427.44c-.74-.07-1.49-.12-2.24-.17.75.05,1.49.1,2.24.17Z"/>
    </g>
    <path class="cls-4" d="M78.12,427.44c-.74-.07-1.49-.12-2.24-.17.75.05,1.49.1,2.24.17Z"/>
    <g class="cls-11">
      <path class="cls-3" d="M1100.49,337.34c-.39.12-.77.25-1.15.38.38-.13.77-.25,1.15-.38Z"/>
    </g>
    <path class="cls-4" d="M1100.49,337.34c-.39.12-.77.25-1.15.38.38-.13.77-.25,1.15-.38Z"/>
    <g class="cls-11">
      <path class="cls-3" d="M1102.4,336.75c-.37.11-.74.23-1.11.34.37-.12.74-.23,1.11-.34Z"/>
    </g>
    <path class="cls-4" d="M1102.4,336.75c-.37.11-.74.23-1.11.34.37-.12.74-.23,1.11-.34Z"/>
    <g class="cls-11">
      <path class="cls-3" d="M75.04,427.21c-.99-.05-1.99-.1-2.99-.12,1,.02,2,.06,2.99.12Z"/>
    </g>
    <path class="cls-4" d="M75.04,427.21c-.99-.05-1.99-.1-2.99-.12,1,.02,2,.06,2.99.12Z"/>
    <g class="cls-11">
      <path class="cls-3" d="M65.02,427.22c-1,.06-2.01.13-3.01.22,1-.09,2-.16,3.01-.22Z"/>
    </g>
    <path class="cls-4" d="M65.02,427.22c-1,.06-2.01.13-3.01.22,1-.09,2-.16,3.01-.22Z"/>
    <g class="cls-11">
      <path class="cls-3" d="M61.53,427.49c-.85.08-1.69.18-2.53.28.84-.11,1.69-.2,2.53-.28Z"/>
    </g>
    <path class="cls-4" d="M61.53,427.49c-.85.08-1.69.18-2.53.28.84-.11,1.69-.2,2.53-.28Z"/>
    <g class="cls-11">
      <path class="cls-3" d="M58.09,427.89c-.77.11-1.54.22-2.3.35.76-.13,1.53-.24,2.3-.35Z"/>
    </g>
    <path class="cls-4" d="M58.09,427.89c-.77.11-1.54.22-2.3.35.76-.13,1.53-.24,2.3-.35Z"/>
    <g class="cls-11">
      <path class="cls-3" d="M68.12,427.1c-.76.02-1.52.04-2.29.08.76-.04,1.52-.06,2.29-.08Z"/>
    </g>
    <path class="cls-4" d="M68.12,427.1c-.76.02-1.52.04-2.29.08.76-.04,1.52-.06,2.29-.08Z"/>
  </g>
  <path class="cls-7" d="M1127.06,332.56c-10.83.16-21.98,2.95-32.18,6.71-18.84,6.95-36.97,16.97-56.94,18.99-35.97,3.63-69.91-19.25-106.07-19.55-35.15-.29-66.5,20.45-99.72,31.93-42.42,14.67-89.97,14.01-131.97-1.82-27.5-10.36-53.22-27.12-82.44-30.18-73.95-7.75-131.96,72.71-206.27,75.35-28.27,1.01-55.87-9.6-84.16-9.74-58.51-.29-111.27,43.74-169.65,39.8-25.8-1.74-50.11-12.84-75.75-16.22-17.29-2.28-36.81.37-50.97,9.56"/>
</svg>