<?xml version="1.0" encoding="UTF-8"?>
<svg id="Camada_2" data-name="Camada 2" xmlns="http://www.w3.org/2000/svg" viewBox="0 0 1168.18 639.16">
  <defs>
    <style>
      .cls-1 {
        letter-spacing: -.02em;
      }

      .cls-2 {
        letter-spacing: -.02em;
      }

      .cls-3, .cls-4 {
        fill: #fd0;
      }

      .cls-5 {
        font-family: Inter-Regular, Inter;
      }

      .cls-6 {
        letter-spacing: -.02em;
      }

      .cls-7, .cls-8, .cls-9 {
        fill: #fdb71a;
      }

      .cls-10 {
        letter-spacing: 0em;
      }

      .cls-11, .cls-4 {
        opacity: .2;
      }

      .cls-12 {
        letter-spacing: 0em;
      }

      .cls-13 {
        font-family: Inter-Bold, Inter;
        font-weight: 700;
      }

      .cls-8 {
        font-size: 29px;
      }

      .cls-14 {
        letter-spacing: .03em;
      }

      .cls-9 {
        font-family: Inter-SemiBold, Inter;
        font-size: 132px;
        font-weight: 600;
      }

      .cls-15 {
        letter-spacing: -.03em;
      }
    </style>
  </defs>
  <rect class="cls-4" x="16.18" y="25.39" width="1121.4" height="585" rx="80.1" ry="80.1"/>
  <g class="cls-11">
    <path class="cls-3" d="M1137.58,530.29V105.49c0-13.43-3.32-26.07-9.16-37.19-34.61,41.47-73.96,79.6-121.1,105.75-49.07,27.23-105.91,41.16-149.32,76.72-33.3,27.28-56.72,65.85-92.71,89.46-26.81,17.59-58.79,25.64-86.58,41.62-25.94,14.91-47.46,36.25-70.51,55.33-77.78,64.38-175.88,103.82-276.58,111.22-28.97,2.13-58.15,1.68-86.97,5.29-27.3,3.42-54.01,10.46-80.62,17.47-35.96,9.48-71.92,18.95-107.88,28.43,11.8,6.85,25.5,10.79,40.13,10.79h961.2c44.24,0,80.1-35.86,80.1-80.1Z"/>
    <path class="cls-4" d="M1137.58,530.29V105.49c0-13.43-3.32-26.07-9.16-37.19-34.61,41.47-73.96,79.6-121.1,105.75-49.07,27.23-105.91,41.16-149.32,76.72-33.3,27.28-56.72,65.85-92.71,89.46-26.81,17.59-58.79,25.64-86.58,41.62-25.94,14.91-47.46,36.25-70.51,55.33-77.78,64.38-175.88,103.82-276.58,111.22-28.97,2.13-58.15,1.68-86.97,5.29-27.3,3.42-54.01,10.46-80.62,17.47-35.96,9.48-71.92,18.95-107.88,28.43,11.8,6.85,25.5,10.79,40.13,10.79h961.2c44.24,0,80.1-35.86,80.1-80.1Z"/>
  </g>
  <g>
    <g class="cls-11">
      <path class="cls-3" d="M1137.58,530.29v-221.74c-51.25,21.62-112.28,16.2-167.41,29.72-60.28,14.78-112.38,52.06-160.36,91.43-14.6,11.97-29.25,24.39-46.61,31.83-23.71,10.16-51.01,10.36-73.95,22.14-16.02,8.23-28.8,21.55-43.88,31.4-18.96,12.38-41.03,18.94-62.76,25.34-29.19,8.6-58.64,17.25-88.98,19.69-30.76,2.47-61.94-1.51-92.44,3.17-32.35,4.97-62.49,19.47-94.49,26.32-33.13,7.09-67.41,5.83-101.12,9.13-18.36,1.79-37.07,5.21-54.3,11.69h906.19c44.24,0,80.1-35.86,80.1-80.1Z"/>
    </g>
    <path class="cls-4" d="M1137.58,530.29v-221.74c-51.25,21.62-112.28,16.2-167.41,29.72-60.28,14.78-112.38,52.06-160.36,91.43-14.6,11.97-29.25,24.39-46.61,31.83-23.71,10.16-51.01,10.36-73.95,22.14-16.02,8.23-28.8,21.55-43.88,31.4-18.96,12.38-41.03,18.94-62.76,25.34-29.19,8.6-58.64,17.25-88.98,19.69-30.76,2.47-61.94-1.51-92.44,3.17-32.35,4.97-62.49,19.47-94.49,26.32-33.13,7.09-67.41,5.83-101.12,9.13-18.36,1.79-37.07,5.21-54.3,11.69h906.19c44.24,0,80.1-35.86,80.1-80.1Z"/>
  </g>
  <g>
    <path class="cls-3" d="M1137.58,530.29v-97.87c-30.47-1.68-61.26,2.38-90.24,11.96-21.01,6.95-40.98,16.72-61.88,23.98-70.75,24.6-150.6,20.11-217.35,54.11-33.09,16.86-61.4,42.52-95.67,56.83-41.42,17.29-87.74,16.56-132.6,18.05-30.25,1-61.57,3.53-89.99,13.04h607.63c44.24,0,80.1-35.86,80.1-80.1Z"/>
    <path class="cls-4" d="M1137.58,530.29v-97.87c-30.47-1.68-61.26,2.38-90.24,11.96-21.01,6.95-40.98,16.72-61.88,23.98-70.75,24.6-150.6,20.11-217.35,54.11-33.09,16.86-61.4,42.52-95.67,56.83-41.42,17.29-87.74,16.56-132.6,18.05-30.25,1-61.57,3.53-89.99,13.04h607.63c44.24,0,80.1-35.86,80.1-80.1Z"/>
  </g>
  <text class="cls-9" transform="translate(114.28 229.64)"><tspan x="0" y="0">688 000</tspan></text>
  <text class="cls-8" transform="translate(117.77 285.97)"><tspan class="cls-13"><tspan x="0" y="0">passagei</tspan><tspan class="cls-15" x="128.16" y="0">r</tspan><tspan class="cls-12" x="139.27" y="0">os t</tspan><tspan class="cls-2" x="191.35" y="0">r</tspan><tspan x="202.76" y="0">anspo</tspan><tspan class="cls-14" x="290.05" y="0">r</tspan><tspan x="302.69" y="0">tados num dia útil</tspan></tspan><tspan class="cls-5"><tspan x="0" y="34.8">10 de outub</tspan><tspan class="cls-1" x="162.34" y="34.8">r</tspan><tspan x="172.64" y="34.8">o de 20</tspan><tspan class="cls-6" x="276.82" y="34.8">2</tspan><tspan class="cls-10" x="293.91" y="34.8">4</tspan></tspan></text>
  <g>
    <g>
      <path class="cls-7" d="M749.87,205.31c-19.48,0-35.32-15.84-35.32-35.32s15.85-35.32,35.32-35.32,35.32,15.84,35.32,35.32-15.85,35.32-35.32,35.32ZM749.87,141.22c-15.86,0-28.76,12.9-28.76,28.76s12.9,28.76,28.76,28.76,28.76-12.9,28.76-28.76-12.9-28.76-28.76-28.76Z"/>
      <path class="cls-7" d="M731.69,182.34c-5.1,0-10.02-1.06-14.63-3.16-1.65-.75-2.38-2.7-1.62-4.34.75-1.65,2.7-2.38,4.34-1.62,3.75,1.71,7.75,2.57,11.91,2.57,15.86,0,28.76-12.9,28.76-28.76,0-1.65-.14-3.3-.42-4.91-.31-1.79.89-3.48,2.68-3.79,1.78-.31,3.48.89,3.79,2.68.34,1.97.51,4,.51,6.02,0,19.48-15.85,35.32-35.32,35.32Z"/>
      <path class="cls-7" d="M780.27,182.34c-10.29,0-20.05-4.48-26.77-12.28-1.18-1.37-1.03-3.44.34-4.62,1.37-1.18,3.44-1.03,4.62.35,5.48,6.36,13.42,10,21.8,10,1.81,0,3.28,1.47,3.28,3.28s-1.47,3.28-3.28,3.28Z"/>
    </g>
    <path class="cls-7" d="M705.24,291.71c-1.81,0-3.28-1.47-3.28-3.28v-55.19c0-11.97,9.74-21.72,21.72-21.72h52.39c1.81,0,3.28,1.47,3.28,3.28s-1.47,3.28-3.28,3.28h-52.39c-8.36,0-15.16,6.8-15.16,15.16v55.19c0,1.81-1.47,3.28-3.28,3.28Z"/>
    <path class="cls-7" d="M723.36,291.71c-1.81,0-3.28-1.47-3.28-3.28v-32.68c0-1.81,1.47-3.28,3.28-3.28s3.28,1.47,3.28,3.28v32.68c0,1.81-1.47,3.28-3.28,3.28Z"/>
    <path class="cls-7" d="M776.38,291.71c-1.81,0-3.28-1.47-3.28-3.28v-48.9c0-1.81,1.47-3.28,3.28-3.28h3.53c26.56,0,48.17-21.61,48.17-48.17v-50.13c0-1.81,1.47-3.28,3.28-3.28s3.28,1.47,3.28,3.28v50.13c0,30.18-24.55,54.73-54.73,54.73h-.25v45.62c0,1.81-1.47,3.28-3.28,3.28Z"/>
    <path class="cls-7" d="M783.72,218.09h-29.65c-1.81,0-3.28-1.47-3.28-3.28s1.47-3.28,3.28-3.28h29.65c14.04,0,25.46-11.42,25.46-25.46v-48.12c0-1.81,1.47-3.28,3.28-3.28s3.28,1.47,3.28,3.28v48.12c0,17.66-14.36,32.02-32.02,32.02Z"/>
    <path class="cls-7" d="M836.09,135.62c-1.15,0-2.27-.61-2.87-1.69-.88-1.58-.31-3.58,1.28-4.46,7.98-4.42,12.93-12.83,12.93-21.94v-1.59c0-13.82-11.25-25.07-25.07-25.07s-25.07,11.25-25.07,25.07v1.59c0,8.34,4.13,16.11,11.05,20.78,1.5,1.01,1.89,3.05.88,4.55-1.01,1.5-3.05,1.9-4.55.88-8.72-5.9-13.93-15.7-13.93-26.22v-1.59c0-17.44,14.19-31.63,31.63-31.63s31.63,14.19,31.63,31.63v1.59c0,11.49-6.25,22.1-16.31,27.68-.5.28-1.05.41-1.59.41Z"/>
    <path class="cls-7" d="M836.08,139.16h-29.93c-1.81,0-3.28-1.47-3.28-3.28v-1.69c0-10.06,8.18-18.24,18.24-18.24s18.24,8.18,18.24,18.24v1.69c0,1.81-1.47,3.28-3.28,3.28ZM809.54,132.6h23.15c-.78-5.69-5.67-10.09-11.58-10.09s-10.8,4.4-11.57,10.09Z"/>
    <path class="cls-7" d="M822.36,80.87c-1.81,0-3.28-1.47-3.28-3.28v-30.6c0-1.81,1.47-3.28,3.28-3.28s3.28,1.47,3.28,3.28v30.6c0,1.81-1.47,3.28-3.28,3.28Z"/>
  </g>
</svg>